<svg width="150" height="48" viewBox="0 0 150 48" fill="none" xmlns="http://www.w3.org/2000/svg">
<path d="M53.0286 21.4857C53.0286 35.8767 44.658 48 29.2571 48C13.8563 48 0 39.5338 0 25.1429C0 10.7519 7.91343 0.914307 23.3143 0.914307C38.7151 0.914307 53.0286 7.09477 53.0286 21.4857Z" fill="#FAFAF9"/>
<g clip-path="url(#clip0_1_893)">
<path d="M10.964 27.3897C10.0916 23.8648 11.0437 20.7131 13.2955 18.048C14.4863 16.6387 15.2534 15.1148 15.9027 13.4574C16.3579 12.2953 16.83 11.1376 17.3488 10.0026C18.2415 8.05083 19.5679 7.84656 21.055 9.43245C23.0395 11.5484 25.0362 13.6555 26.9533 15.8317C28.0067 17.0277 29.1419 17.3132 30.65 16.8427C33.2914 16.0186 35.9569 15.2831 38.3956 13.9224C38.8182 13.6866 39.2918 13.5067 39.7645 13.4014C41.4738 13.0204 42.5745 14.0677 42.251 15.7752C41.8438 17.9253 41.457 20.0824 40.9434 22.208C40.4669 24.1796 40.5397 26.0742 41.1556 28.0007C41.6651 29.5952 41.8801 31.2378 41.1187 32.8356C40.8789 33.3384 40.7361 33.9549 40.0632 34.1144C36.8377 30.6341 32.5574 28.033 27.499 30.4971C26.6399 28.6111 24.6503 28.1647 23.0913 29.5082C19.3833 26.8857 15.3392 26.1912 10.964 27.3897ZM19.7995 10.7498C18.8971 10.6414 18.4645 11.2991 18.2194 11.934C17.6307 13.459 17.1704 15.0335 16.6681 16.5914C16.316 17.6835 16.8323 17.9341 17.8197 17.8128C19.6253 17.5911 21.4379 17.4898 23.2585 17.6256C23.9475 17.677 24.2981 17.5005 23.9266 16.7022C23.1362 15.0033 22.2209 13.3841 21.1141 11.8713C20.7626 11.3912 20.2806 11.077 19.7995 10.7498ZM40.7048 18.1915C41.1029 16.1939 40.5879 15.2924 39.2014 15.748C36.8978 16.5046 34.8424 17.7553 33.06 19.4203C32.5576 19.8896 32.5675 20.2778 33.3125 20.421C35.0213 20.7496 36.477 21.6013 37.8209 22.6429C38.5012 23.1699 38.9225 23.1013 39.2235 22.3212C39.75 20.9566 40.4 19.6353 40.7048 18.1915Z" fill="#FD634F"/>
<path d="M10.9644 27.3887C15.3393 26.1902 19.3837 26.8847 23.0913 29.5063C22.8164 30.321 22.9465 31.0396 23.7417 31.4582C24.4607 31.8368 24.4284 32.4592 24.0793 32.8882C23.6552 33.4096 23.3721 32.6785 23.0363 32.4961C22.7927 32.364 22.56 32.165 22.3387 32.421C22.116 32.6784 22.223 32.7045 22.3984 32.9123C23.0995 33.7422 25.0578 34.2431 26.0556 33.8266C26.292 33.7281 26.6633 33.8304 26.6023 33.4787C26.5198 33.0022 26.171 33.1738 25.8674 33.2169C25.5312 33.2645 25.0392 33.6419 24.969 32.9446C24.9169 32.4261 25.1821 32.1469 25.7642 32.1405C26.822 32.1286 27.394 31.5435 27.4992 30.4958C32.5576 28.0318 36.8377 30.6328 40.0634 34.1131C40.0621 34.5129 39.8137 34.762 39.5357 35.001C37.5083 36.7439 35.2982 38.201 32.5779 38.4567C29.6958 38.7276 26.8444 39.3679 23.9295 39.2582C21.6619 39.1728 19.6327 38.4744 18.0584 36.7643C16.2152 34.7625 14.3751 32.7567 12.5831 30.7096C11.756 29.7653 11.0967 28.6938 10.9644 27.3887Z" fill="#F4D2A6"/>
<path d="M19.8004 10.7507C20.2813 11.0778 20.7636 11.392 21.1149 11.8721C22.2217 13.3846 23.1369 15.0041 23.9273 16.703C24.2988 17.5013 23.9485 17.6781 23.2592 17.6264C21.4386 17.4906 19.626 17.5919 17.8204 17.8136C16.833 17.9349 16.3165 17.6843 16.6688 16.5922C17.1711 15.0343 17.6317 13.4598 18.2201 11.9348C18.4655 11.2999 18.8981 10.6423 19.8004 10.7507Z" fill="#D74C3A"/>
<path d="M40.705 18.1929C40.4 19.6367 39.7503 20.958 39.2238 22.3227C38.9228 23.1027 38.5015 23.1713 37.8212 22.6443C36.4772 21.603 35.0215 20.7512 33.3128 20.4224C32.5675 20.2792 32.5578 19.891 33.0603 19.4217C34.8427 17.7568 36.8981 16.506 39.2017 15.7494C40.5881 15.2941 41.1032 16.1953 40.705 18.1929Z" fill="#D74C3A"/>
<path d="M27.4997 30.4966C27.3948 31.5443 26.8226 32.1294 25.7647 32.1412C25.1827 32.1477 24.9174 32.4269 24.9696 32.9454C25.0395 33.6427 25.8995 33.1562 26.2358 33.1082C26.5391 33.0652 26.8881 32.8936 26.9706 33.3701C27.0314 33.7217 26.7054 33.7902 26.4693 33.8888C25.4715 34.3052 23.1002 33.7756 22.3991 32.9457C22.2234 32.7378 21.9975 32.518 22.2201 32.2606C22.4414 32.0048 22.6739 32.2035 22.9177 32.3357C23.2538 32.5179 23.6557 33.4101 24.0799 32.889C24.4289 32.46 24.4613 31.8375 23.7423 31.4589C22.9471 31.0401 22.8172 30.3218 23.0919 29.5071C24.6511 28.1642 26.6406 28.6106 27.4997 30.4966Z" fill="#1C1917"/>
<path d="M31.8166 26.9141C31.59 27.8238 30.9938 28.2743 30.1366 28.0127C29.2766 27.7501 28.4248 27.2721 28.6414 26.1298C28.8198 25.1877 29.5035 24.7417 30.4169 24.9803C31.3506 25.2241 31.979 25.8294 31.8166 26.9141Z" fill="#1C1917"/>
<path d="M21.6985 25.8577C20.8952 25.6217 20.2253 25.1153 20.3798 24.1828C20.544 23.1918 21.4 23.0556 22.2592 23.1758C23.1608 23.3018 23.6338 23.8301 23.4283 24.7524C23.2362 25.6136 22.6565 26.0147 21.6985 25.8577Z" fill="#1C1917"/>
</g>
<path d="M67.5832 32.7134C66.846 32.7134 66.2991 32.4875 65.9424 32.0357C65.5857 31.5838 65.3479 31.0369 65.229 30.3948C65.1338 29.729 65.0863 29.1226 65.0863 28.5756V27.2201C65.0863 25.722 65.1101 24.2119 65.1576 22.6899C65.229 21.168 65.2765 19.5271 65.3003 17.7674C64.7058 17.7912 64.1945 17.8268 63.7665 17.8744C63.3622 17.9219 62.946 17.9457 62.518 17.9457C61.4241 17.9457 60.8771 17.4107 60.8771 16.3405C60.8771 15.9363 60.9485 15.5558 61.0912 15.1991C61.2338 14.8186 61.5311 14.5808 61.9829 14.4857L65.122 13.7723C65.5262 13.6771 65.7878 13.4274 65.9067 13.0232C66.0494 12.5951 66.1207 12.1076 66.1207 11.5607C66.1445 10.9899 66.1802 10.4311 66.2277 9.88414C66.2991 9.33719 66.4774 8.88536 66.7628 8.52865C67.072 8.17195 67.5832 7.99359 68.2967 7.99359C68.796 7.99359 69.1646 8.13628 69.4024 8.42164C69.664 8.68323 69.8424 9.00427 69.9375 9.38475C70.0326 9.76524 70.0802 10.1338 70.0802 10.4905C70.0802 10.5381 70.0683 10.7046 70.0445 10.9899C70.0207 11.2515 69.9851 11.5131 69.9375 11.7747C69.9137 12.0363 69.9018 12.2027 69.9018 12.2741V13.4155H74.2537C74.7768 13.4155 75.1811 13.6652 75.4665 14.1646C75.7518 14.6402 75.8945 15.1277 75.8945 15.6271C75.8945 15.7223 75.8588 15.9006 75.7875 16.1622C75.7162 16.4238 75.5854 16.6735 75.3951 16.9113C75.2049 17.1253 74.9433 17.2323 74.6104 17.2323H70.0445C70.0207 17.2323 69.9732 17.2561 69.9018 17.3037C69.8305 17.3274 69.7473 17.3988 69.6521 17.5177L69.5808 17.6247C69.4619 18.2668 69.3787 18.7899 69.3311 19.1942C69.2835 19.5747 69.2479 19.9314 69.2241 20.2643C69.2241 20.5735 69.2241 20.954 69.2241 21.4058C69.2241 22.7137 69.2479 24.0216 69.2954 25.3296C69.3668 26.6375 69.4024 28.0168 69.4024 29.4674C69.4024 29.943 69.3668 30.4305 69.2954 30.9299C69.2241 31.4293 69.0576 31.8454 68.796 32.1784C68.5345 32.5351 68.1302 32.7134 67.5832 32.7134ZM80.9979 10.0268C80.2845 10.0268 79.6662 9.80091 79.143 9.34908C78.6199 8.89725 78.3583 8.2314 78.3583 7.35152C78.3583 6.47164 78.6674 5.85335 79.2857 5.49664C79.904 5.13994 80.5342 4.96158 81.1763 4.96158C81.9135 4.96158 82.5318 5.1875 83.0311 5.63933C83.5543 6.09116 83.8159 6.7689 83.8159 7.67256C83.8159 8.52866 83.5068 9.13506 82.8885 9.49177C82.2939 9.84847 81.6638 10.0268 80.9979 10.0268ZM79.5711 31.4649C79.1193 31.4649 78.7744 31.2271 78.5366 30.7515C78.2988 30.2759 78.1205 29.8003 78.0016 29.3247V24.7232C78.0016 24.6043 78.0254 24.2951 78.0729 23.7957C78.1443 23.2726 78.2156 22.6662 78.2869 21.9765C78.3821 21.2631 78.4653 20.5854 78.5366 19.9433C78.6318 19.2774 78.7031 18.7543 78.7507 18.3738C78.822 17.8982 78.9052 17.375 79.0004 16.8043C79.1193 16.2335 79.3214 15.7341 79.6068 15.3061C79.8921 14.878 80.2964 14.664 80.8196 14.664C81.3903 14.664 81.7946 14.8067 82.0324 15.0921C82.2939 15.3537 82.4485 15.6866 82.4961 16.0909C82.5436 16.4951 82.5674 16.9113 82.5674 17.3393V18.5878C82.5674 18.6354 82.5555 18.7424 82.5318 18.9088C82.508 19.0515 82.4723 19.218 82.4247 19.4082C82.2583 20.2405 82.1275 20.8588 82.0324 21.2631C81.961 21.6436 81.9016 21.9765 81.854 22.2619C81.8302 22.5235 81.8183 22.8921 81.8183 23.3677C81.8183 23.653 81.8183 24.0098 81.8183 24.4378C81.8421 24.8659 81.854 25.4247 81.854 26.1143C81.854 26.4235 81.8659 26.7326 81.8897 27.0418C81.9135 27.3271 81.9254 27.6363 81.9254 27.9692C81.9254 28.3259 81.8897 28.7064 81.8183 29.1107C81.7232 29.7052 81.5092 30.2521 81.1763 30.7515C80.8433 31.2271 80.3083 31.4649 79.5711 31.4649ZM92.3211 31.4649C90.6089 31.4649 89.1702 31.0488 88.005 30.2165C86.8635 29.3604 85.9955 28.2546 85.401 26.8991C84.8303 25.5198 84.5449 24.0454 84.5449 22.4759C84.5449 20.6924 84.9373 19.0515 85.722 17.5534C86.5306 16.0552 87.6364 14.8543 89.0394 13.9506C90.4662 13.0232 92.0833 12.5594 93.8906 12.5594C94.4376 12.5594 95.044 12.6189 95.7098 12.7378C96.3995 12.8329 97.0653 13.0232 97.7074 13.3085C98.3495 13.5701 98.8726 13.9268 99.2769 14.3787C99.705 14.8305 99.919 15.4131 99.919 16.1265C99.919 16.6497 99.7287 17.054 99.3482 17.3393C98.9678 17.6247 98.504 17.7674 97.9571 17.7674C97.3864 17.7674 96.8751 17.6247 96.4232 17.3393C95.9714 17.0302 95.5196 16.7329 95.0678 16.4476C94.6159 16.1384 94.1047 15.9838 93.5339 15.9838C92.7492 15.9838 92.0357 16.2216 91.3937 16.6973C90.7516 17.1729 90.2046 17.7793 89.7528 18.5165C89.301 19.2537 88.9443 20.0384 88.6827 20.8707C88.4449 21.6793 88.326 22.4402 88.326 23.1537C88.326 24.3665 88.5638 25.3058 89.0394 25.9716C89.5388 26.6137 90.2046 27.0655 91.037 27.3271C91.8931 27.5649 92.8443 27.6838 93.8906 27.6838C94.8656 27.6838 95.7693 27.4936 96.6016 27.1131C97.4577 26.7326 98.3138 26.3402 99.1699 25.936H99.8833C100.953 25.936 101.488 26.471 101.488 27.5412C101.488 28.1832 101.239 28.7302 100.739 29.182C100.264 29.6338 99.6455 30.0143 98.8845 30.3235C98.1236 30.6088 97.315 30.8348 96.4589 31.0012C95.6028 31.1677 94.8062 31.2866 94.069 31.3579C93.3318 31.4293 92.7492 31.4649 92.3211 31.4649ZM112.932 32C111.22 32 109.627 31.6314 108.152 30.8942C106.678 30.157 105.489 29.1107 104.585 27.7552C103.682 26.3997 103.23 24.8183 103.23 23.011C103.23 21.7744 103.48 20.6329 103.979 19.5866C104.502 18.5165 105.156 17.5177 105.941 16.5902C106.749 15.6628 107.558 14.7948 108.367 13.9863C108.795 13.5582 109.306 13.2491 109.9 13.0588C110.495 12.8448 111.101 12.7378 111.72 12.7378C113.265 12.7378 114.752 12.9043 116.178 13.2372C117.605 13.5701 118.877 14.1171 119.995 14.878C121.137 15.6152 122.04 16.6021 122.706 17.8387C123.372 19.0515 123.705 20.5378 123.705 22.2976C123.705 23.7482 123.396 25.068 122.777 26.257C122.159 27.446 121.327 28.4686 120.281 29.3247C119.258 30.1808 118.105 30.8466 116.82 31.3223C115.56 31.7741 114.264 32 112.932 32ZM112.219 28.0405C113.527 28.0405 114.763 27.8146 115.929 27.3628C117.094 26.8872 118.045 26.1857 118.782 25.2582C119.543 24.307 119.924 23.1418 119.924 21.7625C119.924 20.5497 119.567 19.539 118.854 18.7305C118.164 17.9219 117.284 17.3274 116.214 16.9469C115.144 16.5427 114.05 16.3405 112.932 16.3405C112.362 16.3405 111.898 16.4238 111.541 16.5902C111.184 16.7567 110.863 16.9826 110.578 17.268C110.293 17.5534 109.96 17.8863 109.579 18.2668C108.913 18.9564 108.319 19.7174 107.796 20.5497C107.273 21.3582 107.011 22.2857 107.011 23.332C107.011 24.9966 107.51 26.1976 108.509 26.9348C109.508 27.672 110.745 28.0405 112.219 28.0405ZM128.965 32.1784C128.418 32.1784 128.002 32 127.716 31.6433C127.455 31.2628 127.276 30.7991 127.181 30.2521C127.11 29.7052 127.074 29.1463 127.074 28.5756C127.074 28.2902 127.074 28.0168 127.074 27.7552C127.098 27.4698 127.11 27.2082 127.11 26.9704C127.11 26.3997 127.122 25.5198 127.145 24.3308C127.169 23.1418 127.205 21.7863 127.252 20.2643C127.3 18.7186 127.359 17.1134 127.431 15.4488C127.502 13.7841 127.597 12.179 127.716 10.6332C127.859 9.0875 128.013 7.73201 128.18 6.56676C128.346 5.49664 128.644 4.64055 129.072 3.99847C129.523 3.3564 129.975 3.03536 130.427 3.03536C130.831 3.03536 131.176 3.3564 131.462 3.99847C131.747 4.64055 131.854 5.69878 131.783 7.17317C131.331 9.90792 130.998 12.5476 130.784 15.0921C130.57 17.6366 130.463 20.2643 130.463 22.9753C130.463 24.1168 130.522 25.2582 130.641 26.3997C130.76 27.5412 130.82 28.6826 130.82 29.8241C130.82 30.5613 130.665 31.1439 130.356 31.572C130.047 31.9762 129.583 32.1784 128.965 32.1784ZM137.15 10.0268C136.436 10.0268 135.818 9.80091 135.295 9.34908C134.772 8.89725 134.51 8.2314 134.51 7.35152C134.51 6.47164 134.819 5.85335 135.437 5.49664C136.056 5.13994 136.686 4.96158 137.328 4.96158C138.065 4.96158 138.684 5.1875 139.183 5.63933C139.706 6.09116 139.968 6.7689 139.968 7.67256C139.968 8.52866 139.659 9.13506 139.04 9.49177C138.446 9.84847 137.816 10.0268 137.15 10.0268ZM135.723 31.4649C135.271 31.4649 134.926 31.2271 134.688 30.7515C134.451 30.2759 134.272 29.8003 134.153 29.3247V24.7232C134.153 24.6043 134.177 24.2951 134.225 23.7957C134.296 23.2726 134.367 22.6662 134.439 21.9765C134.534 21.2631 134.617 20.5854 134.688 19.9433C134.784 19.2774 134.855 18.7543 134.902 18.3738C134.974 17.8982 135.057 17.375 135.152 16.8043C135.271 16.2335 135.473 15.7341 135.759 15.3061C136.044 14.878 136.448 14.664 136.971 14.664C137.542 14.664 137.946 14.8067 138.184 15.0921C138.446 15.3537 138.6 15.6866 138.648 16.0909C138.695 16.4951 138.719 16.9113 138.719 17.3393V18.5878C138.719 18.6354 138.707 18.7424 138.684 18.9088C138.66 19.0515 138.624 19.218 138.576 19.4082C138.41 20.2405 138.279 20.8588 138.184 21.2631C138.113 21.6436 138.053 21.9765 138.006 22.2619C137.982 22.5235 137.97 22.8921 137.97 23.3677C137.97 23.653 137.97 24.0098 137.97 24.4378C137.994 24.8659 138.006 25.4247 138.006 26.1143C138.006 26.4235 138.018 26.7326 138.041 27.0418C138.065 27.3271 138.077 27.6363 138.077 27.9692C138.077 28.3259 138.041 28.7064 137.97 29.1107C137.875 29.7052 137.661 30.2521 137.328 30.7515C136.995 31.2271 136.46 31.4649 135.723 31.4649Z" fill="#FAFAF9"/>
<path d="M62.4851 43.9384C62.3534 43.9384 62.2546 43.8945 62.1888 43.8067C62.1229 43.7189 62.079 43.6164 62.0571 43.4993C62.0351 43.375 62.0132 43.2652 61.9912 43.1701V42.3579C61.9912 41.9481 62.0095 41.5347 62.0461 41.1176C62.0827 40.6932 62.101 40.2798 62.101 39.8774C62.101 39.6871 62.0827 39.5042 62.0461 39.3286C62.0095 39.153 61.9912 38.9737 61.9912 38.7908V38.4945C62.0498 38.3847 62.1266 38.3042 62.2217 38.253C62.3242 38.2018 62.4303 38.1762 62.54 38.1762C62.701 38.1762 62.8217 38.2237 62.9022 38.3189C62.9827 38.4067 63.0376 38.5128 63.0668 38.6371C63.1034 38.7615 63.1364 38.875 63.1656 38.9774C63.1949 39.0725 63.2425 39.1274 63.3083 39.142C63.5205 39.003 63.7217 38.8676 63.912 38.7359C64.1095 38.6042 64.3144 38.4981 64.5266 38.4176C64.7461 38.3298 64.9876 38.2859 65.251 38.2859C65.3827 38.2859 65.5217 38.3152 65.6681 38.3737C65.8217 38.4323 65.9534 38.5164 66.0632 38.6262C66.1729 38.7286 66.2278 38.8567 66.2278 39.0103C66.2278 39.2006 66.151 39.3396 65.9973 39.4274C65.851 39.5152 65.712 39.5591 65.5803 39.5591C65.4925 39.5591 65.4083 39.5408 65.3278 39.5042C65.2473 39.4676 65.1632 39.4493 65.0754 39.4493C64.8193 39.4493 64.5778 39.5152 64.351 39.6469C64.1315 39.7713 63.9376 39.9213 63.7693 40.0969C63.601 40.2725 63.4656 40.4371 63.3632 40.5908C63.3339 40.6567 63.312 40.7664 63.2973 40.9201C63.2827 41.0737 63.2717 41.2493 63.2644 41.4469C63.2571 41.6371 63.2498 41.8237 63.2425 42.0067C63.2425 42.1896 63.2388 42.3469 63.2315 42.4786C63.2242 42.7201 63.1985 42.9542 63.1546 43.1811C63.1181 43.4006 63.0485 43.5835 62.9461 43.7298C62.8437 43.8689 62.69 43.9384 62.4851 43.9384ZM69.2711 43.9932C68.7442 43.9932 68.2576 43.9128 67.8113 43.7518C67.3723 43.5835 67.0174 43.3201 66.7467 42.9615C66.4759 42.5957 66.3406 42.1237 66.3406 41.5457C66.3406 41.1067 66.4101 40.6786 66.5491 40.2615C66.6955 39.8445 66.904 39.4676 67.1747 39.1311C67.4455 38.7871 67.7711 38.5164 68.1515 38.3189C68.532 38.114 68.9601 38.0115 69.4357 38.0115C69.7576 38.0115 70.0576 38.0774 70.3357 38.2091C70.6211 38.3335 70.8479 38.5201 71.0162 38.7689C71.1918 39.0103 71.2796 39.3067 71.2796 39.6579C71.2796 39.9945 71.2101 40.3164 71.0711 40.6237C70.932 40.9311 70.7418 41.2054 70.5003 41.4469C70.2589 41.6884 69.9845 41.8786 69.6772 42.0176C69.3772 42.1493 69.0625 42.2152 68.7333 42.2152C68.682 42.2152 68.5686 42.2042 68.393 42.1823C68.2174 42.153 68.0784 42.1237 67.9759 42.0945C67.9028 42.0798 67.8442 42.0506 67.8003 42.0067C67.7857 41.9993 67.7601 41.9884 67.7235 41.9737C67.6869 41.9518 67.6613 41.9408 67.6467 41.9408C67.6979 42.153 67.804 42.3323 67.965 42.4786C68.1333 42.6176 68.3235 42.7201 68.5357 42.7859C68.7552 42.8518 68.9637 42.8847 69.1613 42.8847C69.3003 42.8847 69.4394 42.8774 69.5784 42.8628C69.7247 42.8408 69.8784 42.8298 70.0394 42.8298C70.2003 42.8298 70.3394 42.8737 70.4564 42.9615C70.5735 43.0493 70.632 43.192 70.632 43.3896C70.632 43.5506 70.5808 43.675 70.4784 43.7628C70.3833 43.8506 70.2589 43.9091 70.1052 43.9384C69.9589 43.9676 69.8089 43.9823 69.6552 43.9823C69.5089 43.9896 69.3808 43.9932 69.2711 43.9932ZM68.7333 40.942C68.9528 40.942 69.1686 40.9018 69.3808 40.8213C69.6003 40.7335 69.7796 40.6054 69.9186 40.4371C70.065 40.2689 70.1381 40.0603 70.1381 39.8115C70.1381 39.5993 70.0723 39.4311 69.9406 39.3067C69.8162 39.1823 69.6479 39.1201 69.4357 39.1201C69.2455 39.1201 69.0442 39.1713 68.832 39.2737C68.6198 39.3762 68.4186 39.5079 68.2284 39.6689C68.0455 39.8298 67.8955 40.0054 67.7784 40.1957C67.6613 40.3786 67.6028 40.5579 67.6028 40.7335V40.7774C67.793 40.8067 67.9833 40.8432 68.1735 40.8871C68.3637 40.9237 68.5503 40.942 68.7333 40.942ZM74.4813 43.9384C74.1447 43.9384 73.8301 43.8615 73.5374 43.7079C73.2447 43.5542 72.9996 43.3493 72.802 43.0932C72.6045 42.8298 72.4764 42.5335 72.4179 42.2042V41.6445C72.4179 41.2347 72.4911 40.8213 72.6374 40.4042C72.7837 39.9871 72.9923 39.603 73.263 39.2518C73.5337 38.8932 73.8557 38.6079 74.2289 38.3957C74.602 38.1762 75.0118 38.0664 75.4581 38.0664C75.6411 38.0664 75.7984 38.0993 75.9301 38.1652C76.0691 38.2311 76.1935 38.3006 76.3033 38.3737C76.4203 38.4396 76.5337 38.4798 76.6435 38.4945C76.702 38.1945 76.7825 37.9969 76.885 37.9018C76.9874 37.7993 77.1264 37.7481 77.302 37.7481C77.5142 37.7481 77.6569 37.8176 77.7301 37.9567C77.8106 38.0884 77.8508 38.2567 77.8508 38.4615C77.8508 38.864 77.8398 39.2591 77.8179 39.6469C77.8033 40.0347 77.7959 40.4335 77.7959 40.8432C77.7959 41.1652 77.8142 41.4981 77.8508 41.842C77.8874 42.1859 77.9057 42.5189 77.9057 42.8408V43.0713C77.9057 43.2323 77.8728 43.3823 77.8069 43.5213C77.7484 43.653 77.613 43.7189 77.4008 43.7189C77.2033 43.7189 77.0606 43.6603 76.9728 43.5432C76.8923 43.4189 76.8374 43.2725 76.8081 43.1042C76.7862 42.9286 76.7642 42.7713 76.7423 42.6323L76.6984 42.5884C76.4496 42.8371 76.2264 43.064 76.0289 43.2689C75.8386 43.4737 75.6264 43.6384 75.3923 43.7628C75.1581 43.8798 74.8545 43.9384 74.4813 43.9384ZM74.3715 42.8298C74.6276 42.8298 74.8691 42.753 75.0959 42.5993C75.3301 42.4384 75.5386 42.2335 75.7215 41.9847C75.9045 41.7286 76.0472 41.4615 76.1496 41.1835C76.252 40.9054 76.3033 40.6457 76.3033 40.4042C76.3033 40.2213 76.2776 40.0384 76.2264 39.8554C76.1752 39.6652 76.0874 39.5042 75.963 39.3725C75.8459 39.2408 75.6776 39.175 75.4581 39.175C75.2167 39.175 74.9789 39.2591 74.7447 39.4274C74.5179 39.5957 74.313 39.8115 74.1301 40.075C73.9472 40.3311 73.8008 40.6018 73.6911 40.8871C73.5813 41.1652 73.5264 41.4176 73.5264 41.6445C73.5264 41.8274 73.552 42.0103 73.6033 42.1932C73.6618 42.3762 73.7533 42.5298 73.8776 42.6542C74.002 42.7713 74.1667 42.8298 74.3715 42.8298ZM80.533 43.9932C80.1671 43.8981 79.8598 43.7371 79.611 43.5103C79.3696 43.2762 79.1866 43.0018 79.0622 42.6871C78.9452 42.3725 78.8866 42.0432 78.8866 41.6993C78.8866 41.2237 78.9891 40.7664 79.194 40.3274C79.3988 39.8811 79.6732 39.4859 80.0171 39.142C80.3683 38.7908 80.7635 38.5128 81.2025 38.3079C81.6488 38.103 82.1098 38.0006 82.5854 38.0006C82.7537 38.0006 82.9147 38.0262 83.0683 38.0774C83.2293 38.1213 83.3903 38.1469 83.5513 38.1542L83.5952 38.0115C83.6025 37.8798 83.6135 37.7152 83.6281 37.5176C83.6427 37.3201 83.661 37.1152 83.683 36.903C83.7122 36.6835 83.7415 36.475 83.7708 36.2774C83.8074 36.0798 83.8476 35.9225 83.8915 35.8054C83.9501 35.6371 84.0342 35.4945 84.144 35.3774C84.2537 35.253 84.4001 35.1908 84.583 35.1908C84.7659 35.1908 84.883 35.2493 84.9342 35.3664C84.9927 35.4835 85.022 35.6298 85.022 35.8054V36.0798C84.9196 36.9213 84.8391 37.7518 84.7805 38.5713C84.7293 39.3835 84.7037 40.1957 84.7037 41.0079C84.7037 41.3811 84.722 41.7469 84.7586 42.1054C84.7952 42.4567 84.8135 42.8262 84.8135 43.214C84.8135 43.353 84.7915 43.492 84.7476 43.6311C84.711 43.7628 84.6013 43.8286 84.4183 43.8286C84.2281 43.8286 84.0818 43.7774 83.9793 43.675C83.8769 43.5652 83.8037 43.4298 83.7598 43.2689C83.7159 43.1079 83.6793 42.9542 83.6501 42.8079C83.6354 42.6981 83.6208 42.6432 83.6061 42.6432H83.5622C83.1818 43.0603 82.7903 43.3896 82.3879 43.6311C81.9927 43.8725 81.5354 43.9932 81.0159 43.9932H80.533ZM80.9501 42.8737C81.2354 42.8737 81.5098 42.7969 81.7732 42.6432C82.0366 42.4896 82.2708 42.2884 82.4757 42.0396C82.6879 41.7908 82.8525 41.5237 82.9696 41.2384C83.094 40.9457 83.1562 40.6676 83.1562 40.4042C83.1562 40.3384 83.1415 40.2396 83.1122 40.1079C83.083 39.9762 83.0464 39.8371 83.0025 39.6908C82.9586 39.5445 82.911 39.4237 82.8598 39.3286C82.8159 39.2262 82.7757 39.175 82.7391 39.175C82.3879 39.175 82.0549 39.2481 81.7403 39.3945C81.4257 39.5335 81.144 39.7237 80.8952 39.9652C80.6537 40.2067 80.4598 40.4811 80.3135 40.7884C80.1744 41.0957 80.1049 41.4176 80.1049 41.7542V42.1932C80.1635 42.4054 80.2622 42.5737 80.4013 42.6981C80.5403 42.8152 80.7232 42.8737 80.9501 42.8737ZM87.4961 37.0676C87.2765 37.0676 87.0863 36.9981 86.9253 36.8591C86.7644 36.7201 86.6839 36.5152 86.6839 36.2445C86.6839 35.9737 86.779 35.7835 86.9692 35.6737C87.1595 35.564 87.3534 35.5091 87.5509 35.5091C87.7778 35.5091 87.968 35.5786 88.1217 35.7176C88.2826 35.8567 88.3631 36.0652 88.3631 36.3432C88.3631 36.6067 88.268 36.7932 88.0778 36.903C87.8948 37.0128 87.7009 37.0676 87.4961 37.0676ZM87.057 43.664C86.918 43.664 86.8119 43.5908 86.7387 43.4445C86.6656 43.2981 86.6107 43.1518 86.5741 43.0054V41.5896C86.5741 41.553 86.5814 41.4579 86.5961 41.3042C86.618 41.1432 86.64 40.9567 86.6619 40.7445C86.6912 40.525 86.7168 40.3164 86.7387 40.1189C86.768 39.914 86.79 39.753 86.8046 39.6359C86.8265 39.4896 86.8522 39.3286 86.8814 39.153C86.918 38.9774 86.9802 38.8237 87.068 38.692C87.1558 38.5603 87.2802 38.4945 87.4412 38.4945C87.6168 38.4945 87.7412 38.5384 87.8144 38.6262C87.8948 38.7067 87.9424 38.8091 87.957 38.9335C87.9717 39.0579 87.979 39.1859 87.979 39.3176V39.7018C87.979 39.7164 87.9753 39.7493 87.968 39.8006C87.9607 39.8445 87.9497 39.8957 87.9351 39.9542C87.8839 40.2103 87.8436 40.4006 87.8144 40.525C87.7924 40.642 87.7741 40.7445 87.7595 40.8323C87.7522 40.9128 87.7485 41.0262 87.7485 41.1725C87.7485 41.2603 87.7485 41.3701 87.7485 41.5018C87.7558 41.6335 87.7595 41.8054 87.7595 42.0176C87.7595 42.1128 87.7631 42.2079 87.7705 42.303C87.7778 42.3908 87.7814 42.4859 87.7814 42.5884C87.7814 42.6981 87.7705 42.8152 87.7485 42.9396C87.7192 43.1225 87.6534 43.2908 87.5509 43.4445C87.4485 43.5908 87.2839 43.664 87.057 43.664ZM89.9735 43.6091C89.7905 43.6091 89.6552 43.5579 89.5674 43.4554C89.4796 43.3457 89.4247 43.214 89.4027 43.0603C89.3808 42.8993 89.3698 42.7457 89.3698 42.5993C89.3698 42.2628 89.3771 41.9262 89.3918 41.5896C89.4137 41.253 89.4247 40.9311 89.4247 40.6237C89.4247 40.2945 89.3881 39.9798 89.3149 39.6798C89.2418 39.3798 89.2052 39.0798 89.2052 38.7798V38.3518C89.271 38.1981 89.3405 38.0957 89.4137 38.0445C89.4869 37.9859 89.5857 37.9567 89.71 37.9567C89.9369 37.9567 90.1015 38.0298 90.2039 38.1762C90.3064 38.3152 90.3722 38.4835 90.4015 38.6811C90.4381 38.8713 90.4637 39.0469 90.4783 39.2079C90.4857 39.2884 90.5003 39.4457 90.5222 39.6798C90.5515 39.914 90.5698 40.1335 90.5771 40.3384H90.621L90.6649 40.2945C90.8039 40.0896 90.9503 39.8701 91.1039 39.6359C91.2576 39.4018 91.4259 39.1823 91.6088 38.9774C91.7991 38.7725 92.0076 38.6079 92.2344 38.4835C92.4613 38.3518 92.7174 38.2859 93.0027 38.2859C93.3686 38.2859 93.6796 38.392 93.9357 38.6042C94.1918 38.8091 94.4076 39.0798 94.5832 39.4164C94.7588 39.7457 94.9015 40.1042 95.0113 40.492C95.121 40.8798 95.2088 41.2567 95.2747 41.6225C95.3405 41.9884 95.3991 42.303 95.4503 42.5664V42.8408C95.4503 43.0018 95.4064 43.1628 95.3186 43.3237C95.2308 43.4774 95.0918 43.5542 94.9015 43.5542C94.7039 43.5542 94.5576 43.503 94.4625 43.4006C94.3747 43.2981 94.3161 43.1664 94.2869 43.0054C94.2722 42.9396 94.2539 42.8335 94.232 42.6871C94.21 42.5335 94.1844 42.3689 94.1552 42.1932C94.1259 42.0103 94.1003 41.842 94.0783 41.6884C94.0564 41.5274 94.0381 41.4103 94.0235 41.3371C94.0015 41.1908 93.9503 41.0189 93.8698 40.8213C93.7966 40.6164 93.7271 40.4408 93.6613 40.2945C93.5954 40.1408 93.5113 39.9798 93.4088 39.8115C93.3064 39.6432 93.1564 39.5591 92.9588 39.5591C92.7832 39.5591 92.6222 39.6213 92.4759 39.7457C92.3369 39.8701 92.2125 40.0164 92.1027 40.1847C92.0003 40.353 91.9088 40.503 91.8283 40.6347C91.6454 40.9274 91.4808 41.2201 91.3344 41.5128C91.1881 41.8054 91.0308 42.1237 90.8625 42.4676C90.7966 42.6067 90.7344 42.7676 90.6759 42.9506C90.6174 43.1262 90.5369 43.2798 90.4344 43.4115C90.332 43.5432 90.1783 43.6091 89.9735 43.6091ZM98.6752 46.9237C98.463 46.8506 98.2582 46.7518 98.0606 46.6274C97.8704 46.5103 97.713 46.3713 97.5886 46.2103C97.4716 46.0567 97.413 45.8884 97.413 45.7054C97.413 45.5371 97.4716 45.4128 97.5886 45.3323C97.713 45.2518 97.8447 45.2115 97.9838 45.2115C98.1447 45.2115 98.2765 45.2591 98.3789 45.3542C98.4886 45.4567 98.6021 45.5554 98.7191 45.6506C98.8435 45.753 98.9935 45.8042 99.1691 45.8042C99.3813 45.8042 99.5679 45.7347 99.7289 45.5957C99.8899 45.4567 100.025 45.2774 100.135 45.0579C100.245 44.8384 100.329 44.6042 100.387 44.3554C100.453 44.1067 100.49 43.8725 100.497 43.653C100.505 43.6018 100.515 43.492 100.53 43.3237C100.545 43.1481 100.559 42.9652 100.574 42.775C100.596 42.5847 100.607 42.4457 100.607 42.3579V42.2481C100.607 42.1896 100.592 42.1603 100.563 42.1603H100.519C100.3 42.4164 100.073 42.6798 99.8386 42.9506C99.6118 43.2213 99.3557 43.4481 99.0704 43.6311C98.785 43.8067 98.4557 43.8945 98.0825 43.8945C97.7972 43.8945 97.5301 43.8213 97.2813 43.675C97.0325 43.5286 96.8313 43.3311 96.6777 43.0823C96.524 42.8335 96.4472 42.5554 96.4472 42.2481C96.4472 41.7432 96.546 41.242 96.7435 40.7445C96.9411 40.2396 97.2155 39.7823 97.5667 39.3725C97.9179 38.9628 98.324 38.6335 98.785 38.3847C99.2533 38.1359 99.7582 38.0115 100.3 38.0115C100.446 38.0115 100.6 38.0371 100.761 38.0884C100.922 38.1396 101.057 38.2237 101.167 38.3408C101.284 38.4506 101.342 38.6006 101.342 38.7908C101.342 38.9591 101.28 39.0945 101.156 39.1969C101.039 39.2993 100.896 39.3506 100.728 39.3506C100.611 39.3506 100.494 39.3323 100.376 39.2957C100.267 39.2591 100.153 39.2408 100.036 39.2408H99.8167C99.4143 39.3579 99.0484 39.5664 98.7191 39.8664C98.3972 40.1591 98.1411 40.503 97.9508 40.8981C97.7606 41.2859 97.6655 41.6811 97.6655 42.0835V42.4567C97.724 42.6689 97.8447 42.775 98.0277 42.775C98.196 42.775 98.3643 42.7128 98.5325 42.5884C98.7008 42.464 98.8655 42.3103 99.0265 42.1274C99.1874 41.9371 99.3374 41.7506 99.4765 41.5676C99.6155 41.3774 99.7435 41.2201 99.8606 41.0957C99.9704 40.9054 100.095 40.7262 100.234 40.5579C100.373 40.3823 100.501 40.1993 100.618 40.0091C100.698 39.9067 100.775 39.8371 100.848 39.8006C100.922 39.764 101.009 39.7457 101.112 39.7457C101.295 39.7457 101.426 39.7969 101.507 39.8993C101.595 39.9945 101.657 40.1152 101.694 40.2615C101.73 40.4079 101.756 40.5469 101.77 40.6786V41.5018C101.77 41.8018 101.759 42.142 101.737 42.5225C101.723 42.903 101.686 43.2981 101.628 43.7079C101.576 44.1103 101.492 44.5018 101.375 44.8823C101.258 45.2628 101.101 45.6067 100.903 45.914C100.713 46.2213 100.472 46.4664 100.179 46.6493C99.8862 46.8323 99.5313 46.9237 99.1143 46.9237H98.6752ZM108.769 44.2676C108.615 44.2676 108.476 44.1981 108.351 44.0591C108.234 43.9201 108.176 43.7664 108.176 43.5981V42.6762C108.176 42.2445 108.183 41.8237 108.198 41.414C108.22 40.9969 108.231 40.5725 108.231 40.1408C108.231 40.1189 108.223 40.0676 108.209 39.9871C108.201 39.9067 108.194 39.8189 108.187 39.7237H108.121C108.048 39.7237 107.967 39.7347 107.879 39.7567C107.799 39.7713 107.719 39.7786 107.638 39.7786C107.455 39.7786 107.309 39.7274 107.199 39.625C107.089 39.5152 107.034 39.3652 107.034 39.175C107.034 38.9993 107.075 38.875 107.155 38.8018C107.243 38.7286 107.349 38.6811 107.473 38.6591C107.605 38.6371 107.737 38.6189 107.869 38.6042C108.008 38.5823 108.125 38.5384 108.22 38.4725C108.315 38.4067 108.373 38.2932 108.395 38.1323C108.476 37.7811 108.56 37.4481 108.648 37.1335C108.743 36.8189 108.867 36.5408 109.021 36.2993C109.175 36.0579 109.383 35.8676 109.647 35.7286C109.91 35.5896 110.254 35.5201 110.678 35.5201C110.773 35.5201 110.901 35.5347 111.062 35.564C111.231 35.5859 111.399 35.6262 111.567 35.6847C111.743 35.7432 111.889 35.8237 112.006 35.9262C112.131 36.0213 112.193 36.1457 112.193 36.2993C112.193 36.4676 112.134 36.614 112.017 36.7384C111.908 36.8554 111.783 36.914 111.644 36.914C111.461 36.914 111.289 36.8774 111.128 36.8042C110.967 36.7311 110.795 36.6945 110.612 36.6945C110.356 36.6945 110.159 36.7823 110.02 36.9579C109.888 37.1262 109.797 37.342 109.745 37.6054C109.694 37.8615 109.665 38.1213 109.658 38.3847H110.733C110.858 38.3847 110.967 38.4506 111.062 38.5823C111.165 38.7067 111.216 38.8311 111.216 38.9554C111.216 39.1018 111.176 39.2115 111.095 39.2847C111.015 39.3579 110.916 39.4091 110.799 39.4384C110.682 39.4603 110.569 39.4823 110.459 39.5042C110.393 39.5042 110.294 39.5152 110.162 39.5371C110.031 39.5518 109.895 39.5664 109.756 39.5811C109.625 39.5957 109.519 39.6067 109.438 39.614C109.394 39.6432 109.358 39.7457 109.328 39.9213C109.306 40.0896 109.288 40.2908 109.273 40.525C109.266 40.7591 109.262 40.9932 109.262 41.2274C109.262 41.4176 109.262 41.5932 109.262 41.7542C109.27 41.9152 109.273 42.025 109.273 42.0835C109.273 42.303 109.281 42.5189 109.295 42.7311C109.317 42.9432 109.328 43.1445 109.328 43.3347C109.328 43.4664 109.317 43.6054 109.295 43.7518C109.281 43.8908 109.233 44.0115 109.153 44.114C109.079 44.2164 108.951 44.2676 108.769 44.2676ZM115.072 43.8286C114.545 43.8286 114.055 43.7152 113.601 43.4884C113.148 43.2615 112.782 42.9396 112.504 42.5225C112.226 42.1054 112.087 41.6189 112.087 41.0628C112.087 40.6823 112.163 40.3311 112.317 40.0091C112.478 39.6798 112.679 39.3725 112.921 39.0871C113.169 38.8018 113.418 38.5347 113.667 38.2859C113.799 38.1542 113.956 38.0591 114.139 38.0006C114.322 37.9347 114.509 37.9018 114.699 37.9018C115.174 37.9018 115.632 37.953 116.071 38.0554C116.51 38.1579 116.901 38.3262 117.245 38.5603C117.596 38.7871 117.874 39.0908 118.079 39.4713C118.284 39.8445 118.387 40.3018 118.387 40.8432C118.387 41.2896 118.291 41.6957 118.101 42.0615C117.911 42.4274 117.655 42.742 117.333 43.0054C117.018 43.2689 116.663 43.4737 116.268 43.6201C115.88 43.7591 115.482 43.8286 115.072 43.8286ZM114.852 42.6103C115.255 42.6103 115.635 42.5408 115.994 42.4018C116.352 42.2554 116.645 42.0396 116.872 41.7542C117.106 41.4615 117.223 41.103 117.223 40.6786C117.223 40.3054 117.113 39.9945 116.894 39.7457C116.682 39.4969 116.411 39.314 116.082 39.1969C115.752 39.0725 115.416 39.0103 115.072 39.0103C114.896 39.0103 114.754 39.0359 114.644 39.0871C114.534 39.1384 114.435 39.2079 114.348 39.2957C114.26 39.3835 114.157 39.4859 114.04 39.603C113.835 39.8152 113.652 40.0493 113.491 40.3054C113.33 40.5542 113.25 40.8396 113.25 41.1615C113.25 41.6737 113.404 42.0432 113.711 42.2701C114.018 42.4969 114.399 42.6103 114.852 42.6103ZM120.118 43.9384C119.986 43.9384 119.887 43.8945 119.821 43.8067C119.756 43.7189 119.712 43.6164 119.69 43.4993C119.668 43.375 119.646 43.2652 119.624 43.1701V42.3579C119.624 41.9481 119.642 41.5347 119.679 41.1176C119.715 40.6932 119.734 40.2798 119.734 39.8774C119.734 39.6871 119.715 39.5042 119.679 39.3286C119.642 39.153 119.624 38.9737 119.624 38.7908V38.4945C119.682 38.3847 119.759 38.3042 119.854 38.253C119.957 38.2018 120.063 38.1762 120.173 38.1762C120.334 38.1762 120.454 38.2237 120.535 38.3189C120.615 38.4067 120.67 38.5128 120.7 38.6371C120.736 38.7615 120.769 38.875 120.798 38.9774C120.828 39.0725 120.875 39.1274 120.941 39.142C121.153 39.003 121.354 38.8676 121.545 38.7359C121.742 38.6042 121.947 38.4981 122.159 38.4176C122.379 38.3298 122.62 38.2859 122.884 38.2859C123.015 38.2859 123.154 38.3152 123.301 38.3737C123.454 38.4323 123.586 38.5164 123.696 38.6262C123.806 38.7286 123.86 38.8567 123.86 39.0103C123.86 39.2006 123.784 39.3396 123.63 39.4274C123.484 39.5152 123.345 39.5591 123.213 39.5591C123.125 39.5591 123.041 39.5408 122.96 39.5042C122.88 39.4676 122.796 39.4493 122.708 39.4493C122.452 39.4493 122.21 39.5152 121.984 39.6469C121.764 39.7713 121.57 39.9213 121.402 40.0969C121.234 40.2725 121.098 40.4371 120.996 40.5908C120.967 40.6567 120.945 40.7664 120.93 40.9201C120.915 41.0737 120.904 41.2493 120.897 41.4469C120.89 41.6371 120.882 41.8237 120.875 42.0067C120.875 42.1896 120.871 42.3469 120.864 42.4786C120.857 42.7201 120.831 42.9542 120.787 43.1811C120.751 43.4006 120.681 43.5835 120.579 43.7298C120.476 43.8689 120.323 43.9384 120.118 43.9384ZM128.919 43.9384C128.758 43.9384 128.623 43.8798 128.513 43.7628C128.411 43.6457 128.359 43.514 128.359 43.3676V43.1591L128.744 39.153V36.6725C128.744 36.5189 128.751 36.3432 128.765 36.1457C128.78 35.9481 128.831 35.7762 128.919 35.6298C129.014 35.4835 129.175 35.4103 129.402 35.4103C129.607 35.4103 129.75 35.4798 129.83 35.6189C129.918 35.7579 129.969 35.9225 129.984 36.1128C130.006 36.303 130.017 36.4713 130.017 36.6176C130.017 37.042 129.998 37.4774 129.962 37.9237C129.933 38.3628 129.914 38.842 129.907 39.3615H130.039C130.053 39.3615 130.119 39.3432 130.236 39.3067C130.353 39.2628 130.492 39.2152 130.653 39.164C130.814 39.1054 130.972 39.0469 131.125 38.9884C131.286 38.9225 131.414 38.8676 131.509 38.8237C131.641 38.7579 131.787 38.6847 131.948 38.6042C132.109 38.5164 132.274 38.4396 132.442 38.3737C132.611 38.3079 132.768 38.275 132.914 38.275C133.083 38.275 133.214 38.3371 133.309 38.4615C133.412 38.5786 133.463 38.7213 133.463 38.8896C133.463 39.0871 133.39 39.2262 133.244 39.3067C133.097 39.3798 132.951 39.4457 132.804 39.5042C132.731 39.5408 132.6 39.5993 132.409 39.6798C132.226 39.7603 132.018 39.8481 131.784 39.9432C131.55 40.0311 131.323 40.1189 131.103 40.2067C130.884 40.2871 130.697 40.3567 130.544 40.4152V40.4481L130.598 40.503C130.65 40.5542 130.701 40.5981 130.752 40.6347C130.811 40.6713 130.865 40.7152 130.917 40.7664C131.026 40.8323 131.191 40.9384 131.411 41.0847C131.63 41.2311 131.864 41.3884 132.113 41.5567C132.369 41.725 132.603 41.8823 132.815 42.0286C133.035 42.1676 133.192 42.2664 133.287 42.325C133.383 42.3981 133.485 42.475 133.595 42.5554C133.704 42.6286 133.8 42.7164 133.88 42.8189C133.968 42.914 134.012 43.0274 134.012 43.1591C134.012 43.3347 133.961 43.4811 133.858 43.5981C133.763 43.7152 133.646 43.7737 133.507 43.7737C133.331 43.7737 133.156 43.7225 132.98 43.6201C132.812 43.5176 132.647 43.3969 132.486 43.2579C132.333 43.1189 132.186 43.0018 132.047 42.9067C131.974 42.8554 131.835 42.764 131.63 42.6323C131.433 42.5006 131.209 42.3542 130.961 42.1932C130.719 42.0323 130.489 41.8786 130.269 41.7323C130.057 41.5859 129.892 41.4725 129.775 41.392H129.731L129.687 41.4908L129.468 43.4335C129.439 43.5798 129.369 43.7006 129.259 43.7957C129.157 43.8908 129.044 43.9384 128.919 43.9384ZM136.147 37.0676C135.927 37.0676 135.737 36.9981 135.576 36.8591C135.415 36.7201 135.335 36.5152 135.335 36.2445C135.335 35.9737 135.43 35.7835 135.62 35.6737C135.81 35.564 136.004 35.5091 136.202 35.5091C136.428 35.5091 136.619 35.5786 136.772 35.7176C136.933 35.8567 137.014 36.0652 137.014 36.3432C137.014 36.6067 136.919 36.7932 136.728 36.903C136.546 37.0128 136.352 37.0676 136.147 37.0676ZM135.708 43.664C135.569 43.664 135.463 43.5908 135.389 43.4445C135.316 43.2981 135.261 43.1518 135.225 43.0054V41.5896C135.225 41.553 135.232 41.4579 135.247 41.3042C135.269 41.1432 135.291 40.9567 135.313 40.7445C135.342 40.525 135.367 40.3164 135.389 40.1189C135.419 39.914 135.441 39.753 135.455 39.6359C135.477 39.4896 135.503 39.3286 135.532 39.153C135.569 38.9774 135.631 38.8237 135.719 38.692C135.807 38.5603 135.931 38.4945 136.092 38.4945C136.267 38.4945 136.392 38.5384 136.465 38.6262C136.546 38.7067 136.593 38.8091 136.608 38.9335C136.622 39.0579 136.63 39.1859 136.63 39.3176V39.7018C136.63 39.7164 136.626 39.7493 136.619 39.8006C136.611 39.8445 136.6 39.8957 136.586 39.9542C136.535 40.2103 136.494 40.4006 136.465 40.525C136.443 40.642 136.425 40.7445 136.41 40.8323C136.403 40.9128 136.399 41.0262 136.399 41.1725C136.399 41.2603 136.399 41.3701 136.399 41.5018C136.407 41.6335 136.41 41.8054 136.41 42.0176C136.41 42.1128 136.414 42.2079 136.421 42.303C136.428 42.3908 136.432 42.4859 136.432 42.5884C136.432 42.6981 136.421 42.8152 136.399 42.9396C136.37 43.1225 136.304 43.2908 136.202 43.4445C136.099 43.5908 135.935 43.664 135.708 43.664ZM139.184 43.9932C138.818 43.8981 138.511 43.7371 138.262 43.5103C138.02 43.2762 137.838 43.0018 137.713 42.6871C137.596 42.3725 137.538 42.0432 137.538 41.6993C137.538 41.2237 137.64 40.7664 137.845 40.3274C138.05 39.8811 138.324 39.4859 138.668 39.142C139.019 38.7908 139.414 38.5128 139.853 38.3079C140.3 38.103 140.761 38.0006 141.236 38.0006C141.405 38.0006 141.566 38.0262 141.719 38.0774C141.88 38.1213 142.041 38.1469 142.202 38.1542L142.246 38.0115C142.253 37.8798 142.264 37.7152 142.279 37.5176C142.294 37.3201 142.312 37.1152 142.334 36.903C142.363 36.6835 142.392 36.475 142.422 36.2774C142.458 36.0798 142.499 35.9225 142.542 35.8054C142.601 35.6371 142.685 35.4945 142.795 35.3774C142.905 35.253 143.051 35.1908 143.234 35.1908C143.417 35.1908 143.534 35.2493 143.585 35.3664C143.644 35.4835 143.673 35.6298 143.673 35.8054V36.0798C143.57 36.9213 143.49 37.7518 143.431 38.5713C143.38 39.3835 143.355 40.1957 143.355 41.0079C143.355 41.3811 143.373 41.7469 143.41 42.1054C143.446 42.4567 143.464 42.8262 143.464 43.214C143.464 43.353 143.442 43.492 143.399 43.6311C143.362 43.7628 143.252 43.8286 143.069 43.8286C142.879 43.8286 142.733 43.7774 142.63 43.675C142.528 43.5652 142.455 43.4298 142.411 43.2689C142.367 43.1079 142.33 42.9542 142.301 42.8079C142.286 42.6981 142.272 42.6432 142.257 42.6432H142.213C141.833 43.0603 141.441 43.3896 141.039 43.6311C140.644 43.8725 140.186 43.9932 139.667 43.9932H139.184ZM139.601 42.8737C139.886 42.8737 140.161 42.7969 140.424 42.6432C140.688 42.4896 140.922 42.2884 141.127 42.0396C141.339 41.7908 141.503 41.5237 141.62 41.2384C141.745 40.9457 141.807 40.6676 141.807 40.4042C141.807 40.3384 141.792 40.2396 141.763 40.1079C141.734 39.9762 141.697 39.8371 141.653 39.6908C141.61 39.5445 141.562 39.4237 141.511 39.3286C141.467 39.2262 141.427 39.175 141.39 39.175C141.039 39.175 140.706 39.2481 140.391 39.3945C140.077 39.5335 139.795 39.7237 139.546 39.9652C139.305 40.2067 139.111 40.4811 138.964 40.7884C138.825 41.0957 138.756 41.4176 138.756 41.7542V42.1932C138.814 42.4054 138.913 42.5737 139.052 42.6981C139.191 42.8152 139.374 42.8737 139.601 42.8737ZM147.069 43.9932C146.864 43.9932 146.63 43.975 146.366 43.9384C146.103 43.9091 145.847 43.8506 145.598 43.7628C145.349 43.675 145.141 43.5432 144.973 43.3676C144.812 43.192 144.731 42.9615 144.731 42.6762C144.731 42.4859 144.779 42.3213 144.874 42.1823C144.969 42.0359 145.123 41.9628 145.335 41.9628C145.466 41.9628 145.569 41.9957 145.642 42.0615C145.715 42.1274 145.777 42.2079 145.829 42.303C145.887 42.3981 145.953 42.4969 146.026 42.5993C146.107 42.6945 146.213 42.775 146.345 42.8408C146.484 42.9067 146.67 42.9396 146.904 42.9396C147.073 42.9396 147.256 42.9213 147.453 42.8847C147.658 42.8408 147.834 42.764 147.98 42.6542C148.126 42.5445 148.199 42.3945 148.199 42.2042C148.199 42.0359 148.13 41.9042 147.991 41.8091C147.852 41.7067 147.673 41.6189 147.453 41.5457C147.234 41.4725 147.003 41.3993 146.762 41.3262C146.52 41.2457 146.29 41.1469 146.07 41.0298C145.851 40.9128 145.671 40.7591 145.532 40.5689C145.393 40.3713 145.324 40.1189 145.324 39.8115C145.324 39.5262 145.393 39.2811 145.532 39.0762C145.671 38.8713 145.851 38.703 146.07 38.5713C146.297 38.4323 146.538 38.3335 146.795 38.275C147.058 38.2091 147.31 38.1762 147.552 38.1762C147.691 38.1762 147.852 38.1945 148.035 38.2311C148.218 38.2603 148.397 38.3115 148.573 38.3847C148.748 38.4579 148.895 38.5603 149.012 38.692C149.129 38.8164 149.187 38.9737 149.187 39.164C149.187 39.5006 149.019 39.6689 148.682 39.6689H148.54C148.32 39.5445 148.134 39.4493 147.98 39.3835C147.826 39.3176 147.651 39.2847 147.453 39.2847C147.365 39.2847 147.241 39.2957 147.08 39.3176C146.926 39.3323 146.787 39.3725 146.663 39.4384C146.538 39.5042 146.476 39.6103 146.476 39.7567C146.476 39.8811 146.546 39.9835 146.685 40.064C146.824 40.1445 147.003 40.2213 147.223 40.2945C147.442 40.3676 147.673 40.4481 147.914 40.5359C148.156 40.6237 148.386 40.7371 148.606 40.8762C148.825 41.0079 149.004 41.1762 149.143 41.3811C149.282 41.5859 149.352 41.842 149.352 42.1493C149.352 42.5957 149.238 42.9542 149.012 43.225C148.792 43.4957 148.507 43.6932 148.156 43.8176C147.812 43.9347 147.449 43.9932 147.069 43.9932Z" fill="#FAFAF9"/>
<defs>
<clipPath id="clip0_1_893">
<rect width="31.7796" height="29.5725" fill="white" transform="translate(13.8702 7.31396) rotate(11)"/>
</clipPath>
</defs>
</svg>
