<svg width="150" height="48" viewBox="0 0 150 48" fill="none" xmlns="http://www.w3.org/2000/svg">
<path d="M53.0286 21.4857C53.0286 35.8767 44.658 48 29.2571 48C13.8563 48 0 39.5338 0 25.1429C0 10.7519 7.91343 0.914307 23.3143 0.914307C38.7151 0.914307 53.0286 7.09477 53.0286 21.4857Z" fill="#FAFAF9"/>
<g clip-path="url(#clip0_1_9835)">
<path d="M10.9639 27.3902C10.0915 23.8653 11.0436 20.7136 13.2954 18.0485C14.4862 16.6392 15.2533 15.1153 15.9026 13.4579C16.3578 12.2958 16.8299 11.1381 17.3487 10.0031C18.2414 8.05132 19.5678 7.84705 21.0548 9.43294C23.0394 11.5489 25.0361 13.656 26.9531 15.8322C28.0065 17.0282 29.1417 17.3137 30.6498 16.8432C33.2913 16.0191 35.9568 15.2836 38.3955 13.9229C38.8181 13.6871 39.2916 13.5072 39.7644 13.4018C41.4737 13.0208 42.5743 14.0682 42.2509 15.7757C41.8436 17.9258 41.4569 20.0829 40.9433 22.2085C40.4668 24.1801 40.5396 26.0747 41.1555 28.0012C41.665 29.5957 41.88 31.2383 41.1185 32.8361C40.8788 33.3389 40.736 33.9554 40.0631 34.1149C36.8376 30.6346 32.5572 28.0335 27.4989 30.4976C26.6398 28.6116 24.6502 28.1652 23.0912 29.5087C19.3832 26.8861 15.339 26.1917 10.9639 27.3902ZM19.7993 10.7503C18.897 10.6419 18.4644 11.2996 18.2192 11.9345C17.6306 13.4595 17.1703 15.034 16.668 16.5919C16.3159 17.684 16.8322 17.9346 17.8196 17.8133C19.6252 17.5916 21.4377 17.4903 23.2584 17.6261C23.9474 17.6774 24.298 17.501 23.9265 16.7027C23.1361 15.0038 22.2208 13.3846 21.114 11.8718C20.7625 11.3917 20.2805 11.0775 19.7993 10.7503ZM40.7046 18.1919C41.1028 16.1944 40.5877 15.2929 39.2013 15.7484C36.8977 16.505 34.8423 17.7558 33.0599 19.4208C32.5574 19.89 32.5673 20.2783 33.3124 20.4215C35.0211 20.7501 36.4769 21.6018 37.8208 22.6433C38.5011 23.1704 38.9224 23.1018 39.2234 22.3217C39.7499 20.9571 40.3999 19.6358 40.7046 18.1919Z" fill="#FD634F"/>
<path d="M10.9643 27.3912C15.3392 26.1926 19.3836 26.8871 23.0912 29.5087C22.8163 30.3234 22.9464 31.042 23.7416 31.4606C24.4606 31.8392 24.4283 32.4616 24.0792 32.8906C23.655 33.412 23.372 32.6809 23.0362 32.4986C22.7926 32.3664 22.5599 32.1674 22.3386 32.4234C22.1159 32.6808 22.2229 32.7069 22.3983 32.9148C23.0994 33.7446 25.0577 34.2455 26.0555 33.8291C26.2919 33.7306 26.6632 33.8328 26.6021 33.4812C26.5197 33.0047 26.1709 33.1763 25.8673 33.2193C25.5311 33.267 25.0391 33.6444 24.9689 32.947C24.9168 32.4285 25.182 32.1493 25.7641 32.1429C26.8219 32.131 27.3939 31.5459 27.4991 30.4982C32.5574 28.0342 36.8376 30.6352 40.0633 34.1156C40.062 34.5153 39.8135 34.7644 39.5356 35.0034C37.5082 36.7464 35.298 38.2035 32.5778 38.4591C29.6956 38.73 26.8443 39.3703 23.9294 39.2606C21.6617 39.1752 19.6325 38.4768 18.0583 36.7667C16.2151 34.765 14.3749 32.7591 12.583 30.7121C11.7559 29.7677 11.0966 28.6962 10.9643 27.3912Z" fill="#F4D2A6"/>
<path d="M19.8003 10.7511C20.2812 11.0783 20.7635 11.3925 21.1147 11.8726C22.2215 13.3851 23.1368 15.0046 23.9272 16.7035C24.2987 17.5018 23.9484 17.6786 23.2591 17.6269C21.4385 17.4911 19.6259 17.5924 17.8203 17.814C16.8329 17.9354 16.3163 17.6848 16.6687 16.5927C17.171 15.0348 17.6316 13.4603 18.22 11.9353C18.4654 11.3004 18.898 10.6428 19.8003 10.7511Z" fill="#D74C3A"/>
<path d="M40.7049 18.1934C40.3999 19.6372 39.7502 20.9585 39.2237 22.3232C38.9226 23.1032 38.5014 23.1718 37.8211 22.6448C36.4771 21.6035 35.0214 20.7517 33.3127 20.4229C32.5673 20.2796 32.5577 19.8915 33.0601 19.4222C34.8426 17.7572 36.898 16.5065 39.2015 15.7499C40.588 15.2946 41.1031 16.1958 40.7049 18.1934Z" fill="#D74C3A"/>
<path d="M27.4996 30.4971C27.3947 31.5448 26.8225 32.1299 25.7646 32.1417C25.1825 32.1482 24.9173 32.4274 24.9695 32.9459C25.0394 33.6432 25.8994 33.1566 26.2356 33.1087C26.539 33.0656 26.888 32.8941 26.9705 33.3706C27.0313 33.7222 26.7053 33.7907 26.4691 33.8893C25.4714 34.3057 23.1001 33.776 22.399 32.9462C22.2233 32.7383 21.9973 32.5185 22.22 32.2611C22.4413 32.0053 22.6738 32.204 22.9176 32.3362C23.2537 32.5184 23.6556 33.4106 24.0798 32.8895C24.4288 32.4605 24.4612 31.838 23.7421 31.4594C22.947 31.0406 22.8171 30.3223 23.0917 29.5076C24.651 28.1647 26.6405 28.6111 27.4996 30.4971Z" fill="#1C1917"/>
<path d="M31.8166 26.9146C31.59 27.8243 30.9938 28.2748 30.1366 28.0132C29.2766 27.7506 28.4248 27.2725 28.6414 26.1303C28.8198 25.1882 29.5035 24.7422 30.4169 24.9807C31.3506 25.2246 31.979 25.8299 31.8166 26.9146Z" fill="#1C1917"/>
<path d="M21.6984 25.8582C20.895 25.6222 20.2252 25.1158 20.3797 24.1833C20.5438 23.1922 21.3999 23.056 22.2591 23.1763C23.1607 23.3023 23.6337 23.8306 23.4281 24.7529C23.2361 25.614 22.6564 26.0152 21.6984 25.8582Z" fill="#1C1917"/>
</g>
<path d="M67.5832 32.7134C66.846 32.7134 66.2991 32.4875 65.9424 32.0357C65.5857 31.5838 65.3479 31.0369 65.229 30.3948C65.1338 29.729 65.0863 29.1226 65.0863 28.5756V27.2201C65.0863 25.722 65.1101 24.2119 65.1576 22.6899C65.229 21.168 65.2765 19.5271 65.3003 17.7674C64.7058 17.7912 64.1945 17.8268 63.7665 17.8744C63.3622 17.9219 62.946 17.9457 62.518 17.9457C61.4241 17.9457 60.8771 17.4107 60.8771 16.3405C60.8771 15.9363 60.9485 15.5558 61.0912 15.1991C61.2338 14.8186 61.5311 14.5808 61.9829 14.4857L65.122 13.7723C65.5262 13.6771 65.7878 13.4274 65.9067 13.0232C66.0494 12.5951 66.1207 12.1076 66.1207 11.5607C66.1445 10.9899 66.1802 10.4311 66.2277 9.88414C66.2991 9.33719 66.4774 8.88536 66.7628 8.52865C67.072 8.17195 67.5832 7.99359 68.2967 7.99359C68.796 7.99359 69.1646 8.13628 69.4024 8.42164C69.664 8.68323 69.8424 9.00427 69.9375 9.38475C70.0326 9.76524 70.0802 10.1338 70.0802 10.4905C70.0802 10.5381 70.0683 10.7046 70.0445 10.9899C70.0207 11.2515 69.9851 11.5131 69.9375 11.7747C69.9137 12.0363 69.9018 12.2027 69.9018 12.2741V13.4155H74.2537C74.7768 13.4155 75.1811 13.6652 75.4665 14.1646C75.7518 14.6402 75.8945 15.1277 75.8945 15.6271C75.8945 15.7223 75.8588 15.9006 75.7875 16.1622C75.7162 16.4238 75.5854 16.6735 75.3951 16.9113C75.2049 17.1253 74.9433 17.2323 74.6104 17.2323H70.0445C70.0207 17.2323 69.9732 17.2561 69.9018 17.3037C69.8305 17.3274 69.7473 17.3988 69.6521 17.5177L69.5808 17.6247C69.4619 18.2668 69.3787 18.7899 69.3311 19.1942C69.2835 19.5747 69.2479 19.9314 69.2241 20.2643C69.2241 20.5735 69.2241 20.954 69.2241 21.4058C69.2241 22.7137 69.2479 24.0216 69.2954 25.3296C69.3668 26.6375 69.4024 28.0168 69.4024 29.4674C69.4024 29.943 69.3668 30.4305 69.2954 30.9299C69.2241 31.4293 69.0576 31.8454 68.796 32.1784C68.5345 32.5351 68.1302 32.7134 67.5832 32.7134ZM80.9979 10.0268C80.2845 10.0268 79.6662 9.80091 79.143 9.34908C78.6199 8.89725 78.3583 8.2314 78.3583 7.35152C78.3583 6.47164 78.6674 5.85335 79.2857 5.49664C79.904 5.13994 80.5342 4.96158 81.1763 4.96158C81.9135 4.96158 82.5318 5.1875 83.0311 5.63933C83.5543 6.09116 83.8159 6.7689 83.8159 7.67256C83.8159 8.52866 83.5068 9.13506 82.8885 9.49177C82.2939 9.84847 81.6638 10.0268 80.9979 10.0268ZM79.5711 31.4649C79.1193 31.4649 78.7744 31.2271 78.5366 30.7515C78.2988 30.2759 78.1205 29.8003 78.0016 29.3247V24.7232C78.0016 24.6043 78.0254 24.2951 78.0729 23.7957C78.1443 23.2726 78.2156 22.6662 78.2869 21.9765C78.3821 21.2631 78.4653 20.5854 78.5366 19.9433C78.6318 19.2774 78.7031 18.7543 78.7507 18.3738C78.822 17.8982 78.9052 17.375 79.0004 16.8043C79.1193 16.2335 79.3214 15.7341 79.6068 15.3061C79.8921 14.878 80.2964 14.664 80.8196 14.664C81.3903 14.664 81.7946 14.8067 82.0324 15.0921C82.2939 15.3537 82.4485 15.6866 82.4961 16.0909C82.5436 16.4951 82.5674 16.9113 82.5674 17.3393V18.5878C82.5674 18.6354 82.5555 18.7424 82.5318 18.9088C82.508 19.0515 82.4723 19.218 82.4247 19.4082C82.2583 20.2405 82.1275 20.8588 82.0324 21.2631C81.961 21.6436 81.9016 21.9765 81.854 22.2619C81.8302 22.5235 81.8183 22.8921 81.8183 23.3677C81.8183 23.653 81.8183 24.0098 81.8183 24.4378C81.8421 24.8659 81.854 25.4247 81.854 26.1143C81.854 26.4235 81.8659 26.7326 81.8897 27.0418C81.9135 27.3271 81.9254 27.6363 81.9254 27.9692C81.9254 28.3259 81.8897 28.7064 81.8183 29.1107C81.7232 29.7052 81.5092 30.2521 81.1763 30.7515C80.8433 31.2271 80.3083 31.4649 79.5711 31.4649ZM92.3211 31.4649C90.6089 31.4649 89.1702 31.0488 88.005 30.2165C86.8635 29.3604 85.9955 28.2546 85.401 26.8991C84.8303 25.5198 84.5449 24.0454 84.5449 22.4759C84.5449 20.6924 84.9373 19.0515 85.722 17.5534C86.5306 16.0552 87.6364 14.8543 89.0394 13.9506C90.4662 13.0232 92.0833 12.5594 93.8906 12.5594C94.4376 12.5594 95.044 12.6189 95.7098 12.7378C96.3995 12.8329 97.0653 13.0232 97.7074 13.3085C98.3495 13.5701 98.8726 13.9268 99.2769 14.3787C99.705 14.8305 99.919 15.4131 99.919 16.1265C99.919 16.6497 99.7287 17.054 99.3482 17.3393C98.9678 17.6247 98.504 17.7674 97.9571 17.7674C97.3864 17.7674 96.8751 17.6247 96.4232 17.3393C95.9714 17.0302 95.5196 16.7329 95.0678 16.4476C94.6159 16.1384 94.1047 15.9838 93.5339 15.9838C92.7492 15.9838 92.0357 16.2216 91.3937 16.6973C90.7516 17.1729 90.2046 17.7793 89.7528 18.5165C89.301 19.2537 88.9443 20.0384 88.6827 20.8707C88.4449 21.6793 88.326 22.4402 88.326 23.1537C88.326 24.3665 88.5638 25.3058 89.0394 25.9716C89.5388 26.6137 90.2046 27.0655 91.037 27.3271C91.8931 27.5649 92.8443 27.6838 93.8906 27.6838C94.8656 27.6838 95.7693 27.4936 96.6016 27.1131C97.4577 26.7326 98.3138 26.3402 99.1699 25.936H99.8833C100.953 25.936 101.488 26.471 101.488 27.5412C101.488 28.1832 101.239 28.7302 100.739 29.182C100.264 29.6338 99.6455 30.0143 98.8845 30.3235C98.1236 30.6088 97.315 30.8348 96.4589 31.0012C95.6028 31.1677 94.8062 31.2866 94.069 31.3579C93.3318 31.4293 92.7492 31.4649 92.3211 31.4649ZM112.932 32C111.22 32 109.627 31.6314 108.152 30.8942C106.678 30.157 105.489 29.1107 104.585 27.7552C103.682 26.3997 103.23 24.8183 103.23 23.011C103.23 21.7744 103.48 20.6329 103.979 19.5866C104.502 18.5165 105.156 17.5177 105.941 16.5902C106.749 15.6628 107.558 14.7948 108.367 13.9863C108.795 13.5582 109.306 13.2491 109.9 13.0588C110.495 12.8448 111.101 12.7378 111.72 12.7378C113.265 12.7378 114.752 12.9043 116.178 13.2372C117.605 13.5701 118.877 14.1171 119.995 14.878C121.137 15.6152 122.04 16.6021 122.706 17.8387C123.372 19.0515 123.705 20.5378 123.705 22.2976C123.705 23.7482 123.396 25.068 122.777 26.257C122.159 27.446 121.327 28.4686 120.281 29.3247C119.258 30.1808 118.105 30.8466 116.82 31.3223C115.56 31.7741 114.264 32 112.932 32ZM112.219 28.0405C113.527 28.0405 114.763 27.8146 115.929 27.3628C117.094 26.8872 118.045 26.1857 118.782 25.2582C119.543 24.307 119.924 23.1418 119.924 21.7625C119.924 20.5497 119.567 19.539 118.854 18.7305C118.164 17.9219 117.284 17.3274 116.214 16.9469C115.144 16.5427 114.05 16.3405 112.932 16.3405C112.362 16.3405 111.898 16.4238 111.541 16.5902C111.184 16.7567 110.863 16.9826 110.578 17.268C110.293 17.5534 109.96 17.8863 109.579 18.2668C108.913 18.9564 108.319 19.7174 107.796 20.5497C107.273 21.3582 107.011 22.2857 107.011 23.332C107.011 24.9966 107.51 26.1976 108.509 26.9348C109.508 27.672 110.745 28.0405 112.219 28.0405ZM128.965 32.1784C128.418 32.1784 128.002 32 127.716 31.6433C127.455 31.2628 127.276 30.7991 127.181 30.2521C127.11 29.7052 127.074 29.1463 127.074 28.5756C127.074 28.2902 127.074 28.0168 127.074 27.7552C127.098 27.4698 127.11 27.2082 127.11 26.9704C127.11 26.3997 127.122 25.5198 127.145 24.3308C127.169 23.1418 127.205 21.7863 127.252 20.2643C127.3 18.7186 127.359 17.1134 127.431 15.4488C127.502 13.7841 127.597 12.179 127.716 10.6332C127.859 9.0875 128.013 7.73201 128.18 6.56676C128.346 5.49664 128.644 4.64055 129.072 3.99847C129.523 3.3564 129.975 3.03536 130.427 3.03536C130.831 3.03536 131.176 3.3564 131.462 3.99847C131.747 4.64055 131.854 5.69878 131.783 7.17317C131.331 9.90792 130.998 12.5476 130.784 15.0921C130.57 17.6366 130.463 20.2643 130.463 22.9753C130.463 24.1168 130.522 25.2582 130.641 26.3997C130.76 27.5412 130.82 28.6826 130.82 29.8241C130.82 30.5613 130.665 31.1439 130.356 31.572C130.047 31.9762 129.583 32.1784 128.965 32.1784ZM137.15 10.0268C136.436 10.0268 135.818 9.80091 135.295 9.34908C134.772 8.89725 134.51 8.2314 134.51 7.35152C134.51 6.47164 134.819 5.85335 135.437 5.49664C136.056 5.13994 136.686 4.96158 137.328 4.96158C138.065 4.96158 138.684 5.1875 139.183 5.63933C139.706 6.09116 139.968 6.7689 139.968 7.67256C139.968 8.52866 139.659 9.13506 139.04 9.49177C138.446 9.84847 137.816 10.0268 137.15 10.0268ZM135.723 31.4649C135.271 31.4649 134.926 31.2271 134.688 30.7515C134.451 30.2759 134.272 29.8003 134.153 29.3247V24.7232C134.153 24.6043 134.177 24.2951 134.225 23.7957C134.296 23.2726 134.367 22.6662 134.439 21.9765C134.534 21.2631 134.617 20.5854 134.688 19.9433C134.784 19.2774 134.855 18.7543 134.902 18.3738C134.974 17.8982 135.057 17.375 135.152 16.8043C135.271 16.2335 135.473 15.7341 135.759 15.3061C136.044 14.878 136.448 14.664 136.971 14.664C137.542 14.664 137.946 14.8067 138.184 15.0921C138.446 15.3537 138.6 15.6866 138.648 16.0909C138.695 16.4951 138.719 16.9113 138.719 17.3393V18.5878C138.719 18.6354 138.707 18.7424 138.684 18.9088C138.66 19.0515 138.624 19.218 138.576 19.4082C138.41 20.2405 138.279 20.8588 138.184 21.2631C138.113 21.6436 138.053 21.9765 138.006 22.2619C137.982 22.5235 137.97 22.8921 137.97 23.3677C137.97 23.653 137.97 24.0098 137.97 24.4378C137.994 24.8659 138.006 25.4247 138.006 26.1143C138.006 26.4235 138.018 26.7326 138.041 27.0418C138.065 27.3271 138.077 27.6363 138.077 27.9692C138.077 28.3259 138.041 28.7064 137.97 29.1107C137.875 29.7052 137.661 30.2521 137.328 30.7515C136.995 31.2271 136.46 31.4649 135.723 31.4649Z" fill="#1C1917"/>
<path d="M62.485 43.9379C62.3533 43.9379 62.2545 43.894 62.1887 43.8062C62.1228 43.7184 62.0789 43.6159 62.057 43.4989C62.035 43.3745 62.0131 43.2647 61.9911 43.1696V42.3574C61.9911 41.9476 62.0094 41.5342 62.046 41.1171C62.0826 40.6928 62.1009 40.2793 62.1009 39.8769C62.1009 39.6867 62.0826 39.5037 62.046 39.3281C62.0094 39.1525 61.9911 38.9732 61.9911 38.7903V38.494C62.0496 38.3842 62.1265 38.3037 62.2216 38.2525C62.324 38.2013 62.4301 38.1757 62.5399 38.1757C62.7009 38.1757 62.8216 38.2232 62.9021 38.3184C62.9826 38.4062 63.0375 38.5123 63.0667 38.6367C63.1033 38.7611 63.1362 38.8745 63.1655 38.9769C63.1948 39.072 63.2423 39.1269 63.3082 39.1415C63.5204 39.0025 63.7216 38.8671 63.9118 38.7354C64.1094 38.6037 64.3143 38.4976 64.5265 38.4171C64.746 38.3293 64.9875 38.2854 65.2509 38.2854C65.3826 38.2854 65.5216 38.3147 65.6679 38.3732C65.8216 38.4318 65.9533 38.5159 66.0631 38.6257C66.1728 38.7281 66.2277 38.8562 66.2277 39.0098C66.2277 39.2001 66.1509 39.3391 65.9972 39.4269C65.8509 39.5147 65.7118 39.5586 65.5801 39.5586C65.4923 39.5586 65.4082 39.5403 65.3277 39.5037C65.2472 39.4671 65.1631 39.4489 65.0753 39.4489C64.8192 39.4489 64.5777 39.5147 64.3509 39.6464C64.1314 39.7708 63.9375 39.9208 63.7692 40.0964C63.6009 40.272 63.4655 40.4367 63.3631 40.5903C63.3338 40.6562 63.3118 40.7659 63.2972 40.9196C63.2826 41.0732 63.2716 41.2489 63.2643 41.4464C63.257 41.6367 63.2496 41.8232 63.2423 42.0062C63.2423 42.1891 63.2387 42.3464 63.2314 42.4781C63.224 42.7196 63.1984 42.9537 63.1545 43.1806C63.1179 43.4001 63.0484 43.583 62.946 43.7293C62.8435 43.8684 62.6899 43.9379 62.485 43.9379ZM69.2709 43.9928C68.7441 43.9928 68.2575 43.9123 67.8112 43.7513C67.3722 43.583 67.0173 43.3196 66.7465 42.9611C66.4758 42.5952 66.3405 42.1232 66.3405 41.5452C66.3405 41.1062 66.41 40.6781 66.549 40.2611C66.6953 39.844 66.9039 39.4671 67.1746 39.1306C67.4453 38.7867 67.7709 38.5159 68.1514 38.3184C68.5319 38.1135 68.96 38.0111 69.4356 38.0111C69.7575 38.0111 70.0575 38.0769 70.3356 38.2086C70.6209 38.333 70.8478 38.5196 71.0161 38.7684C71.1917 39.0098 71.2795 39.3062 71.2795 39.6574C71.2795 39.994 71.21 40.3159 71.0709 40.6232C70.9319 40.9306 70.7417 41.205 70.5002 41.4464C70.2587 41.6879 69.9844 41.8781 69.677 42.0171C69.377 42.1489 69.0624 42.2147 68.7331 42.2147C68.6819 42.2147 68.5685 42.2037 68.3929 42.1818C68.2173 42.1525 68.0783 42.1232 67.9758 42.094C67.9026 42.0793 67.8441 42.0501 67.8002 42.0062C67.7856 41.9989 67.76 41.9879 67.7234 41.9732C67.6868 41.9513 67.6612 41.9403 67.6465 41.9403C67.6978 42.1525 67.8039 42.3318 67.9648 42.4781C68.1331 42.6171 68.3234 42.7196 68.5356 42.7854C68.7551 42.8513 68.9636 42.8842 69.1612 42.8842C69.3002 42.8842 69.4392 42.8769 69.5783 42.8623C69.7246 42.8403 69.8783 42.8293 70.0392 42.8293C70.2002 42.8293 70.3392 42.8732 70.4563 42.9611C70.5734 43.0489 70.6319 43.1915 70.6319 43.3891C70.6319 43.5501 70.5807 43.6745 70.4783 43.7623C70.3831 43.8501 70.2587 43.9086 70.1051 43.9379C69.9587 43.9671 69.8087 43.9818 69.6551 43.9818C69.5087 43.9891 69.3807 43.9928 69.2709 43.9928ZM68.7331 40.9415C68.9526 40.9415 69.1685 40.9013 69.3807 40.8208C69.6002 40.733 69.7795 40.605 69.9185 40.4367C70.0648 40.2684 70.138 40.0598 70.138 39.8111C70.138 39.5989 70.0722 39.4306 69.9405 39.3062C69.8161 39.1818 69.6478 39.1196 69.4356 39.1196C69.2453 39.1196 69.0441 39.1708 68.8319 39.2732C68.6197 39.3757 68.4185 39.5074 68.2283 39.6684C68.0453 39.8293 67.8953 40.005 67.7783 40.1952C67.6612 40.3781 67.6026 40.5574 67.6026 40.733V40.7769C67.7929 40.8062 67.9831 40.8428 68.1734 40.8867C68.3636 40.9232 68.5502 40.9415 68.7331 40.9415ZM74.4812 43.9379C74.1446 43.9379 73.83 43.8611 73.5373 43.7074C73.2446 43.5537 72.9995 43.3489 72.8019 43.0928C72.6044 42.8293 72.4763 42.533 72.4178 42.2037V41.644C72.4178 41.2342 72.4909 40.8208 72.6373 40.4037C72.7836 39.9867 72.9922 39.6025 73.2629 39.2513C73.5336 38.8928 73.8556 38.6074 74.2287 38.3952C74.6019 38.1757 75.0117 38.0659 75.458 38.0659C75.6409 38.0659 75.7983 38.0989 75.93 38.1647C76.069 38.2306 76.1934 38.3001 76.3031 38.3732C76.4202 38.4391 76.5336 38.4793 76.6434 38.494C76.7019 38.194 76.7824 37.9964 76.8848 37.9013C76.9873 37.7989 77.1263 37.7476 77.3019 37.7476C77.5141 37.7476 77.6568 37.8171 77.73 37.9562C77.8104 38.0879 77.8507 38.2562 77.8507 38.4611C77.8507 38.8635 77.8397 39.2586 77.8178 39.6464C77.8031 40.0342 77.7958 40.433 77.7958 40.8428C77.7958 41.1647 77.8141 41.4976 77.8507 41.8415C77.8873 42.1854 77.9056 42.5184 77.9056 42.8403V43.0708C77.9056 43.2318 77.8726 43.3818 77.8068 43.5208C77.7483 43.6525 77.6129 43.7184 77.4007 43.7184C77.2031 43.7184 77.0604 43.6598 76.9726 43.5428C76.8922 43.4184 76.8373 43.272 76.808 43.1037C76.7861 42.9281 76.7641 42.7708 76.7422 42.6318L76.6983 42.5879C76.4495 42.8367 76.2263 43.0635 76.0287 43.2684C75.8385 43.4732 75.6263 43.6379 75.3922 43.7623C75.158 43.8793 74.8544 43.9379 74.4812 43.9379ZM74.3714 42.8293C74.6275 42.8293 74.869 42.7525 75.0958 42.5989C75.33 42.4379 75.5385 42.233 75.7214 41.9842C75.9044 41.7281 76.047 41.4611 76.1495 41.183C76.2519 40.905 76.3031 40.6452 76.3031 40.4037C76.3031 40.2208 76.2775 40.0379 76.2263 39.855C76.1751 39.6647 76.0873 39.5037 75.9629 39.372C75.8458 39.2403 75.6775 39.1745 75.458 39.1745C75.2165 39.1745 74.9787 39.2586 74.7446 39.4269C74.5178 39.5952 74.3129 39.8111 74.13 40.0745C73.947 40.3306 73.8007 40.6013 73.6909 40.8867C73.5812 41.1647 73.5263 41.4171 73.5263 41.644C73.5263 41.8269 73.5519 42.0098 73.6031 42.1928C73.6617 42.3757 73.7531 42.5293 73.8775 42.6537C74.0019 42.7708 74.1665 42.8293 74.3714 42.8293ZM80.5329 43.9928C80.167 43.8976 79.8597 43.7367 79.6109 43.5098C79.3694 43.2757 79.1865 43.0013 79.0621 42.6867C78.9451 42.372 78.8865 42.0428 78.8865 41.6989C78.8865 41.2232 78.989 40.7659 79.1938 40.3269C79.3987 39.8806 79.6731 39.4854 80.017 39.1415C80.3682 38.7903 80.7633 38.5123 81.2024 38.3074C81.6487 38.1025 82.1097 38.0001 82.5853 38.0001C82.7536 38.0001 82.9146 38.0257 83.0682 38.0769C83.2292 38.1208 83.3902 38.1464 83.5511 38.1537L83.5951 38.0111C83.6024 37.8793 83.6133 37.7147 83.628 37.5171C83.6426 37.3196 83.6609 37.1147 83.6829 36.9025C83.7121 36.683 83.7414 36.4745 83.7707 36.2769C83.8072 36.0793 83.8475 35.922 83.8914 35.805C83.9499 35.6367 84.0341 35.494 84.1438 35.3769C84.2536 35.2525 84.3999 35.1903 84.5829 35.1903C84.7658 35.1903 84.8829 35.2489 84.9341 35.3659C84.9926 35.483 85.0219 35.6293 85.0219 35.805V36.0793C84.9194 36.9208 84.839 37.7513 84.7804 38.5708C84.7292 39.383 84.7036 40.1952 84.7036 41.0074C84.7036 41.3806 84.7219 41.7464 84.7585 42.105C84.7951 42.4562 84.8133 42.8257 84.8133 43.2135C84.8133 43.3525 84.7914 43.4915 84.7475 43.6306C84.7109 43.7623 84.6011 43.8281 84.4182 43.8281C84.228 43.8281 84.0816 43.7769 83.9792 43.6745C83.8768 43.5647 83.8036 43.4293 83.7597 43.2684C83.7158 43.1074 83.6792 42.9537 83.6499 42.8074C83.6353 42.6976 83.6207 42.6428 83.606 42.6428H83.5621C83.1816 43.0598 82.7902 43.3891 82.3877 43.6306C81.9926 43.872 81.5353 43.9928 81.0158 43.9928H80.5329ZM80.9499 42.8732C81.2353 42.8732 81.5097 42.7964 81.7731 42.6428C82.0365 42.4891 82.2707 42.2879 82.4755 42.0391C82.6877 41.7903 82.8524 41.5232 82.9694 41.2379C83.0938 40.9452 83.156 40.6671 83.156 40.4037C83.156 40.3379 83.1414 40.2391 83.1121 40.1074C83.0829 39.9757 83.0463 39.8367 83.0024 39.6903C82.9585 39.544 82.9109 39.4232 82.8597 39.3281C82.8158 39.2257 82.7755 39.1745 82.739 39.1745C82.3877 39.1745 82.0548 39.2476 81.7402 39.394C81.4255 39.533 81.1438 39.7232 80.8951 39.9647C80.6536 40.2062 80.4597 40.4806 80.3133 40.7879C80.1743 41.0952 80.1048 41.4171 80.1048 41.7537V42.1928C80.1633 42.405 80.2621 42.5732 80.4011 42.6976C80.5402 42.8147 80.7231 42.8732 80.9499 42.8732ZM87.4959 37.0671C87.2764 37.0671 87.0862 36.9976 86.9252 36.8586C86.7642 36.7196 86.6837 36.5147 86.6837 36.244C86.6837 35.9732 86.7789 35.783 86.9691 35.6732C87.1594 35.5635 87.3533 35.5086 87.5508 35.5086C87.7776 35.5086 87.9679 35.5781 88.1215 35.7171C88.2825 35.8562 88.363 36.0647 88.363 36.3428C88.363 36.6062 88.2679 36.7928 88.0776 36.9025C87.8947 37.0123 87.7008 37.0671 87.4959 37.0671ZM87.0569 43.6635C86.9179 43.6635 86.8118 43.5903 86.7386 43.444C86.6655 43.2976 86.6106 43.1513 86.574 43.005V41.5891C86.574 41.5525 86.5813 41.4574 86.5959 41.3037C86.6179 41.1428 86.6398 40.9562 86.6618 40.744C86.6911 40.5245 86.7167 40.3159 86.7386 40.1184C86.7679 39.9135 86.7898 39.7525 86.8045 39.6354C86.8264 39.4891 86.852 39.3281 86.8813 39.1525C86.9179 38.9769 86.9801 38.8232 87.0679 38.6915C87.1557 38.5598 87.2801 38.494 87.4411 38.494C87.6167 38.494 87.7411 38.5379 87.8142 38.6257C87.8947 38.7062 87.9423 38.8086 87.9569 38.933C87.9715 39.0574 87.9789 39.1854 87.9789 39.3171V39.7013C87.9789 39.7159 87.9752 39.7489 87.9679 39.8001C87.9606 39.844 87.9496 39.8952 87.935 39.9537C87.8837 40.2098 87.8435 40.4001 87.8142 40.5245C87.7923 40.6415 87.774 40.744 87.7594 40.8318C87.752 40.9123 87.7484 41.0257 87.7484 41.172C87.7484 41.2598 87.7484 41.3696 87.7484 41.5013C87.7557 41.633 87.7594 41.805 87.7594 42.0171C87.7594 42.1123 87.763 42.2074 87.7703 42.3025C87.7776 42.3903 87.7813 42.4854 87.7813 42.5879C87.7813 42.6976 87.7703 42.8147 87.7484 42.9391C87.7191 43.122 87.6533 43.2903 87.5508 43.444C87.4484 43.5903 87.2837 43.6635 87.0569 43.6635ZM89.9733 43.6086C89.7904 43.6086 89.655 43.5574 89.5672 43.455C89.4794 43.3452 89.4246 43.2135 89.4026 43.0598C89.3807 42.8989 89.3697 42.7452 89.3697 42.5989C89.3697 42.2623 89.377 41.9257 89.3916 41.5891C89.4136 41.2525 89.4246 40.9306 89.4246 40.6232C89.4246 40.294 89.388 39.9793 89.3148 39.6793C89.2416 39.3793 89.205 39.0793 89.205 38.7793V38.3513C89.2709 38.1976 89.3404 38.0952 89.4136 38.044C89.4868 37.9854 89.5855 37.9562 89.7099 37.9562C89.9368 37.9562 90.1014 38.0293 90.2038 38.1757C90.3063 38.3147 90.3721 38.483 90.4014 38.6806C90.438 38.8708 90.4636 39.0464 90.4782 39.2074C90.4855 39.2879 90.5002 39.4452 90.5221 39.6793C90.5514 39.9135 90.5697 40.133 90.577 40.3379H90.6209L90.6648 40.294C90.8038 40.0891 90.9502 39.8696 91.1038 39.6354C91.2575 39.4013 91.4258 39.1818 91.6087 38.9769C91.7989 38.772 92.0075 38.6074 92.2343 38.483C92.4611 38.3513 92.7172 38.2854 93.0026 38.2854C93.3685 38.2854 93.6794 38.3915 93.9355 38.6037C94.1916 38.8086 94.4075 39.0793 94.5831 39.4159C94.7587 39.7452 94.9014 40.1037 95.0111 40.4915C95.1209 40.8793 95.2087 41.2562 95.2746 41.622C95.3404 41.9879 95.3989 42.3025 95.4502 42.5659V42.8403C95.4502 43.0013 95.4063 43.1623 95.3185 43.3232C95.2307 43.4769 95.0916 43.5537 94.9014 43.5537C94.7038 43.5537 94.5575 43.5025 94.4624 43.4001C94.3746 43.2976 94.316 43.1659 94.2868 43.005C94.2721 42.9391 94.2538 42.833 94.2319 42.6867C94.2099 42.533 94.1843 42.3684 94.155 42.1928C94.1258 42.0098 94.1002 41.8415 94.0782 41.6879C94.0563 41.5269 94.038 41.4098 94.0233 41.3367C94.0014 41.1903 93.9502 41.0184 93.8697 40.8208C93.7965 40.6159 93.727 40.4403 93.6611 40.294C93.5953 40.1403 93.5111 39.9793 93.4087 39.8111C93.3063 39.6428 93.1563 39.5586 92.9587 39.5586C92.7831 39.5586 92.6221 39.6208 92.4758 39.7452C92.3368 39.8696 92.2124 40.0159 92.1026 40.1842C92.0002 40.3525 91.9087 40.5025 91.8282 40.6342C91.6453 40.9269 91.4807 41.2196 91.3343 41.5123C91.188 41.805 91.0307 42.1232 90.8624 42.4671C90.7965 42.6062 90.7343 42.7671 90.6758 42.9501C90.6172 43.1257 90.5368 43.2793 90.4343 43.4111C90.3319 43.5428 90.1782 43.6086 89.9733 43.6086ZM98.6751 46.9232C98.4629 46.8501 98.258 46.7513 98.0605 46.6269C97.8702 46.5098 97.7129 46.3708 97.5885 46.2098C97.4715 46.0562 97.4129 45.8879 97.4129 45.705C97.4129 45.5367 97.4715 45.4123 97.5885 45.3318C97.7129 45.2513 97.8446 45.2111 97.9836 45.2111C98.1446 45.2111 98.2763 45.2586 98.3788 45.3537C98.4885 45.4562 98.6019 45.555 98.719 45.6501C98.8434 45.7525 98.9934 45.8037 99.169 45.8037C99.3812 45.8037 99.5678 45.7342 99.7288 45.5952C99.8897 45.4562 100.025 45.2769 100.135 45.0574C100.245 44.8379 100.329 44.6037 100.387 44.355C100.453 44.1062 100.49 43.872 100.497 43.6525C100.504 43.6013 100.515 43.4915 100.53 43.3232C100.545 43.1476 100.559 42.9647 100.574 42.7745C100.596 42.5842 100.607 42.4452 100.607 42.3574V42.2476C100.607 42.1891 100.592 42.1598 100.563 42.1598H100.519C100.3 42.4159 100.073 42.6793 99.8385 42.9501C99.6117 43.2208 99.3556 43.4476 99.0702 43.6306C98.7849 43.8062 98.4556 43.894 98.0824 43.894C97.7971 43.894 97.53 43.8208 97.2812 43.6745C97.0324 43.5281 96.8312 43.3306 96.6775 43.0818C96.5239 42.833 96.4471 42.555 96.4471 42.2476C96.4471 41.7428 96.5458 41.2415 96.7434 40.744C96.941 40.2391 97.2154 39.7818 97.5666 39.372C97.9178 38.9623 98.3239 38.633 98.7849 38.3842C99.2532 38.1354 99.758 38.0111 100.3 38.0111C100.446 38.0111 100.6 38.0367 100.76 38.0879C100.921 38.1391 101.057 38.2232 101.167 38.3403C101.284 38.4501 101.342 38.6001 101.342 38.7903C101.342 38.9586 101.28 39.094 101.156 39.1964C101.039 39.2989 100.896 39.3501 100.728 39.3501C100.61 39.3501 100.493 39.3318 100.376 39.2952C100.267 39.2586 100.153 39.2403 100.036 39.2403H99.8166C99.4141 39.3574 99.0483 39.5659 98.719 39.8659C98.3971 40.1586 98.141 40.5025 97.9507 40.8976C97.7605 41.2854 97.6654 41.6806 97.6654 42.083V42.4562C97.7239 42.6684 97.8446 42.7745 98.0275 42.7745C98.1958 42.7745 98.3641 42.7123 98.5324 42.5879C98.7007 42.4635 98.8654 42.3098 99.0263 42.1269C99.1873 41.9367 99.3373 41.7501 99.4763 41.5671C99.6154 41.3769 99.7434 41.2196 99.8605 41.0952C99.9702 40.905 100.095 40.7257 100.234 40.5574C100.373 40.3818 100.501 40.1989 100.618 40.0086C100.698 39.9062 100.775 39.8367 100.848 39.8001C100.921 39.7635 101.009 39.7452 101.112 39.7452C101.295 39.7452 101.426 39.7964 101.507 39.8989C101.595 39.994 101.657 40.1147 101.693 40.2611C101.73 40.4074 101.756 40.5464 101.77 40.6781V41.5013C101.77 41.8013 101.759 42.1415 101.737 42.522C101.723 42.9025 101.686 43.2976 101.628 43.7074C101.576 44.1098 101.492 44.5013 101.375 44.8818C101.258 45.2623 101.101 45.6062 100.903 45.9135C100.713 46.2208 100.471 46.4659 100.179 46.6489C99.8861 46.8318 99.5312 46.9232 99.1141 46.9232H98.6751ZM108.768 44.2671C108.615 44.2671 108.476 44.1976 108.351 44.0586C108.234 43.9196 108.176 43.7659 108.176 43.5976V42.6757C108.176 42.244 108.183 41.8232 108.198 41.4135C108.22 40.9964 108.231 40.572 108.231 40.1403C108.231 40.1184 108.223 40.0671 108.209 39.9867C108.201 39.9062 108.194 39.8184 108.187 39.7232H108.121C108.048 39.7232 107.967 39.7342 107.879 39.7562C107.799 39.7708 107.718 39.7781 107.638 39.7781C107.455 39.7781 107.309 39.7269 107.199 39.6245C107.089 39.5147 107.034 39.3647 107.034 39.1745C107.034 38.9989 107.074 38.8745 107.155 38.8013C107.243 38.7281 107.349 38.6806 107.473 38.6586C107.605 38.6367 107.737 38.6184 107.868 38.6037C108.007 38.5818 108.124 38.5379 108.22 38.472C108.315 38.4062 108.373 38.2928 108.395 38.1318C108.476 37.7806 108.56 37.4476 108.648 37.133C108.743 36.8184 108.867 36.5403 109.021 36.2989C109.174 36.0574 109.383 35.8671 109.646 35.7281C109.91 35.5891 110.254 35.5196 110.678 35.5196C110.773 35.5196 110.901 35.5342 111.062 35.5635C111.231 35.5854 111.399 35.6257 111.567 35.6842C111.743 35.7428 111.889 35.8232 112.006 35.9257C112.131 36.0208 112.193 36.1452 112.193 36.2989C112.193 36.4671 112.134 36.6135 112.017 36.7379C111.907 36.855 111.783 36.9135 111.644 36.9135C111.461 36.9135 111.289 36.8769 111.128 36.8037C110.967 36.7306 110.795 36.694 110.612 36.694C110.356 36.694 110.159 36.7818 110.02 36.9574C109.888 37.1257 109.796 37.3415 109.745 37.605C109.694 37.8611 109.665 38.1208 109.657 38.3842H110.733C110.857 38.3842 110.967 38.4501 111.062 38.5818C111.165 38.7062 111.216 38.8306 111.216 38.955C111.216 39.1013 111.176 39.2111 111.095 39.2842C111.015 39.3574 110.916 39.4086 110.799 39.4379C110.682 39.4598 110.568 39.4818 110.459 39.5037C110.393 39.5037 110.294 39.5147 110.162 39.5367C110.031 39.5513 109.895 39.5659 109.756 39.5806C109.624 39.5952 109.518 39.6062 109.438 39.6135C109.394 39.6428 109.357 39.7452 109.328 39.9208C109.306 40.0891 109.288 40.2903 109.273 40.5245C109.266 40.7586 109.262 40.9928 109.262 41.2269C109.262 41.4171 109.262 41.5928 109.262 41.7537C109.27 41.9147 109.273 42.0245 109.273 42.083C109.273 42.3025 109.281 42.5184 109.295 42.7306C109.317 42.9428 109.328 43.144 109.328 43.3342C109.328 43.4659 109.317 43.605 109.295 43.7513C109.281 43.8903 109.233 44.0111 109.153 44.1135C109.079 44.2159 108.951 44.2671 108.768 44.2671ZM115.072 43.8281C114.545 43.8281 114.055 43.7147 113.601 43.4879C113.147 43.2611 112.782 42.9391 112.504 42.522C112.225 42.105 112.086 41.6184 112.086 41.0623C112.086 40.6818 112.163 40.3306 112.317 40.0086C112.478 39.6793 112.679 39.372 112.921 39.0867C113.169 38.8013 113.418 38.5342 113.667 38.2854C113.799 38.1537 113.956 38.0586 114.139 38.0001C114.322 37.9342 114.508 37.9013 114.699 37.9013C115.174 37.9013 115.632 37.9525 116.071 38.055C116.51 38.1574 116.901 38.3257 117.245 38.5598C117.596 38.7867 117.874 39.0903 118.079 39.4708C118.284 39.844 118.386 40.3013 118.386 40.8428C118.386 41.2891 118.291 41.6952 118.101 42.0611C117.911 42.4269 117.655 42.7415 117.333 43.005C117.018 43.2684 116.663 43.4732 116.268 43.6196C115.88 43.7586 115.482 43.8281 115.072 43.8281ZM114.852 42.6098C115.255 42.6098 115.635 42.5403 115.994 42.4013C116.352 42.255 116.645 42.0391 116.872 41.7537C117.106 41.4611 117.223 41.1025 117.223 40.6781C117.223 40.305 117.113 39.994 116.894 39.7452C116.682 39.4964 116.411 39.3135 116.082 39.1964C115.752 39.072 115.416 39.0098 115.072 39.0098C114.896 39.0098 114.754 39.0354 114.644 39.0867C114.534 39.1379 114.435 39.2074 114.347 39.2952C114.26 39.383 114.157 39.4854 114.04 39.6025C113.835 39.8147 113.652 40.0489 113.491 40.305C113.33 40.5537 113.25 40.8391 113.25 41.1611C113.25 41.6732 113.404 42.0428 113.711 42.2696C114.018 42.4964 114.399 42.6098 114.852 42.6098ZM120.118 43.9379C119.986 43.9379 119.887 43.894 119.821 43.8062C119.755 43.7184 119.712 43.6159 119.69 43.4989C119.668 43.3745 119.646 43.2647 119.624 43.1696V42.3574C119.624 41.9476 119.642 41.5342 119.679 41.1171C119.715 40.6928 119.734 40.2793 119.734 39.8769C119.734 39.6867 119.715 39.5037 119.679 39.3281C119.642 39.1525 119.624 38.9732 119.624 38.7903V38.494C119.682 38.3842 119.759 38.3037 119.854 38.2525C119.957 38.2013 120.063 38.1757 120.173 38.1757C120.334 38.1757 120.454 38.2232 120.535 38.3184C120.615 38.4062 120.67 38.5123 120.699 38.6367C120.736 38.7611 120.769 38.8745 120.798 38.9769C120.827 39.072 120.875 39.1269 120.941 39.1415C121.153 39.0025 121.354 38.8671 121.545 38.7354C121.742 38.6037 121.947 38.4976 122.159 38.4171C122.379 38.3293 122.62 38.2854 122.884 38.2854C123.015 38.2854 123.154 38.3147 123.301 38.3732C123.454 38.4318 123.586 38.5159 123.696 38.6257C123.805 38.7281 123.86 38.8562 123.86 39.0098C123.86 39.2001 123.784 39.3391 123.63 39.4269C123.484 39.5147 123.345 39.5586 123.213 39.5586C123.125 39.5586 123.041 39.5403 122.96 39.5037C122.88 39.4671 122.796 39.4489 122.708 39.4489C122.452 39.4489 122.21 39.5147 121.984 39.6464C121.764 39.7708 121.57 39.9208 121.402 40.0964C121.234 40.272 121.098 40.4367 120.996 40.5903C120.966 40.6562 120.945 40.7659 120.93 40.9196C120.915 41.0732 120.904 41.2489 120.897 41.4464C120.89 41.6367 120.882 41.8232 120.875 42.0062C120.875 42.1891 120.871 42.3464 120.864 42.4781C120.857 42.7196 120.831 42.9537 120.787 43.1806C120.751 43.4001 120.681 43.583 120.579 43.7293C120.476 43.8684 120.323 43.9379 120.118 43.9379ZM128.919 43.9379C128.758 43.9379 128.623 43.8793 128.513 43.7623C128.41 43.6452 128.359 43.5135 128.359 43.3671V43.1586L128.743 39.1525V36.672C128.743 36.5184 128.751 36.3428 128.765 36.1452C128.78 35.9476 128.831 35.7757 128.919 35.6293C129.014 35.483 129.175 35.4098 129.402 35.4098C129.607 35.4098 129.749 35.4793 129.83 35.6184C129.918 35.7574 129.969 35.922 129.984 36.1123C130.006 36.3025 130.017 36.4708 130.017 36.6171C130.017 37.0415 129.998 37.4769 129.962 37.9232C129.932 38.3623 129.914 38.8415 129.907 39.3611H130.039C130.053 39.3611 130.119 39.3428 130.236 39.3062C130.353 39.2623 130.492 39.2147 130.653 39.1635C130.814 39.105 130.971 39.0464 131.125 38.9879C131.286 38.922 131.414 38.8671 131.509 38.8232C131.641 38.7574 131.787 38.6842 131.948 38.6037C132.109 38.5159 132.274 38.4391 132.442 38.3732C132.61 38.3074 132.768 38.2745 132.914 38.2745C133.082 38.2745 133.214 38.3367 133.309 38.4611C133.412 38.5781 133.463 38.7208 133.463 38.8891C133.463 39.0867 133.39 39.2257 133.243 39.3062C133.097 39.3793 132.951 39.4452 132.804 39.5037C132.731 39.5403 132.599 39.5989 132.409 39.6793C132.226 39.7598 132.018 39.8476 131.784 39.9428C131.549 40.0306 131.323 40.1184 131.103 40.2062C130.884 40.2867 130.697 40.3562 130.543 40.4147V40.4476L130.598 40.5025C130.649 40.5537 130.701 40.5976 130.752 40.6342C130.81 40.6708 130.865 40.7147 130.917 40.7659C131.026 40.8318 131.191 40.9379 131.41 41.0842C131.63 41.2306 131.864 41.3879 132.113 41.5562C132.369 41.7245 132.603 41.8818 132.815 42.0281C133.035 42.1671 133.192 42.2659 133.287 42.3245C133.382 42.3976 133.485 42.4745 133.595 42.555C133.704 42.6281 133.799 42.7159 133.88 42.8184C133.968 42.9135 134.012 43.0269 134.012 43.1586C134.012 43.3342 133.96 43.4806 133.858 43.5976C133.763 43.7147 133.646 43.7732 133.507 43.7732C133.331 43.7732 133.156 43.722 132.98 43.6196C132.812 43.5171 132.647 43.3964 132.486 43.2574C132.332 43.1184 132.186 43.0013 132.047 42.9062C131.974 42.855 131.835 42.7635 131.63 42.6318C131.432 42.5001 131.209 42.3537 130.96 42.1928C130.719 42.0318 130.489 41.8781 130.269 41.7318C130.057 41.5854 129.892 41.472 129.775 41.3915H129.731L129.687 41.4903L129.468 43.433C129.439 43.5793 129.369 43.7001 129.259 43.7952C129.157 43.8903 129.043 43.9379 128.919 43.9379ZM136.147 37.0671C135.927 37.0671 135.737 36.9976 135.576 36.8586C135.415 36.7196 135.334 36.5147 135.334 36.244C135.334 35.9732 135.43 35.783 135.62 35.6732C135.81 35.5635 136.004 35.5086 136.202 35.5086C136.428 35.5086 136.619 35.5781 136.772 35.7171C136.933 35.8562 137.014 36.0647 137.014 36.3428C137.014 36.6062 136.919 36.7928 136.728 36.9025C136.545 37.0123 136.352 37.0671 136.147 37.0671ZM135.708 43.6635C135.569 43.6635 135.462 43.5903 135.389 43.444C135.316 43.2976 135.261 43.1513 135.225 43.005V41.5891C135.225 41.5525 135.232 41.4574 135.247 41.3037C135.269 41.1428 135.291 40.9562 135.312 40.744C135.342 40.5245 135.367 40.3159 135.389 40.1184C135.419 39.9135 135.441 39.7525 135.455 39.6354C135.477 39.4891 135.503 39.3281 135.532 39.1525C135.569 38.9769 135.631 38.8232 135.719 38.6915C135.806 38.5598 135.931 38.494 136.092 38.494C136.267 38.494 136.392 38.5379 136.465 38.6257C136.545 38.7062 136.593 38.8086 136.608 38.933C136.622 39.0574 136.63 39.1854 136.63 39.3171V39.7013C136.63 39.7159 136.626 39.7489 136.619 39.8001C136.611 39.844 136.6 39.8952 136.586 39.9537C136.534 40.2098 136.494 40.4001 136.465 40.5245C136.443 40.6415 136.425 40.744 136.41 40.8318C136.403 40.9123 136.399 41.0257 136.399 41.172C136.399 41.2598 136.399 41.3696 136.399 41.5013C136.406 41.633 136.41 41.805 136.41 42.0171C136.41 42.1123 136.414 42.2074 136.421 42.3025C136.428 42.3903 136.432 42.4854 136.432 42.5879C136.432 42.6976 136.421 42.8147 136.399 42.9391C136.37 43.122 136.304 43.2903 136.202 43.444C136.099 43.5903 135.934 43.6635 135.708 43.6635ZM139.184 43.9928C138.818 43.8976 138.511 43.7367 138.262 43.5098C138.02 43.2757 137.837 43.0013 137.713 42.6867C137.596 42.372 137.537 42.0428 137.537 41.6989C137.537 41.2232 137.64 40.7659 137.845 40.3269C138.05 39.8806 138.324 39.4854 138.668 39.1415C139.019 38.7903 139.414 38.5123 139.853 38.3074C140.3 38.1025 140.761 38.0001 141.236 38.0001C141.405 38.0001 141.565 38.0257 141.719 38.0769C141.88 38.1208 142.041 38.1464 142.202 38.1537L142.246 38.0111C142.253 37.8793 142.264 37.7147 142.279 37.5171C142.294 37.3196 142.312 37.1147 142.334 36.9025C142.363 36.683 142.392 36.4745 142.422 36.2769C142.458 36.0793 142.498 35.922 142.542 35.805C142.601 35.6367 142.685 35.494 142.795 35.3769C142.905 35.2525 143.051 35.1903 143.234 35.1903C143.417 35.1903 143.534 35.2489 143.585 35.3659C143.644 35.483 143.673 35.6293 143.673 35.805V36.0793C143.57 36.9208 143.49 37.7513 143.431 38.5708C143.38 39.383 143.355 40.1952 143.355 41.0074C143.355 41.3806 143.373 41.7464 143.409 42.105C143.446 42.4562 143.464 42.8257 143.464 43.2135C143.464 43.3525 143.442 43.4915 143.398 43.6306C143.362 43.7623 143.252 43.8281 143.069 43.8281C142.879 43.8281 142.733 43.7769 142.63 43.6745C142.528 43.5647 142.455 43.4293 142.411 43.2684C142.367 43.1074 142.33 42.9537 142.301 42.8074C142.286 42.6976 142.272 42.6428 142.257 42.6428H142.213C141.833 43.0598 141.441 43.3891 141.039 43.6306C140.644 43.872 140.186 43.9928 139.667 43.9928H139.184ZM139.601 42.8732C139.886 42.8732 140.161 42.7964 140.424 42.6428C140.687 42.4891 140.922 42.2879 141.126 42.0391C141.339 41.7903 141.503 41.5232 141.62 41.2379C141.745 40.9452 141.807 40.6671 141.807 40.4037C141.807 40.3379 141.792 40.2391 141.763 40.1074C141.734 39.9757 141.697 39.8367 141.653 39.6903C141.609 39.544 141.562 39.4232 141.511 39.3281C141.467 39.2257 141.426 39.1745 141.39 39.1745C141.039 39.1745 140.706 39.2476 140.391 39.394C140.076 39.533 139.795 39.7232 139.546 39.9647C139.305 40.2062 139.111 40.4806 138.964 40.7879C138.825 41.0952 138.756 41.4171 138.756 41.7537V42.1928C138.814 42.405 138.913 42.5732 139.052 42.6976C139.191 42.8147 139.374 42.8732 139.601 42.8732ZM147.069 43.9928C146.864 43.9928 146.63 43.9745 146.366 43.9379C146.103 43.9086 145.847 43.8501 145.598 43.7623C145.349 43.6745 145.141 43.5428 144.972 43.3671C144.811 43.1915 144.731 42.9611 144.731 42.6757C144.731 42.4854 144.779 42.3208 144.874 42.1818C144.969 42.0354 145.122 41.9623 145.335 41.9623C145.466 41.9623 145.569 41.9952 145.642 42.0611C145.715 42.1269 145.777 42.2074 145.829 42.3025C145.887 42.3976 145.953 42.4964 146.026 42.5989C146.107 42.694 146.213 42.7745 146.344 42.8403C146.483 42.9062 146.67 42.9391 146.904 42.9391C147.072 42.9391 147.255 42.9208 147.453 42.8842C147.658 42.8403 147.833 42.7635 147.98 42.6537C148.126 42.544 148.199 42.394 148.199 42.2037C148.199 42.0354 148.13 41.9037 147.991 41.8086C147.852 41.7062 147.672 41.6184 147.453 41.5452C147.233 41.472 147.003 41.3989 146.761 41.3257C146.52 41.2452 146.29 41.1464 146.07 41.0293C145.851 40.9123 145.671 40.7586 145.532 40.5684C145.393 40.3708 145.324 40.1184 145.324 39.8111C145.324 39.5257 145.393 39.2806 145.532 39.0757C145.671 38.8708 145.851 38.7025 146.07 38.5708C146.297 38.4318 146.538 38.333 146.794 38.2745C147.058 38.2086 147.31 38.1757 147.552 38.1757C147.691 38.1757 147.852 38.194 148.035 38.2306C148.218 38.2598 148.397 38.3111 148.572 38.3842C148.748 38.4574 148.894 38.5598 149.011 38.6915C149.129 38.8159 149.187 38.9732 149.187 39.1635C149.187 39.5001 149.019 39.6684 148.682 39.6684H148.54C148.32 39.544 148.133 39.4489 147.98 39.383C147.826 39.3171 147.651 39.2842 147.453 39.2842C147.365 39.2842 147.241 39.2952 147.08 39.3171C146.926 39.3318 146.787 39.372 146.663 39.4379C146.538 39.5037 146.476 39.6098 146.476 39.7562C146.476 39.8806 146.546 39.983 146.685 40.0635C146.824 40.144 147.003 40.2208 147.222 40.294C147.442 40.3671 147.672 40.4476 147.914 40.5354C148.155 40.6232 148.386 40.7367 148.605 40.8757C148.825 41.0074 149.004 41.1757 149.143 41.3806C149.282 41.5854 149.352 41.8415 149.352 42.1489C149.352 42.5952 149.238 42.9537 149.011 43.2245C148.792 43.4952 148.507 43.6928 148.155 43.8171C147.811 43.9342 147.449 43.9928 147.069 43.9928Z" fill="#1C1917"/>
<defs>
<clipPath id="clip0_1_9835">
<rect width="31.7796" height="29.5725" fill="white" transform="translate(13.8701 7.31445) rotate(11)"/>
</clipPath>
</defs>
</svg>
