<svg width="183" height="59" viewBox="0 0 183 59" fill="none" xmlns="http://www.w3.org/2000/svg">
<path d="M64.7195 26.2227C64.7195 43.7863 54.5035 58.5824 35.7073 58.5824C16.9111 58.5824 0 48.2497 0 30.6861C0 13.1224 9.65807 1.11597 28.4543 1.11597C47.2505 1.11597 64.7195 8.65901 64.7195 26.2227Z" fill="#B5ECDE"/>
<g clip-path="url(#clip0_1_11373)">
<path d="M13.3812 33.4283C12.3165 29.1262 13.4785 25.2797 16.2268 22.027C17.6801 20.3071 18.6163 18.4472 19.4088 16.4245C19.9643 15.0061 20.5405 13.5931 21.1737 12.208C22.2632 9.82589 23.882 9.57658 25.6969 11.5121C28.119 14.0946 30.5559 16.6662 32.8956 19.3222C34.1812 20.7818 35.5667 21.1303 37.4073 20.5561C40.631 19.5502 43.8842 18.6526 46.8606 16.9919C47.3763 16.7042 47.9543 16.4846 48.5312 16.356C50.6174 15.891 51.9607 17.1692 51.5659 19.2532C51.0689 21.8773 50.5969 24.51 49.9701 27.1042C49.3885 29.5105 49.4773 31.8227 50.229 34.174C50.8508 36.12 51.1133 38.1248 50.1839 40.0748C49.8914 40.6884 49.717 41.4409 48.8958 41.6356C44.9592 37.388 39.7352 34.2135 33.5616 37.2207C32.5131 34.919 30.0849 34.3742 28.1821 36.0138C23.6567 32.8131 18.721 31.9656 13.3812 33.4283ZM24.1646 13.1199C23.0634 12.9876 22.5354 13.7902 22.2361 14.5652C21.5177 16.4264 20.9559 18.348 20.3429 20.2493C19.9132 21.5823 20.5433 21.8881 21.7484 21.74C23.9521 21.4695 26.1642 21.3458 28.3862 21.5116C29.2272 21.5742 29.6551 21.3589 29.2017 20.3846C28.237 18.3111 27.1199 16.3349 25.7691 14.4886C25.3401 13.9027 24.7518 13.5192 24.1646 13.1199ZM49.6788 22.2022C50.1647 19.7642 49.5361 18.664 47.844 19.22C45.0326 20.1434 42.524 21.6699 40.3486 23.702C39.7354 24.2746 39.7475 24.7485 40.6568 24.9232C42.7423 25.3243 44.519 26.3638 46.1592 27.6349C46.9895 28.2782 47.5036 28.1945 47.871 27.2424C48.5136 25.5769 49.3069 23.9644 49.6788 22.2022Z" fill="#FD634F"/>
<path d="M13.3817 33.427C18.7211 31.9642 23.6572 32.8119 28.1822 36.0114C27.8467 37.0057 28.0054 37.8827 28.976 38.3936C29.8535 38.8557 29.814 39.6153 29.388 40.1389C28.8703 40.7752 28.5249 39.883 28.115 39.6604C27.8178 39.4991 27.5338 39.2562 27.2637 39.5687C26.9919 39.8829 27.1224 39.9147 27.3366 40.1684C28.1922 41.1812 30.5823 41.7925 31.8 41.2842C32.0885 41.164 32.5417 41.2889 32.4672 40.8597C32.3665 40.2781 31.9408 40.4875 31.5703 40.5401C31.16 40.5982 30.5596 41.0588 30.4739 40.2077C30.4102 39.575 30.7339 39.2342 31.4443 39.2263C32.7354 39.2118 33.4335 38.4977 33.5618 37.2191C39.7354 34.2118 44.9592 37.3863 48.8961 41.6339C48.8944 42.1218 48.5912 42.4258 48.252 42.7175C45.7776 44.8447 43.0802 46.623 39.7603 46.935C36.2427 47.2657 32.7627 48.0471 29.2052 47.9132C26.4376 47.809 23.961 46.9567 22.0397 44.8695C19.7902 42.4265 17.5443 39.9784 15.3573 37.4801C14.3479 36.3275 13.5433 35.0198 13.3817 33.427Z" fill="#F4D2A6"/>
<path d="M24.1659 13.1208C24.7528 13.5201 25.3414 13.9036 25.7701 14.4895C27.1209 16.3355 28.238 18.312 29.2026 20.3854C29.656 21.3598 29.2284 21.5755 28.3872 21.5125C26.1652 21.3467 23.953 21.4703 21.7494 21.7408C20.5442 21.8889 19.9138 21.5831 20.3439 20.2502C20.9569 18.3489 21.519 16.4273 22.2371 14.5661C22.5366 13.7912 23.0646 12.9886 24.1659 13.1208Z" fill="#D74C3A"/>
<path d="M49.6792 22.204C49.307 23.9661 48.514 25.5787 47.8714 27.2442C47.504 28.1963 46.9899 28.28 46.1596 27.6367C44.5194 26.3659 42.7427 25.3264 40.6573 24.925C39.7476 24.7502 39.7359 24.2764 40.349 23.7038C42.5245 21.6717 45.033 20.1451 47.8444 19.2217C49.5365 18.6661 50.1652 19.766 49.6792 22.204Z" fill="#D74C3A"/>
<path d="M33.5626 37.2202C33.4345 38.4989 32.7361 39.213 31.4451 39.2275C30.7346 39.2353 30.411 39.5761 30.4746 40.2089C30.5599 41.0599 31.6095 40.4661 32.0199 40.4076C32.3901 40.355 32.8161 40.1457 32.9168 40.7272C32.991 41.1564 32.5931 41.24 32.3049 41.3603C31.0872 41.8685 28.1931 41.2221 27.3374 40.2093C27.123 39.9556 26.8472 39.6873 27.119 39.3731C27.389 39.061 27.6728 39.3035 27.9703 39.4648C28.3806 39.6871 28.8711 40.776 29.3887 40.14C29.8147 39.6164 29.8542 38.8568 28.9767 38.3947C28.0062 37.8835 27.8477 37.0069 28.1829 36.0126C30.0859 34.3736 32.514 34.9184 33.5626 37.2202Z" fill="#1C1917"/>
<path d="M38.8312 32.8479C38.5546 33.9582 37.827 34.5079 36.7808 34.1887C35.7312 33.8681 34.6916 33.2847 34.9559 31.8906C35.1737 30.7409 36.0082 30.1965 37.1229 30.4877C38.2625 30.7853 39.0295 31.5241 38.8312 32.8479Z" fill="#1C1917"/>
<path d="M26.4825 31.5587C25.502 31.2706 24.6845 30.6525 24.873 29.5145C25.0734 28.3049 26.1182 28.1387 27.1668 28.2854C28.2672 28.4392 28.8444 29.084 28.5936 30.2096C28.3592 31.2606 27.6517 31.7502 26.4825 31.5587Z" fill="#1C1917"/>
</g>
<path d="M82.4829 39.8707C81.5832 39.8707 80.9156 39.595 80.4803 39.0435C80.0449 38.4921 79.7547 37.8246 79.6096 37.0409C79.4935 36.2283 79.4354 35.4882 79.4354 34.8207V33.1663C79.4354 31.3379 79.4645 29.4949 79.5225 27.6374C79.6096 25.7799 79.6676 23.7773 79.6966 21.6296C78.9711 21.6586 78.3471 21.7021 77.8246 21.7602C77.3313 21.8182 76.8233 21.8473 76.3009 21.8473C74.9659 21.8473 74.2983 21.1942 74.2983 19.8882C74.2983 19.3948 74.3854 18.9304 74.5595 18.4951C74.7337 18.0307 75.0965 17.7405 75.6479 17.6244L79.479 16.7537C79.9724 16.6376 80.2916 16.3328 80.4367 15.8394C80.6109 15.317 80.6979 14.722 80.6979 14.0545C80.727 13.358 80.7705 12.6759 80.8286 12.0084C80.9156 11.3408 81.1333 10.7894 81.4816 10.354C81.8589 9.9187 82.4829 9.70102 83.3536 9.70102C83.9631 9.70102 84.4129 9.87516 84.7032 10.2234C85.0224 10.5427 85.2401 10.9345 85.3562 11.3989C85.4723 11.8633 85.5303 12.3131 85.5303 12.7485C85.5303 12.8065 85.5158 13.0097 85.4868 13.358C85.4578 13.6772 85.4142 13.9965 85.3562 14.3157C85.3272 14.635 85.3126 14.8381 85.3126 14.9252V16.3183H90.6239C91.2624 16.3183 91.7558 16.6231 92.1041 17.2326C92.4524 17.813 92.6265 18.408 92.6265 19.0175C92.6265 19.1336 92.583 19.3513 92.4959 19.6705C92.4088 19.9898 92.2492 20.2945 92.017 20.5847C91.7848 20.846 91.4656 20.9766 91.0593 20.9766H85.4868C85.4578 20.9766 85.3997 21.0056 85.3126 21.0636C85.2256 21.0927 85.124 21.1797 85.0079 21.3248L84.9208 21.4554C84.7757 22.2391 84.6741 22.8776 84.6161 23.371C84.558 23.8353 84.5145 24.2707 84.4855 24.677C84.4855 25.0543 84.4855 25.5187 84.4855 26.0701C84.4855 27.6664 84.5145 29.2627 84.5726 30.859C84.6596 32.4553 84.7032 34.1386 84.7032 35.909C84.7032 36.4895 84.6596 37.0845 84.5726 37.694C84.4855 38.3034 84.2823 38.8113 83.9631 39.2177C83.6438 39.653 83.1504 39.8707 82.4829 39.8707ZM98.855 12.1825C97.9843 12.1825 97.2297 11.9068 96.5912 11.3553C95.9527 10.8039 95.6334 9.99126 95.6334 8.91739C95.6334 7.84353 96.0107 7.08893 96.7653 6.65358C97.52 6.21823 98.2891 6.00056 99.0727 6.00056C99.9724 6.00056 100.727 6.27628 101.337 6.82772C101.975 7.37916 102.294 8.20633 102.294 9.30921C102.294 10.354 101.917 11.0941 101.162 11.5295C100.437 11.9648 99.6677 12.1825 98.855 12.1825ZM97.1136 38.347C96.5622 38.347 96.1413 38.0567 95.8511 37.4763C95.5609 36.8958 95.3432 36.3153 95.1981 35.7349V30.1189C95.1981 29.9738 95.2271 29.5965 95.2852 28.987C95.3722 28.3485 95.4593 27.6084 95.5464 26.7667C95.6625 25.896 95.764 25.0688 95.8511 24.2852C95.9672 23.4726 96.0543 22.834 96.1123 22.3697C96.1994 21.7892 96.301 21.1507 96.4171 20.4541C96.5622 19.7576 96.8089 19.1481 97.1572 18.6257C97.5054 18.1033 97.9988 17.842 98.6373 17.842C99.3339 17.842 99.8273 18.0162 100.118 18.3645C100.437 18.6837 100.625 19.09 100.683 19.5834C100.742 20.0768 100.771 20.5847 100.771 21.1072V22.6309C100.771 22.6889 100.756 22.8195 100.727 23.0227C100.698 23.1968 100.654 23.4 100.596 23.6322C100.393 24.648 100.234 25.4026 100.118 25.896C100.03 26.3604 99.9579 26.7667 99.8999 27.115C99.8708 27.4342 99.8563 27.8841 99.8563 28.4646C99.8563 28.8128 99.8563 29.2482 99.8563 29.7706C99.8853 30.293 99.8999 30.9751 99.8999 31.8167C99.8999 32.194 99.9144 32.5713 99.9434 32.9487C99.9724 33.2969 99.9869 33.6742 99.9869 34.0806C99.9869 34.5159 99.9434 34.9803 99.8563 35.4737C99.7402 36.1993 99.479 36.8668 99.0727 37.4763C98.6664 38.0567 98.0133 38.347 97.1136 38.347ZM112.675 38.347C110.585 38.347 108.829 37.8391 107.407 36.8233C106.014 35.7784 104.954 34.4288 104.229 32.7745C103.532 31.0912 103.184 29.2917 103.184 27.3762C103.184 25.1994 103.663 23.1968 104.621 21.3684C105.607 19.5399 106.957 18.0742 108.669 16.9713C110.411 15.8394 112.384 15.2735 114.59 15.2735C115.258 15.2735 115.998 15.346 116.81 15.4912C117.652 15.6073 118.465 15.8394 119.248 16.1877C120.032 16.507 120.67 16.9423 121.164 17.4938C121.686 18.0452 121.948 18.7563 121.948 19.627C121.948 20.2655 121.715 20.7589 121.251 21.1072C120.787 21.4554 120.221 21.6296 119.553 21.6296C118.857 21.6296 118.233 21.4554 117.681 21.1072C117.13 20.7299 116.578 20.3671 116.027 20.0188C115.475 19.6415 114.851 19.4528 114.155 19.4528C113.197 19.4528 112.326 19.7431 111.543 20.3235C110.759 20.904 110.092 21.6441 109.54 22.5438C108.989 23.4435 108.553 24.4013 108.234 25.4171C107.944 26.4039 107.799 27.3327 107.799 28.2033C107.799 29.6835 108.089 30.83 108.669 31.6426C109.279 32.4262 110.092 32.9777 111.107 33.2969C112.152 33.5872 113.313 33.7323 114.59 33.7323C115.78 33.7323 116.883 33.5001 117.899 33.0357C118.944 32.5713 119.988 32.0925 121.033 31.5991H121.904C123.21 31.5991 123.863 32.2521 123.863 33.5581C123.863 34.3418 123.558 35.0093 122.949 35.5607C122.368 36.1122 121.614 36.5766 120.685 36.9539C119.756 37.3021 118.769 37.5779 117.725 37.781C116.68 37.9842 115.708 38.1293 114.808 38.2164C113.908 38.3034 113.197 38.347 112.675 38.347ZM137.83 39C135.74 39 133.796 38.5501 131.996 37.6504C130.197 36.7507 128.746 35.4737 127.643 33.8193C126.54 32.165 125.988 30.235 125.988 28.0292C125.988 26.52 126.293 25.1269 126.903 23.8499C127.541 22.5438 128.339 21.3248 129.297 20.1929C130.284 19.061 131.271 18.0017 132.257 17.0149C132.78 16.4925 133.404 16.1152 134.129 15.883C134.855 15.6218 135.595 15.4912 136.35 15.4912C138.236 15.4912 140.05 15.6943 141.792 16.1007C143.533 16.507 145.086 17.1745 146.45 18.1033C147.843 19.003 148.946 20.2074 149.758 21.7167C150.571 23.1968 150.977 25.0108 150.977 27.1585C150.977 28.9289 150.6 30.5397 149.846 31.9909C149.091 33.442 148.075 34.69 146.798 35.7349C145.55 36.7797 144.142 37.5924 142.575 38.1728C141.037 38.7243 139.455 39 137.83 39ZM136.959 34.1676C138.555 34.1676 140.065 33.8919 141.487 33.3405C142.909 32.76 144.07 31.9038 144.97 30.7719C145.898 29.611 146.363 28.1888 146.363 26.5055C146.363 25.0253 145.927 23.7918 145.057 22.805C144.215 21.8182 143.141 21.0927 141.835 20.6283C140.529 20.1349 139.194 19.8882 137.83 19.8882C137.133 19.8882 136.567 19.9898 136.132 20.1929C135.697 20.3961 135.305 20.6718 134.957 21.0201C134.608 21.3684 134.202 21.7747 133.738 22.2391C132.925 23.0807 132.199 24.0095 131.561 25.0253C130.922 26.0121 130.603 27.144 130.603 28.421C130.603 30.4527 131.213 31.9183 132.432 32.818C133.651 33.7178 135.16 34.1676 136.959 34.1676ZM157.397 39.2177C156.729 39.2177 156.221 39 155.873 38.5647C155.554 38.1003 155.336 37.5343 155.22 36.8668C155.133 36.1993 155.089 35.5172 155.089 34.8207C155.089 34.4724 155.089 34.1386 155.089 33.8193C155.118 33.4711 155.133 33.1518 155.133 32.8616C155.133 32.165 155.147 31.0912 155.176 29.64C155.206 28.1888 155.249 26.5345 155.307 24.677C155.365 22.7905 155.438 20.8314 155.525 18.7998C155.612 16.7682 155.728 14.8091 155.873 12.9226C156.047 11.0361 156.236 9.38177 156.439 7.95963C156.642 6.65358 157.005 5.60874 157.527 4.82512C158.079 4.04149 158.63 3.64967 159.182 3.64967C159.675 3.64967 160.096 4.04149 160.444 4.82512C160.792 5.60874 160.923 6.90028 160.836 8.69972C160.285 12.0374 159.878 15.259 159.617 18.3645C159.356 21.47 159.225 24.677 159.225 27.9857C159.225 29.3788 159.298 30.7719 159.443 32.165C159.588 33.5581 159.661 34.9513 159.661 36.3444C159.661 37.2441 159.472 37.9552 159.095 38.4776C158.717 38.971 158.151 39.2177 157.397 39.2177ZM167.386 12.1825C166.516 12.1825 165.761 11.9068 165.122 11.3553C164.484 10.8039 164.165 9.99126 164.165 8.91739C164.165 7.84353 164.542 7.08893 165.297 6.65358C166.051 6.21823 166.82 6.00056 167.604 6.00056C168.504 6.00056 169.258 6.27628 169.868 6.82772C170.506 7.37916 170.826 8.20633 170.826 9.30921C170.826 10.354 170.448 11.0941 169.694 11.5295C168.968 11.9648 168.199 12.1825 167.386 12.1825ZM165.645 38.347C165.093 38.347 164.673 38.0567 164.382 37.4763C164.092 36.8958 163.874 36.3153 163.729 35.7349V30.1189C163.729 29.9738 163.758 29.5965 163.816 28.987C163.903 28.3485 163.991 27.6084 164.078 26.7667C164.194 25.896 164.295 25.0688 164.382 24.2852C164.498 23.4726 164.586 22.834 164.644 22.3697C164.731 21.7892 164.832 21.1507 164.948 20.4541C165.093 19.7576 165.34 19.1481 165.688 18.6257C166.037 18.1033 166.53 17.842 167.169 17.842C167.865 17.842 168.359 18.0162 168.649 18.3645C168.968 18.6837 169.157 19.09 169.215 19.5834C169.273 20.0768 169.302 20.5847 169.302 21.1072V22.6309C169.302 22.6889 169.287 22.8195 169.258 23.0227C169.229 23.1968 169.186 23.4 169.128 23.6322C168.925 24.648 168.765 25.4026 168.649 25.896C168.562 26.3604 168.489 26.7667 168.431 27.115C168.402 27.4342 168.388 27.8841 168.388 28.4646C168.388 28.8128 168.388 29.2482 168.388 29.7706C168.417 30.293 168.431 30.9751 168.431 31.8167C168.431 32.194 168.446 32.5713 168.475 32.9487C168.504 33.2969 168.518 33.6742 168.518 34.0806C168.518 34.5159 168.475 34.9803 168.388 35.4737C168.271 36.1993 168.01 36.8668 167.604 37.4763C167.198 38.0567 166.545 38.347 165.645 38.347Z" fill="#323235"/>
<path d="M76.2609 53.4206C76.1002 53.4206 75.9796 53.367 75.8992 53.2598C75.8189 53.1527 75.7653 53.0276 75.7385 52.8848C75.7117 52.7329 75.6849 52.599 75.6581 52.4829V51.4916C75.6581 50.9916 75.6804 50.487 75.7251 49.978C75.7697 49.46 75.7921 48.9555 75.7921 48.4643C75.7921 48.2321 75.7697 48.0089 75.7251 47.7945C75.6804 47.5802 75.6581 47.3614 75.6581 47.1382V46.7765C75.7296 46.6425 75.8233 46.5443 75.9394 46.4818C76.0644 46.4193 76.1939 46.388 76.3279 46.388C76.5244 46.388 76.6717 46.4461 76.7699 46.5622C76.8682 46.6693 76.9351 46.7988 76.9709 46.9506C77.0155 47.1024 77.0557 47.2409 77.0914 47.3659C77.1271 47.482 77.1852 47.5489 77.2656 47.5668C77.5245 47.3971 77.7701 47.2319 78.0023 47.0712C78.2434 46.9104 78.4935 46.7809 78.7524 46.6827C79.0204 46.5756 79.315 46.522 79.6365 46.522C79.7973 46.522 79.967 46.5577 80.1456 46.6291C80.3331 46.7006 80.4938 46.8033 80.6278 46.9372C80.7617 47.0622 80.8287 47.2185 80.8287 47.4061C80.8287 47.6382 80.735 47.8079 80.5474 47.9151C80.3688 48.0222 80.1991 48.0758 80.0384 48.0758C79.9312 48.0758 79.8285 48.0535 79.7303 48.0089C79.6321 47.9642 79.5294 47.9419 79.4222 47.9419C79.1097 47.9419 78.815 48.0222 78.5381 48.183C78.2702 48.3348 78.0336 48.5179 77.8282 48.7322C77.6228 48.9465 77.4576 49.1475 77.3325 49.335C77.2968 49.4154 77.27 49.5493 77.2522 49.7369C77.2343 49.9244 77.2209 50.1387 77.212 50.3798C77.203 50.612 77.1941 50.8397 77.1852 51.063C77.1852 51.2862 77.1807 51.4782 77.1718 51.639C77.1629 51.9337 77.1316 52.2195 77.078 52.4963C77.0334 52.7642 76.9485 52.9875 76.8235 53.1661C76.6985 53.3357 76.511 53.4206 76.2609 53.4206ZM84.5429 53.4876C83.8999 53.4876 83.3061 53.3893 82.7613 53.1929C82.2255 52.9875 81.7924 52.666 81.462 52.2284C81.1315 51.7819 80.9663 51.2059 80.9663 50.5004C80.9663 49.9646 81.0512 49.4422 81.2209 48.9331C81.3995 48.4241 81.654 47.9642 81.9844 47.5534C82.3148 47.1337 82.7122 46.8033 83.1766 46.5622C83.6409 46.3121 84.1634 46.1871 84.7438 46.1871C85.1368 46.1871 85.5029 46.2675 85.8422 46.4282C86.1905 46.58 86.4674 46.8077 86.6728 47.1114C86.8871 47.4061 86.9942 47.7677 86.9942 48.1964C86.9942 48.6072 86.9094 49.0001 86.7397 49.3752C86.5701 49.7502 86.3379 50.0851 86.0432 50.3798C85.7485 50.6745 85.4136 50.9067 85.0385 51.0764C84.6724 51.2371 84.2884 51.3175 83.8865 51.3175C83.824 51.3175 83.6856 51.3041 83.4713 51.2773C83.2569 51.2416 83.0873 51.2059 82.9622 51.1702C82.8729 51.1523 82.8015 51.1166 82.7479 51.063C82.7301 51.0541 82.6988 51.0407 82.6542 51.0228C82.6095 50.996 82.5782 50.9826 82.5604 50.9826C82.6229 51.2416 82.7524 51.4604 82.9489 51.639C83.1542 51.8087 83.3864 51.9337 83.6454 52.0141C83.9133 52.0944 84.1678 52.1346 84.4089 52.1346C84.5786 52.1346 84.7483 52.1257 84.918 52.1078C85.0966 52.081 85.2841 52.0676 85.4806 52.0676C85.677 52.0676 85.8467 52.1212 85.9896 52.2284C86.1325 52.3356 86.2039 52.5097 86.2039 52.7508C86.2039 52.9473 86.1414 53.0991 86.0164 53.2062C85.9003 53.3134 85.7485 53.3849 85.5609 53.4206C85.3823 53.4563 85.1993 53.4742 85.0117 53.4742C84.8331 53.4831 84.6769 53.4876 84.5429 53.4876ZM83.8865 49.7636C84.1544 49.7636 84.4179 49.7145 84.6769 49.6163C84.9448 49.5091 85.1635 49.3529 85.3332 49.1475C85.5118 48.9421 85.6011 48.6876 85.6011 48.3839C85.6011 48.1249 85.5208 47.9196 85.36 47.7677C85.2082 47.6159 85.0028 47.54 84.7438 47.54C84.5116 47.54 84.2661 47.6025 84.0071 47.7276C83.7481 47.8526 83.5025 48.0133 83.2703 48.2098C83.0471 48.4062 82.864 48.6206 82.7211 48.8528C82.5782 49.076 82.5068 49.2948 82.5068 49.5091V49.5627C82.739 49.5984 82.9712 49.6431 83.2034 49.6967C83.4355 49.7413 83.6633 49.7636 83.8865 49.7636ZM90.9018 53.4206C90.491 53.4206 90.107 53.3268 89.7498 53.1393C89.3926 52.9517 89.0934 52.7017 88.8523 52.3891C88.6112 52.0676 88.4549 51.706 88.3835 51.3041V50.6209C88.3835 50.1209 88.4728 49.6163 88.6514 49.1073C88.83 48.5982 89.0845 48.1294 89.4149 47.7008C89.7453 47.2632 90.1383 46.9149 90.5937 46.6559C91.0492 46.388 91.5493 46.2541 92.094 46.2541C92.3173 46.2541 92.5093 46.2942 92.67 46.3746C92.8397 46.455 92.9915 46.5398 93.1254 46.6291C93.2683 46.7095 93.4067 46.7586 93.5407 46.7765C93.6121 46.4103 93.7104 46.1692 93.8354 46.0531C93.9604 45.9281 94.1301 45.8656 94.3444 45.8656C94.6034 45.8656 94.7775 45.9504 94.8668 46.1201C94.9651 46.2809 95.0142 46.4862 95.0142 46.7363C95.0142 47.2275 95.0008 47.7097 94.974 48.183C94.9561 48.6563 94.9472 49.143 94.9472 49.6431C94.9472 50.036 94.9695 50.4423 95.0142 50.8621C95.0588 51.2818 95.0812 51.6881 95.0812 52.081V52.3623C95.0812 52.5588 95.041 52.7419 94.9606 52.9116C94.8892 53.0723 94.724 53.1527 94.465 53.1527C94.2239 53.1527 94.0497 53.0812 93.9426 52.9383C93.8443 52.7865 93.7773 52.6079 93.7416 52.4025C93.7148 52.1882 93.688 51.9962 93.6613 51.8265L93.6077 51.7729C93.304 52.0766 93.0317 52.3534 92.7906 52.6035C92.5584 52.8535 92.2994 53.0544 92.0136 53.2062C91.7279 53.3491 91.3573 53.4206 90.9018 53.4206ZM90.7679 52.0676C91.0804 52.0676 91.3751 51.9739 91.652 51.7863C91.9377 51.5899 92.1922 51.3398 92.4155 51.0362C92.6387 50.7236 92.8129 50.3977 92.9379 50.0583C93.0629 49.719 93.1254 49.402 93.1254 49.1073C93.1254 48.884 93.0942 48.6608 93.0317 48.4375C92.9692 48.2053 92.862 48.0089 92.7102 47.8481C92.5673 47.6874 92.3619 47.607 92.094 47.607C91.7993 47.607 91.5091 47.7097 91.2233 47.9151C90.9465 48.1205 90.6964 48.3839 90.4732 48.7054C90.2499 49.018 90.0713 49.3484 89.9373 49.6967C89.8034 50.036 89.7364 50.3441 89.7364 50.6209C89.7364 50.8442 89.7677 51.0675 89.8302 51.2907C89.9016 51.514 90.0133 51.7015 90.1651 51.8533C90.3169 51.9962 90.5178 52.0676 90.7679 52.0676ZM98.2877 53.4876C97.8412 53.3715 97.4661 53.175 97.1625 52.8982C96.8678 52.6124 96.6445 52.2775 96.4927 51.8935C96.3498 51.5095 96.2784 51.1076 96.2784 50.6879C96.2784 50.1075 96.4034 49.5493 96.6534 49.0135C96.9035 48.4688 97.2384 47.9865 97.6581 47.5668C98.0867 47.1382 98.569 46.7988 99.1048 46.5488C99.6495 46.2987 100.212 46.1737 100.793 46.1737C100.998 46.1737 101.194 46.2049 101.382 46.2675C101.578 46.321 101.775 46.3523 101.971 46.3612L102.025 46.1871C102.034 46.0263 102.047 45.8254 102.065 45.5843C102.083 45.3432 102.105 45.0931 102.132 44.8342C102.168 44.5663 102.204 44.3117 102.239 44.0706C102.284 43.8295 102.333 43.6375 102.387 43.4946C102.458 43.2892 102.561 43.1151 102.695 42.9722C102.829 42.8204 103.007 42.7445 103.231 42.7445C103.454 42.7445 103.597 42.8159 103.659 42.9588C103.731 43.1017 103.766 43.2803 103.766 43.4946V43.8295C103.641 44.8565 103.543 45.8701 103.472 46.8702C103.409 47.8615 103.378 48.8528 103.378 49.844C103.378 50.2995 103.4 50.746 103.445 51.1836C103.49 51.6122 103.512 52.0632 103.512 52.5365C103.512 52.7062 103.485 52.8758 103.431 53.0455C103.387 53.2062 103.253 53.2866 103.03 53.2866C102.797 53.2866 102.619 53.2241 102.494 53.0991C102.369 52.9651 102.279 52.7999 102.226 52.6035C102.172 52.407 102.128 52.2195 102.092 52.0409C102.074 51.9069 102.056 51.8399 102.038 51.8399H101.985C101.52 52.3489 101.043 52.7508 100.551 53.0455C100.069 53.3402 99.5111 53.4876 98.8771 53.4876H98.2877ZM98.7967 52.1212C99.145 52.1212 99.4799 52.0275 99.8013 51.8399C100.123 51.6524 100.409 51.4068 100.659 51.1032C100.918 50.7996 101.119 50.4736 101.261 50.1253C101.413 49.7681 101.489 49.4288 101.489 49.1073C101.489 49.0269 101.471 48.9063 101.436 48.7456C101.4 48.5849 101.355 48.4152 101.302 48.2366C101.248 48.058 101.19 47.9106 101.127 47.7945C101.074 47.6695 101.025 47.607 100.98 47.607C100.551 47.607 100.145 47.6963 99.7612 47.8749C99.3772 48.0446 99.0333 48.2768 98.7297 48.5715C98.435 48.8662 98.1984 49.201 98.0198 49.5761C97.8501 49.9512 97.7653 50.3441 97.7653 50.7549V51.2907C97.8367 51.5497 97.9573 51.7551 98.1269 51.9069C98.2966 52.0498 98.5199 52.1212 98.7967 52.1212ZM106.786 45.0351C106.518 45.0351 106.286 44.9502 106.089 44.7806C105.893 44.6109 105.795 44.3609 105.795 44.0304C105.795 43.7 105.911 43.4678 106.143 43.3339C106.375 43.1999 106.612 43.1329 106.853 43.1329C107.13 43.1329 107.362 43.2178 107.549 43.3875C107.746 43.5571 107.844 43.8116 107.844 44.151C107.844 44.4725 107.728 44.7002 107.496 44.8342C107.273 44.9681 107.036 45.0351 106.786 45.0351ZM106.25 53.0857C106.08 53.0857 105.951 52.9964 105.862 52.8178C105.772 52.6392 105.705 52.4606 105.661 52.282V50.554C105.661 50.5093 105.67 50.3932 105.687 50.2057C105.714 50.0092 105.741 49.7815 105.768 49.5225C105.804 49.2546 105.835 49.0001 105.862 48.759C105.897 48.5089 105.924 48.3125 105.942 48.1696C105.969 47.991 106 47.7945 106.036 47.5802C106.08 47.3659 106.156 47.1783 106.263 47.0176C106.371 46.8569 106.522 46.7765 106.719 46.7765C106.933 46.7765 107.085 46.8301 107.174 46.9372C107.273 47.0355 107.331 47.1605 107.348 47.3123C107.366 47.4641 107.375 47.6204 107.375 47.7811V48.25C107.375 48.2678 107.371 48.308 107.362 48.3705C107.353 48.4241 107.34 48.4866 107.322 48.5581C107.259 48.8706 107.21 49.1028 107.174 49.2546C107.148 49.3975 107.125 49.5225 107.107 49.6297C107.098 49.7279 107.094 49.8663 107.094 50.0449C107.094 50.1521 107.094 50.2861 107.094 50.4468C107.103 50.6076 107.107 50.8174 107.107 51.0764C107.107 51.1925 107.112 51.3086 107.121 51.4247C107.13 51.5318 107.134 51.6479 107.134 51.7729C107.134 51.9069 107.121 52.0498 107.094 52.2016C107.058 52.4249 106.978 52.6302 106.853 52.8178C106.728 52.9964 106.527 53.0857 106.25 53.0857ZM109.809 53.0187C109.586 53.0187 109.421 52.9562 109.314 52.8312C109.207 52.6972 109.14 52.5365 109.113 52.3489C109.086 52.1525 109.073 51.9649 109.073 51.7863C109.073 51.3756 109.082 50.9648 109.099 50.554C109.126 50.1432 109.14 49.7502 109.14 49.3752C109.14 48.9733 109.095 48.5893 109.006 48.2232C108.916 47.857 108.872 47.4909 108.872 47.1248V46.6023C108.952 46.4148 109.037 46.2898 109.126 46.2273C109.216 46.1558 109.336 46.1201 109.488 46.1201C109.765 46.1201 109.966 46.2094 110.091 46.388C110.216 46.5577 110.296 46.7631 110.332 47.0042C110.377 47.2364 110.408 47.4507 110.426 47.6472C110.435 47.7454 110.452 47.9374 110.479 48.2232C110.515 48.5089 110.537 48.7769 110.546 49.0269H110.6L110.653 48.9733C110.823 48.7233 111.002 48.4554 111.189 48.1696C111.377 47.8838 111.582 47.6159 111.805 47.3659C112.038 47.1158 112.292 46.9149 112.569 46.7631C112.846 46.6023 113.158 46.522 113.507 46.522C113.953 46.522 114.333 46.6515 114.645 46.9104C114.958 47.1605 115.221 47.4909 115.435 47.9017C115.65 48.3036 115.824 48.7411 115.958 49.2144C116.092 49.6877 116.199 50.1476 116.279 50.5942C116.36 51.0407 116.431 51.4247 116.494 51.7462V52.081C116.494 52.2775 116.44 52.474 116.333 52.6704C116.226 52.858 116.056 52.9517 115.824 52.9517C115.583 52.9517 115.404 52.8892 115.288 52.7642C115.181 52.6392 115.11 52.4784 115.074 52.282C115.056 52.2016 115.034 52.0721 115.007 51.8935C114.98 51.706 114.949 51.505 114.913 51.2907C114.877 51.0675 114.846 50.8621 114.819 50.6745C114.793 50.4781 114.77 50.3352 114.752 50.2459C114.726 50.0673 114.663 49.8574 114.565 49.6163C114.475 49.3662 114.391 49.1519 114.31 48.9733C114.23 48.7858 114.127 48.5893 114.002 48.3839C113.877 48.1785 113.694 48.0758 113.453 48.0758C113.239 48.0758 113.042 48.1517 112.864 48.3036C112.694 48.4554 112.542 48.634 112.408 48.8394C112.283 49.0448 112.171 49.2278 112.073 49.3886C111.85 49.7458 111.649 50.103 111.47 50.4602C111.292 50.8174 111.1 51.2059 110.894 51.6256C110.814 51.7953 110.738 51.9917 110.667 52.215C110.595 52.4293 110.497 52.6169 110.372 52.7776C110.247 52.9383 110.059 53.0187 109.809 53.0187ZM120.43 57.0641C120.171 56.9748 119.921 56.8542 119.68 56.7024C119.447 56.5596 119.255 56.3899 119.104 56.1934C118.961 56.0059 118.889 55.8005 118.889 55.5772C118.889 55.3718 118.961 55.22 119.104 55.1218C119.255 55.0236 119.416 54.9744 119.586 54.9744C119.782 54.9744 119.943 55.0325 120.068 55.1486C120.202 55.2736 120.34 55.3942 120.483 55.5102C120.635 55.6353 120.818 55.6978 121.032 55.6978C121.291 55.6978 121.519 55.6129 121.716 55.4433C121.912 55.2736 122.077 55.0548 122.211 54.7869C122.345 54.519 122.448 54.2332 122.519 53.9296C122.6 53.626 122.644 53.3402 122.653 53.0723C122.662 53.0098 122.676 52.8758 122.693 52.6704C122.711 52.4561 122.729 52.2329 122.747 52.0007C122.774 51.7685 122.787 51.5988 122.787 51.4916V51.3577C122.787 51.2862 122.769 51.2505 122.734 51.2505H122.68C122.412 51.5631 122.135 51.8846 121.85 52.215C121.573 52.5454 121.26 52.8222 120.912 53.0455C120.564 53.2598 120.162 53.367 119.706 53.367C119.358 53.367 119.032 53.2777 118.728 53.0991C118.425 52.9205 118.179 52.6794 117.992 52.3757C117.804 52.0721 117.71 51.7328 117.71 51.3577C117.71 50.7415 117.831 50.1298 118.072 49.5225C118.313 48.9063 118.648 48.3482 119.077 47.8481C119.505 47.348 120.001 46.9462 120.564 46.6425C121.135 46.3389 121.751 46.1871 122.412 46.1871C122.591 46.1871 122.778 46.2183 122.975 46.2809C123.171 46.3434 123.336 46.4461 123.47 46.5889C123.613 46.7229 123.685 46.906 123.685 47.1382C123.685 47.3436 123.609 47.5088 123.457 47.6338C123.314 47.7588 123.14 47.8213 122.935 47.8213C122.792 47.8213 122.649 47.799 122.506 47.7543C122.372 47.7097 122.234 47.6874 122.091 47.6874H121.823C121.332 47.8302 120.885 48.0848 120.483 48.4509C120.09 48.8081 119.778 49.2278 119.546 49.7101C119.313 50.1834 119.197 50.6656 119.197 51.1568V51.6122C119.269 51.8712 119.416 52.0007 119.639 52.0007C119.845 52.0007 120.05 51.9248 120.256 51.7729C120.461 51.6211 120.662 51.4336 120.858 51.2103C121.055 50.9782 121.238 50.7504 121.408 50.5272C121.577 50.295 121.733 50.103 121.876 49.9512C122.01 49.719 122.162 49.5002 122.332 49.2948C122.501 49.0805 122.658 48.8572 122.801 48.625C122.899 48.5 122.993 48.4152 123.082 48.3705C123.171 48.3259 123.278 48.3036 123.403 48.3036C123.627 48.3036 123.787 48.3661 123.886 48.4911C123.993 48.6072 124.069 48.7545 124.113 48.9331C124.158 49.1117 124.189 49.2814 124.207 49.4422V50.4468C124.207 50.8129 124.194 51.2282 124.167 51.6926C124.149 52.1569 124.104 52.6392 124.033 53.1393C123.97 53.6304 123.868 54.1082 123.725 54.5726C123.582 55.0369 123.39 55.4567 123.149 55.8317C122.917 56.2068 122.622 56.506 122.265 56.7292C121.908 56.9525 121.474 57.0641 120.965 57.0641H120.43ZM132.748 53.8224C132.561 53.8224 132.391 53.7376 132.239 53.5679C132.096 53.3982 132.025 53.2107 132.025 53.0053V51.8801C132.025 51.3532 132.034 50.8397 132.052 50.3396C132.078 49.8306 132.092 49.3127 132.092 48.7858C132.092 48.759 132.083 48.6965 132.065 48.5982C132.056 48.5 132.047 48.3929 132.038 48.2768H131.958C131.869 48.2768 131.77 48.2902 131.663 48.3169C131.565 48.3348 131.467 48.3437 131.368 48.3437C131.145 48.3437 130.967 48.2812 130.833 48.1562C130.699 48.0222 130.632 47.8392 130.632 47.607C130.632 47.3927 130.681 47.2409 130.779 47.1516C130.886 47.0622 131.016 47.0042 131.167 46.9774C131.328 46.9506 131.489 46.9283 131.65 46.9104C131.819 46.8836 131.962 46.8301 132.078 46.7497C132.194 46.6693 132.266 46.5309 132.293 46.3344C132.391 45.9058 132.494 45.4995 132.601 45.1155C132.717 44.7315 132.869 44.3921 133.056 44.0974C133.244 43.8027 133.498 43.5705 133.82 43.4009C134.141 43.2312 134.561 43.1463 135.079 43.1463C135.195 43.1463 135.351 43.1642 135.548 43.1999C135.753 43.2267 135.959 43.2758 136.164 43.3473C136.378 43.4187 136.557 43.5169 136.7 43.642C136.852 43.7581 136.927 43.9099 136.927 44.0974C136.927 44.3028 136.856 44.4814 136.713 44.6332C136.579 44.7761 136.427 44.8476 136.258 44.8476C136.034 44.8476 135.825 44.8029 135.628 44.7136C135.432 44.6243 135.222 44.5796 134.999 44.5796C134.686 44.5796 134.445 44.6868 134.275 44.9011C134.114 45.1065 134.003 45.37 133.94 45.6915C133.878 46.004 133.842 46.321 133.833 46.6425H135.146C135.298 46.6425 135.432 46.7229 135.548 46.8836C135.673 47.0355 135.735 47.1873 135.735 47.3391C135.735 47.5177 135.686 47.6516 135.588 47.7409C135.49 47.8302 135.369 47.8928 135.226 47.9285C135.083 47.9553 134.945 47.9821 134.811 48.0089C134.731 48.0089 134.61 48.0222 134.449 48.049C134.289 48.0669 134.123 48.0848 133.954 48.1026C133.793 48.1205 133.663 48.1339 133.565 48.1428C133.512 48.1785 133.467 48.3036 133.431 48.5179C133.405 48.7233 133.382 48.9689 133.364 49.2546C133.355 49.5404 133.351 49.8262 133.351 50.1119C133.351 50.3441 133.351 50.5584 133.351 50.7549C133.36 50.9514 133.364 51.0853 133.364 51.1568C133.364 51.4247 133.373 51.6881 133.391 51.9471C133.418 52.2061 133.431 52.4516 133.431 52.6838C133.431 52.8446 133.418 53.0142 133.391 53.1929C133.373 53.3625 133.315 53.5099 133.217 53.6349C133.128 53.7599 132.971 53.8224 132.748 53.8224ZM140.441 53.2866C139.798 53.2866 139.2 53.1482 138.646 52.8714C138.093 52.5945 137.646 52.2016 137.307 51.6926C136.967 51.1836 136.798 50.5897 136.798 49.911C136.798 49.4466 136.891 49.018 137.079 48.625C137.275 48.2232 137.521 47.8481 137.816 47.4998C138.119 47.1516 138.423 46.8256 138.727 46.522C138.887 46.3612 139.079 46.2451 139.303 46.1737C139.526 46.0933 139.754 46.0531 139.986 46.0531C140.566 46.0531 141.124 46.1156 141.66 46.2407C142.196 46.3657 142.674 46.5711 143.094 46.8569C143.522 47.1337 143.862 47.5043 144.112 47.9687C144.362 48.4241 144.487 48.9822 144.487 49.6431C144.487 50.1878 144.371 50.6835 144.138 51.13C143.906 51.5765 143.594 51.9605 143.201 52.282C142.817 52.6035 142.384 52.8535 141.901 53.0321C141.428 53.2018 140.941 53.2866 140.441 53.2866ZM140.173 51.7997C140.665 51.7997 141.129 51.7149 141.566 51.5452C142.004 51.3666 142.361 51.1032 142.638 50.7549C142.924 50.3977 143.067 49.9601 143.067 49.4422C143.067 48.9867 142.933 48.6072 142.665 48.3036C142.406 47.9999 142.075 47.7767 141.674 47.6338C141.272 47.482 140.861 47.4061 140.441 47.4061C140.227 47.4061 140.053 47.4373 139.919 47.4998C139.785 47.5623 139.664 47.6472 139.557 47.7543C139.45 47.8615 139.325 47.9865 139.182 48.1294C138.932 48.3884 138.709 48.6742 138.512 48.9867C138.316 49.2903 138.218 49.6386 138.218 50.0316C138.218 50.6567 138.405 51.1076 138.78 51.3845C139.155 51.6613 139.62 51.7997 140.173 51.7997ZM146.6 53.4206C146.439 53.4206 146.318 53.367 146.238 53.2598C146.158 53.1527 146.104 53.0276 146.077 52.8848C146.05 52.7329 146.024 52.599 145.997 52.4829V51.4916C145.997 50.9916 146.019 50.487 146.064 49.978C146.108 49.46 146.131 48.9555 146.131 48.4643C146.131 48.2321 146.108 48.0089 146.064 47.7945C146.019 47.5802 145.997 47.3614 145.997 47.1382V46.7765C146.068 46.6425 146.162 46.5443 146.278 46.4818C146.403 46.4193 146.533 46.388 146.667 46.388C146.863 46.388 147.01 46.4461 147.109 46.5622C147.207 46.6693 147.274 46.7988 147.31 46.9506C147.354 47.1024 147.394 47.2409 147.43 47.3659C147.466 47.482 147.524 47.5489 147.604 47.5668C147.863 47.3971 148.109 47.2319 148.341 47.0712C148.582 46.9104 148.832 46.7809 149.091 46.6827C149.359 46.5756 149.654 46.522 149.975 46.522C150.136 46.522 150.306 46.5577 150.484 46.6291C150.672 46.7006 150.832 46.8033 150.966 46.9372C151.1 47.0622 151.167 47.2185 151.167 47.4061C151.167 47.6382 151.074 47.8079 150.886 47.9151C150.707 48.0222 150.538 48.0758 150.377 48.0758C150.27 48.0758 150.167 48.0535 150.069 48.0089C149.971 47.9642 149.868 47.9419 149.761 47.9419C149.448 47.9419 149.154 48.0222 148.877 48.183C148.609 48.3348 148.372 48.5179 148.167 48.7322C147.961 48.9465 147.796 49.1475 147.671 49.335C147.635 49.4154 147.609 49.5493 147.591 49.7369C147.573 49.9244 147.56 50.1387 147.551 50.3798C147.542 50.612 147.533 50.8397 147.524 51.063C147.524 51.2862 147.519 51.4782 147.51 51.639C147.502 51.9337 147.47 52.2195 147.417 52.4963C147.372 52.7642 147.287 52.9875 147.162 53.1661C147.037 53.3357 146.85 53.4206 146.6 53.4206ZM157.341 53.4206C157.145 53.4206 156.98 53.3491 156.846 53.2062C156.721 53.0634 156.658 52.9026 156.658 52.724V52.4695L157.127 47.5802V44.5529C157.127 44.3653 157.136 44.151 157.154 43.9099C157.172 43.6688 157.234 43.4589 157.341 43.2803C157.457 43.1017 157.654 43.0124 157.931 43.0124C158.181 43.0124 158.355 43.0972 158.453 43.2669C158.56 43.4366 158.623 43.6375 158.641 43.8697C158.667 44.1019 158.681 44.3073 158.681 44.4859C158.681 45.0038 158.658 45.5352 158.614 46.0799C158.578 46.6157 158.556 47.2007 158.547 47.8347H158.708C158.725 47.8347 158.806 47.8124 158.949 47.7677C159.092 47.7142 159.261 47.6561 159.458 47.5936C159.654 47.5222 159.846 47.4507 160.034 47.3793C160.23 47.2989 160.386 47.2319 160.503 47.1783C160.663 47.098 160.842 47.0087 161.038 46.9104C161.235 46.8033 161.436 46.7095 161.641 46.6291C161.847 46.5488 162.039 46.5086 162.217 46.5086C162.423 46.5086 162.583 46.5845 162.699 46.7363C162.824 46.8792 162.887 47.0533 162.887 47.2587C162.887 47.4998 162.798 47.6695 162.619 47.7677C162.44 47.857 162.262 47.9374 162.083 48.0089C161.994 48.0535 161.833 48.1249 161.601 48.2232C161.378 48.3214 161.123 48.4286 160.837 48.5447C160.552 48.6518 160.275 48.759 160.007 48.8662C159.739 48.9644 159.511 49.0492 159.324 49.1207V49.1609L159.391 49.2278C159.453 49.2903 159.516 49.3439 159.578 49.3886C159.65 49.4332 159.717 49.4868 159.779 49.5493C159.913 49.6297 160.114 49.7592 160.382 49.9378C160.65 50.1164 160.936 50.3084 161.239 50.5138C161.552 50.7192 161.838 50.9112 162.097 51.0898C162.365 51.2595 162.557 51.38 162.673 51.4515C162.789 51.5408 162.914 51.6345 163.048 51.7328C163.182 51.8221 163.298 51.9292 163.396 52.0542C163.503 52.1703 163.557 52.3088 163.557 52.4695C163.557 52.6838 163.494 52.8624 163.369 53.0053C163.253 53.1482 163.11 53.2196 162.941 53.2196C162.726 53.2196 162.512 53.1571 162.298 53.0321C162.092 52.9071 161.891 52.7597 161.695 52.5901C161.507 52.4204 161.329 52.2775 161.159 52.1614C161.07 52.0989 160.9 51.9873 160.65 51.8265C160.409 51.6658 160.136 51.4872 159.833 51.2907C159.538 51.0942 159.257 50.9067 158.989 50.7281C158.73 50.5495 158.529 50.4111 158.386 50.3129H158.333L158.279 50.4334L158.011 52.8044C157.975 52.983 157.89 53.1303 157.757 53.2464C157.632 53.3625 157.493 53.4206 157.341 53.4206ZM166.162 45.0351C165.894 45.0351 165.662 44.9502 165.466 44.7806C165.269 44.6109 165.171 44.3609 165.171 44.0304C165.171 43.7 165.287 43.4678 165.519 43.3339C165.752 43.1999 165.988 43.1329 166.229 43.1329C166.506 43.1329 166.738 43.2178 166.926 43.3875C167.122 43.5571 167.221 43.8116 167.221 44.151C167.221 44.4725 167.104 44.7002 166.872 44.8342C166.649 44.9681 166.412 45.0351 166.162 45.0351ZM165.627 53.0857C165.457 53.0857 165.327 52.9964 165.238 52.8178C165.149 52.6392 165.082 52.4606 165.037 52.282V50.554C165.037 50.5093 165.046 50.3932 165.064 50.2057C165.091 50.0092 165.117 49.7815 165.144 49.5225C165.18 49.2546 165.211 49.0001 165.238 48.759C165.274 48.5089 165.301 48.3125 165.318 48.1696C165.345 47.991 165.376 47.7945 165.412 47.5802C165.457 47.3659 165.533 47.1783 165.64 47.0176C165.747 46.8569 165.899 46.7765 166.095 46.7765C166.31 46.7765 166.461 46.8301 166.551 46.9372C166.649 47.0355 166.707 47.1605 166.725 47.3123C166.743 47.4641 166.752 47.6204 166.752 47.7811V48.25C166.752 48.2678 166.747 48.308 166.738 48.3705C166.729 48.4241 166.716 48.4866 166.698 48.5581C166.636 48.8706 166.587 49.1028 166.551 49.2546C166.524 49.3975 166.502 49.5225 166.484 49.6297C166.475 49.7279 166.47 49.8663 166.47 50.0449C166.47 50.1521 166.47 50.2861 166.47 50.4468C166.479 50.6076 166.484 50.8174 166.484 51.0764C166.484 51.1925 166.488 51.3086 166.497 51.4247C166.506 51.5318 166.511 51.6479 166.511 51.7729C166.511 51.9069 166.497 52.0498 166.47 52.2016C166.435 52.4249 166.354 52.6302 166.229 52.8178C166.104 52.9964 165.903 53.0857 165.627 53.0857ZM169.869 53.4876C169.423 53.3715 169.047 53.175 168.744 52.8982C168.449 52.6124 168.226 52.2775 168.074 51.8935C167.931 51.5095 167.86 51.1076 167.86 50.6879C167.86 50.1075 167.985 49.5493 168.235 49.0135C168.485 48.4688 168.82 47.9865 169.239 47.5668C169.668 47.1382 170.15 46.7988 170.686 46.5488C171.231 46.2987 171.794 46.1737 172.374 46.1737C172.579 46.1737 172.776 46.2049 172.963 46.2675C173.16 46.321 173.356 46.3523 173.553 46.3612L173.606 46.1871C173.615 46.0263 173.629 45.8254 173.647 45.5843C173.664 45.3432 173.687 45.0931 173.714 44.8342C173.749 44.5663 173.785 44.3117 173.821 44.0706C173.865 43.8295 173.914 43.6375 173.968 43.4946C174.039 43.2892 174.142 43.1151 174.276 42.9722C174.41 42.8204 174.589 42.7445 174.812 42.7445C175.035 42.7445 175.178 42.8159 175.241 42.9588C175.312 43.1017 175.348 43.2803 175.348 43.4946V43.8295C175.223 44.8565 175.125 45.8701 175.053 46.8702C174.991 47.8615 174.959 48.8528 174.959 49.844C174.959 50.2995 174.982 50.746 175.026 51.1836C175.071 51.6122 175.093 52.0632 175.093 52.5365C175.093 52.7062 175.066 52.8758 175.013 53.0455C174.968 53.2062 174.834 53.2866 174.611 53.2866C174.379 53.2866 174.2 53.2241 174.075 53.0991C173.95 52.9651 173.861 52.7999 173.807 52.6035C173.754 52.407 173.709 52.2195 173.673 52.0409C173.655 51.9069 173.638 51.8399 173.62 51.8399H173.566C173.102 52.3489 172.624 52.7508 172.133 53.0455C171.651 53.3402 171.093 53.4876 170.458 53.4876H169.869ZM170.378 52.1212C170.726 52.1212 171.061 52.0275 171.383 51.8399C171.704 51.6524 171.99 51.4068 172.24 51.1032C172.499 50.7996 172.7 50.4736 172.843 50.1253C172.995 49.7681 173.071 49.4288 173.071 49.1073C173.071 49.0269 173.053 48.9063 173.017 48.7456C172.981 48.5849 172.937 48.4152 172.883 48.2366C172.829 48.058 172.771 47.9106 172.709 47.7945C172.655 47.6695 172.606 47.607 172.562 47.607C172.133 47.607 171.727 47.6963 171.343 47.8749C170.959 48.0446 170.615 48.2768 170.311 48.5715C170.016 48.8662 169.78 49.201 169.601 49.5761C169.431 49.9512 169.347 50.3441 169.347 50.7549V51.2907C169.418 51.5497 169.539 51.7551 169.708 51.9069C169.878 52.0498 170.101 52.1212 170.378 52.1212ZM179.492 53.4876C179.242 53.4876 178.957 53.4652 178.635 53.4206C178.314 53.3849 178.001 53.3134 177.697 53.2062C177.394 53.0991 177.139 52.9383 176.934 52.724C176.737 52.5097 176.639 52.2284 176.639 51.8801C176.639 51.6479 176.697 51.447 176.813 51.2773C176.929 51.0987 177.117 51.0094 177.376 51.0094C177.537 51.0094 177.662 51.0496 177.751 51.13C177.84 51.2103 177.916 51.3086 177.979 51.4247C178.05 51.5408 178.131 51.6613 178.22 51.7863C178.318 51.9024 178.448 52.0007 178.608 52.081C178.778 52.1614 179.006 52.2016 179.292 52.2016C179.497 52.2016 179.72 52.1793 179.961 52.1346C180.211 52.081 180.426 51.9873 180.604 51.8533C180.783 51.7194 180.872 51.5363 180.872 51.3041C180.872 51.0987 180.787 50.938 180.618 50.8219C180.448 50.6969 180.229 50.5897 179.961 50.5004C179.693 50.4111 179.412 50.3218 179.117 50.2325C178.823 50.1342 178.541 50.0137 178.273 49.8708C178.006 49.7279 177.787 49.5404 177.617 49.3082C177.447 49.0671 177.363 48.759 177.363 48.3839C177.363 48.0356 177.447 47.7365 177.617 47.4864C177.787 47.2364 178.006 47.031 178.273 46.8702C178.55 46.7006 178.845 46.58 179.158 46.5086C179.479 46.4282 179.787 46.388 180.082 46.388C180.252 46.388 180.448 46.4103 180.671 46.455C180.895 46.4907 181.113 46.5532 181.328 46.6425C181.542 46.7318 181.721 46.8569 181.863 47.0176C182.006 47.1694 182.078 47.3614 182.078 47.5936C182.078 48.0044 181.872 48.2098 181.462 48.2098H181.287C181.02 48.058 180.792 47.9419 180.604 47.8615C180.417 47.7811 180.202 47.7409 179.961 47.7409C179.854 47.7409 179.702 47.7543 179.506 47.7811C179.318 47.799 179.149 47.8481 178.997 47.9285C178.845 48.0089 178.769 48.1383 178.769 48.3169C178.769 48.4688 178.854 48.5938 179.024 48.692C179.193 48.7902 179.412 48.884 179.68 48.9733C179.948 49.0626 180.229 49.1609 180.524 49.268C180.819 49.3752 181.1 49.5136 181.368 49.6833C181.636 49.844 181.855 50.0494 182.024 50.2995C182.194 50.5495 182.279 50.8621 182.279 51.2371C182.279 51.7819 182.14 52.2195 181.863 52.5499C181.596 52.8803 181.247 53.1214 180.819 53.2732C180.399 53.4161 179.957 53.4876 179.492 53.4876Z" fill="#F56344"/>
<defs>
<clipPath id="clip0_1_11373">
<rect width="38.7859" height="36.0922" fill="white" transform="translate(16.9282 8.92651) rotate(11)"/>
</clipPath>
</defs>
</svg>
