<svg width="193" height="52" viewBox="0 0 193 52" fill="none" xmlns="http://www.w3.org/2000/svg">
<path d="M191.268 46.0024C191.268 48.7735 188.823 51.0182 185.8 51.0182H6.87559C3.8538 51.0182 1.401 48.7735 1.401 46.0024V6.00284C1.401 3.23301 3.8538 0.980469 6.87559 0.980469H185.799C188.823 0.980469 191.266 3.23301 191.266 6.00284L191.268 46.0024Z" fill="#1C1917"/>
<path d="M185.223 1.04162C188.516 1.04162 191.195 3.4905 191.195 6.5V45.5C191.195 48.5095 188.516 50.9584 185.223 50.9584H7.44546C4.15302 50.9584 1.47391 48.5095 1.47391 45.5V6.5C1.47391 3.4905 4.15302 1.04162 7.44546 1.04162H185.223ZM185.223 2.74817e-06H7.44546C3.53613 2.74817e-06 0.334351 2.92663 0.334351 6.5V45.5C0.334351 49.0734 3.53613 52 7.44546 52H185.223C189.133 52 192.334 49.0734 192.334 45.5V6.5C192.334 2.92663 189.133 2.74817e-06 185.223 2.74817e-06Z" fill="#1C1917"/>
<path d="M43.1831 25.7191C43.1418 21.5292 46.9363 19.4908 47.1098 19.3959C44.9608 16.532 41.63 16.1407 40.4595 16.1095C37.662 15.8404 34.9484 17.6396 33.5233 17.6396C32.0698 17.6396 29.8753 16.1355 27.5102 16.1797C24.4666 16.2226 21.6193 17.8333 20.0577 20.3345C16.835 25.4344 19.2385 32.9289 22.3262 37.0512C23.8707 39.0701 25.6755 41.3243 28.0378 41.245C30.3489 41.1579 31.2122 39.8982 34.0012 39.8982C36.7646 39.8982 37.5752 41.245 39.9845 41.1943C42.4648 41.1579 44.0264 39.1663 45.5169 37.1292C47.3018 34.8152 48.0186 32.5363 48.0471 32.4193C47.9888 32.4011 43.23 30.741 43.1831 25.7191Z" fill="#FAFAF9"/>
<path d="M38.632 13.3977C39.875 11.9768 40.7255 10.0437 40.4894 8.08203C38.6903 8.15483 36.4403 9.21953 35.1447 10.6092C33.9984 11.8338 32.9744 13.841 33.2389 15.7286C35.2599 15.8664 37.3349 14.7965 38.632 13.3977Z" fill="#FAFAF9"/>
<path d="M76.6294 40.9547H73.3996L71.6303 35.873H65.4806L63.7953 40.9547H60.6508L66.7436 23.6543H70.5068L76.6294 40.9547ZM71.097 33.741L69.497 29.2235C69.3277 28.762 69.0106 27.6752 68.5427 25.9644H68.4858C68.2995 26.7002 67.9994 27.787 67.5869 29.2235L66.0154 33.741H71.097Z" fill="#FAFAF9"/>
<path d="M92.2977 34.5628C92.2977 36.6844 91.6705 38.3614 90.4161 39.5925C89.2925 40.6884 87.8973 41.2357 86.2319 41.2357C84.4342 41.2357 83.1428 40.6455 82.3563 39.4651H82.2994V46.0366H79.2673V32.5855C79.2673 31.2517 79.2289 29.8828 79.1549 28.4788H81.8216L81.9908 30.4561H82.0477C83.0589 28.9663 84.5935 28.2227 86.6529 28.2227C88.2628 28.2227 89.6068 28.8038 90.682 29.9673C91.7601 31.1321 92.2977 32.6635 92.2977 34.5628ZM89.2086 34.6642C89.2086 33.45 88.9099 32.449 88.3098 31.6612C87.6541 30.8396 86.7737 30.4288 85.6701 30.4288C84.922 30.4288 84.2422 30.6576 83.6349 31.1087C83.0262 31.5637 82.628 32.1578 82.4417 32.8936C82.3478 33.2368 82.3009 33.5176 82.3009 33.7386V35.8186C82.3009 36.726 82.6052 37.4917 83.2139 38.117C83.8226 38.7423 84.6134 39.0543 85.5862 39.0543C86.7282 39.0543 87.6171 38.6513 88.2529 37.8479C88.89 37.0432 89.2086 35.9824 89.2086 34.6642Z" fill="#FAFAF9"/>
<path d="M107.995 34.5628C107.995 36.6844 107.368 38.3614 106.112 39.5925C104.99 40.6884 103.595 41.2357 101.929 41.2357C100.132 41.2357 98.8402 40.6455 98.0552 39.4651H97.9983V46.0366H94.9661V32.5855C94.9661 31.2517 94.9277 29.8828 94.8538 28.4788H97.5204L97.6897 30.4561H97.7466C98.7563 28.9663 100.291 28.2227 102.352 28.2227C103.96 28.2227 105.304 28.8038 106.382 29.9673C107.456 31.1321 107.995 32.6635 107.995 34.5628ZM104.906 34.6642C104.906 33.45 104.606 32.449 104.006 31.6612C103.35 30.8396 102.473 30.4288 101.368 30.4288C100.618 30.4288 99.9396 30.6576 99.3309 31.1087C98.7222 31.5637 98.3254 32.1578 98.1391 32.8936C98.0466 33.2368 97.9983 33.5176 97.9983 33.7386V35.8186C97.9983 36.726 98.3026 37.4917 98.9085 38.117C99.5172 38.741 100.308 39.0543 101.284 39.0543C102.426 39.0543 103.315 38.6513 103.95 37.8479C104.587 37.0432 104.906 35.9824 104.906 34.6642Z" fill="#FAFAF9"/>
<path d="M125.546 36.1027C125.546 37.5743 124.987 38.7716 123.865 39.6959C122.632 40.706 120.915 41.2104 118.709 41.2104C116.673 41.2104 115.04 40.8516 113.804 40.1327L114.506 37.8226C115.838 38.5584 117.298 38.9276 118.89 38.9276C120.032 38.9276 120.921 38.691 121.559 38.2204C122.195 37.7498 122.512 37.118 122.512 36.3302C122.512 35.6282 122.25 35.0367 121.726 34.557C121.204 34.0773 120.332 33.6314 119.114 33.2193C115.801 32.0896 114.145 30.4347 114.145 28.2585C114.145 26.8363 114.725 25.6702 115.887 24.7628C117.045 23.8541 118.59 23.4004 120.521 23.4004C122.243 23.4004 123.674 23.6747 124.816 24.222L124.058 26.4814C122.991 25.951 121.785 25.6858 120.436 25.6858C119.369 25.6858 118.536 25.9263 117.938 26.4047C117.433 26.8324 117.18 27.3537 117.18 27.9712C117.18 28.655 117.469 29.2205 118.049 29.6651C118.554 30.0759 119.471 30.5205 120.803 31.0002C122.431 31.5995 123.627 32.3002 124.397 33.1036C125.163 33.9044 125.546 34.9067 125.546 36.1027Z" fill="#FAFAF9"/>
<path d="M135.571 30.5594H132.228V36.6161C132.228 38.1566 132.817 38.9262 133.998 38.9262C134.539 38.9262 134.989 38.8833 135.344 38.7975L135.428 40.9022C134.831 41.1063 134.045 41.209 133.07 41.209C131.873 41.209 130.937 40.8749 130.261 40.208C129.589 39.5398 129.25 38.4192 129.25 36.8449V30.5568H127.259V28.4768H129.25V26.1927L132.228 25.3711V28.4768H135.571V30.5594Z" fill="#FAFAF9"/>
<path d="M150.65 34.6141C150.65 36.5316 150.05 38.1059 148.853 39.337C147.597 40.6045 145.93 41.2363 143.852 41.2363C141.85 41.2363 140.255 40.6292 139.066 39.415C137.877 38.2008 137.283 36.6681 137.283 34.8208C137.283 32.8877 137.894 31.3043 139.122 30.0732C140.346 28.8408 141.999 28.2246 144.077 28.2246C146.079 28.2246 147.691 28.8317 148.907 30.0472C150.07 31.2263 150.65 32.7486 150.65 34.6141ZM147.504 34.7038C147.504 33.5533 147.236 32.5666 146.691 31.7437C146.055 30.7479 145.146 30.2513 143.969 30.2513C142.75 30.2513 141.824 30.7492 141.188 31.7437C140.644 32.5679 140.375 33.5702 140.375 34.7558C140.375 35.9063 140.644 36.893 141.188 37.7146C141.844 38.7104 142.76 39.207 143.942 39.207C145.099 39.207 146.008 38.7 146.664 37.6886C147.223 36.8501 147.504 35.853 147.504 34.7038Z" fill="#FAFAF9"/>
<path d="M160.506 30.9163C160.206 30.8656 159.886 30.8396 159.551 30.8396C158.484 30.8396 157.659 31.2075 157.079 31.9446C156.574 32.5946 156.321 33.4162 156.321 34.4081V40.9536H153.29L153.318 32.4074C153.318 30.9696 153.28 29.6605 153.205 28.4801H155.846L155.957 30.8669H156.041C156.361 30.0466 156.865 29.3862 157.557 28.8909C158.232 28.445 158.962 28.2227 159.748 28.2227C160.029 28.2227 160.282 28.2409 160.506 28.2734V30.9163Z" fill="#FAFAF9"/>
<path d="M174.067 34.1259C174.067 34.6225 174.031 35.0411 173.956 35.383H164.859C164.895 36.6154 165.334 37.5579 166.179 38.2079C166.946 38.789 167.937 39.0802 169.155 39.0802C170.501 39.0802 171.73 38.8839 172.835 38.49L173.31 40.414C172.019 40.9288 170.494 41.1849 168.735 41.1849C166.619 41.1849 164.958 40.6155 163.749 39.478C162.543 38.3405 161.938 36.813 161.938 34.8968C161.938 33.0157 162.5 31.4492 163.625 30.1999C164.803 28.8661 166.394 28.1992 168.397 28.1992C170.363 28.1992 171.853 28.8661 172.864 30.1999C173.664 31.2594 174.067 32.5698 174.067 34.1259ZM171.176 33.407C171.195 32.5854 170.998 31.8756 170.587 31.2763C170.062 30.5054 169.256 30.1206 168.17 30.1206C167.179 30.1206 166.373 30.4963 165.757 31.2503C165.252 31.8496 164.952 32.5685 164.859 33.4057H171.176V33.407Z" fill="#FAFAF9"/>
<path d="M70.094 13.0124C70.094 14.5425 69.592 15.6943 68.5893 16.4678C67.6606 17.1815 66.3408 17.539 64.6313 17.539C63.7836 17.539 63.0583 17.5052 62.451 17.4376V9.07725C63.2432 8.96025 64.0965 8.90045 65.0181 8.90045C66.6465 8.90045 67.8739 9.22415 68.7017 9.87155C69.629 10.6035 70.094 11.65 70.094 13.0124ZM68.5225 13.0501C68.5225 12.0582 68.2352 11.2977 67.6606 10.7673C67.086 10.2382 66.2469 9.97295 65.1418 9.97295C64.6725 9.97295 64.2729 10.0016 63.9415 10.0614V16.4171C64.1249 16.4431 64.4606 16.4548 64.9484 16.4548C66.089 16.4548 66.9694 16.1649 67.5895 15.5851C68.2096 15.0053 68.5225 14.1603 68.5225 13.0501Z" fill="#FAFAF9"/>
<path d="M78.4268 14.3491C78.4268 15.2916 78.1324 16.0638 77.5436 16.6696C76.9264 17.2923 76.1086 17.603 75.0874 17.603C74.1033 17.603 73.3196 17.3053 72.7351 16.7073C72.152 16.1106 71.8604 15.3579 71.8604 14.4505C71.8604 13.5015 72.1605 12.7228 72.7635 12.1183C73.3665 11.5138 74.1772 11.2109 75.1984 11.2109C76.1825 11.2109 76.9733 11.5086 77.5721 12.1053C78.1409 12.6851 78.4268 13.4339 78.4268 14.3491ZM76.8809 14.3933C76.8809 13.8278 76.7472 13.3429 76.4812 12.9386C76.1683 12.4498 75.7232 12.2054 75.1443 12.2054C74.5456 12.2054 74.0905 12.4498 73.7776 12.9386C73.5102 13.3429 73.3779 13.8356 73.3779 14.418C73.3779 14.9835 73.5116 15.4684 73.7776 15.8727C74.1004 16.3615 74.5498 16.6059 75.1301 16.6059C75.699 16.6059 76.1456 16.3576 76.467 15.8597C76.7429 15.4476 76.8809 14.9588 76.8809 14.3933Z" fill="#FAFAF9"/>
<path d="M89.6002 11.3359L87.5024 17.4641H86.1371L85.2681 14.803C85.0477 14.1387 84.8685 13.4783 84.7291 12.8231H84.7021C84.5726 13.4965 84.3934 14.1556 84.163 14.803L83.24 17.4641H81.859L79.8864 11.3359H81.4181L82.1762 14.2492C82.3597 14.9382 82.5104 15.5947 82.6313 16.2161H82.6583C82.7693 15.7039 82.9527 15.0513 83.2116 14.2622L84.163 11.3372H85.3776L86.2893 14.1998C86.5097 14.8979 86.6889 15.57 86.8269 16.2174H86.8681C86.9691 15.5869 87.1213 14.9148 87.3232 14.1998L88.1367 11.3372H89.6002V11.3359Z" fill="#FAFAF9"/>
<path d="M97.3267 17.4639H95.8362V13.9539C95.8362 12.8723 95.3868 12.3315 94.4851 12.3315C94.0428 12.3315 93.6858 12.4797 93.4085 12.7774C93.134 13.0751 92.9946 13.4261 92.9946 13.8278V17.4626H91.5041V13.0868C91.5041 12.5486 91.4856 11.9649 91.4501 11.3331H92.7599L92.8296 12.2912H92.8709C93.0444 11.9935 93.3032 11.7478 93.6431 11.5515C94.047 11.3227 94.4993 11.207 94.9942 11.207C95.62 11.207 96.1405 11.3916 96.5544 11.7621C97.0693 12.2158 97.3267 12.8931 97.3267 13.7927V17.4639Z" fill="#FAFAF9"/>
<path d="M101.437 17.4635H99.9479V8.52344H101.437V17.4635Z" fill="#FAFAF9"/>
<path d="M110.212 14.3491C110.212 15.2916 109.918 16.0638 109.329 16.6696C108.712 17.2923 107.892 17.603 106.873 17.603C105.887 17.603 105.103 17.3053 104.52 16.7073C103.937 16.1106 103.646 15.3579 103.646 14.4505C103.646 13.5015 103.946 12.7228 104.549 12.1183C105.152 11.5138 105.962 11.2109 106.982 11.2109C107.968 11.2109 108.757 11.5086 109.357 12.1053C109.926 12.6851 110.212 13.4339 110.212 14.3491ZM108.665 14.3933C108.665 13.8278 108.531 13.3429 108.265 12.9386C107.954 12.4498 107.507 12.2054 106.93 12.2054C106.329 12.2054 105.874 12.4498 105.563 12.9386C105.295 13.3429 105.163 13.8356 105.163 14.418C105.163 14.9835 105.297 15.4684 105.563 15.8727C105.886 16.3615 106.335 16.6059 106.915 16.6059C107.484 16.6059 107.929 16.3576 108.251 15.8597C108.528 15.4476 108.665 14.9588 108.665 14.3933Z" fill="#FAFAF9"/>
<path d="M117.426 17.4639H116.087L115.976 16.758H115.935C115.477 17.3209 114.824 17.603 113.977 17.603C113.344 17.603 112.832 17.4171 112.446 17.0479C112.097 16.7125 111.922 16.2952 111.922 15.7999C111.922 15.0511 112.263 14.4804 112.95 14.0852C113.635 13.69 114.6 13.4963 115.841 13.5054V13.391C115.841 12.5837 115.378 12.1807 114.449 12.1807C113.788 12.1807 113.204 12.3328 112.701 12.6344L112.398 11.74C113.021 11.3877 113.79 11.2109 114.698 11.2109C116.45 11.2109 117.329 12.0559 117.329 13.7459V16.0027C117.329 16.615 117.362 17.1025 117.426 17.4639ZM115.878 15.3579V14.4128C114.234 14.3868 113.412 14.7989 113.412 15.6478C113.412 15.9676 113.506 16.2068 113.698 16.3667C113.89 16.5266 114.135 16.6059 114.426 16.6059C114.753 16.6059 115.059 16.511 115.338 16.3225C115.618 16.1327 115.79 15.8922 115.854 15.5971C115.87 15.5308 115.878 15.4502 115.878 15.3579Z" fill="#FAFAF9"/>
<path d="M125.895 17.4635H124.572L124.503 16.4794H124.461C124.039 17.2282 123.319 17.6026 122.308 17.6026C121.5 17.6026 120.828 17.3127 120.294 16.7329C119.761 16.1531 119.495 15.4004 119.495 14.4761C119.495 13.4842 119.784 12.6808 120.364 12.0672C120.926 11.4952 121.614 11.2092 122.433 11.2092C123.333 11.2092 123.964 11.4861 124.322 12.0412H124.35V8.52344H125.842V15.8125C125.842 16.4092 125.859 16.9591 125.895 17.4635ZM124.35 14.8791V13.8573C124.35 13.6805 124.336 13.5375 124.309 13.4283C124.225 13.1007 124.045 12.8251 123.77 12.6028C123.493 12.3805 123.159 12.2687 122.773 12.2687C122.217 12.2687 121.782 12.4702 121.462 12.8745C121.145 13.2788 120.984 13.7949 120.984 14.4254C120.984 15.0312 121.136 15.5226 121.442 15.9009C121.765 16.3039 122.2 16.5054 122.745 16.5054C123.234 16.5054 123.625 16.3377 123.922 16.001C124.21 15.6903 124.35 15.3159 124.35 14.8791Z" fill="#FAFAF9"/>
<path d="M138.642 14.3491C138.642 15.2916 138.348 16.0638 137.759 16.6696C137.142 17.2923 136.325 17.603 135.303 17.603C134.32 17.603 133.536 17.3053 132.951 16.7073C132.367 16.1106 132.076 15.3579 132.076 14.4505C132.076 13.5015 132.376 12.7228 132.979 12.1183C133.582 11.5138 134.393 11.2109 135.415 11.2109C136.398 11.2109 137.19 11.5086 137.788 12.1053C138.356 12.6851 138.642 13.4339 138.642 14.3491ZM137.098 14.3933C137.098 13.8278 136.964 13.3429 136.698 12.9386C136.384 12.4498 135.94 12.2054 135.36 12.2054C134.762 12.2054 134.307 12.4498 133.993 12.9386C133.726 13.3429 133.593 13.8356 133.593 14.418C133.593 14.9835 133.727 15.4684 133.993 15.8727C134.316 16.3615 134.765 16.6059 135.346 16.6059C135.914 16.6059 136.362 16.3576 136.684 15.8597C136.958 15.4476 137.098 14.9588 137.098 14.3933Z" fill="#FAFAF9"/>
<path d="M146.657 17.4639H145.167V13.9539C145.167 12.8723 144.718 12.3315 143.815 12.3315C143.373 12.3315 143.016 12.4797 142.74 12.7774C142.464 13.0751 142.326 13.4261 142.326 13.8278V17.4626H140.834V13.0868C140.834 12.5486 140.817 11.9649 140.781 11.3331H142.09L142.159 12.2912H142.201C142.376 11.9935 142.634 11.7478 142.973 11.5515C143.378 11.3227 143.829 11.207 144.325 11.207C144.95 11.207 145.47 11.3916 145.884 11.7621C146.4 12.2158 146.657 12.8931 146.657 13.7927V17.4639Z" fill="#FAFAF9"/>
<path d="M156.687 12.3553H155.046V15.3323C155.046 16.0889 155.338 16.4672 155.915 16.4672C156.183 16.4672 156.404 16.4464 156.579 16.4035L156.618 17.437C156.323 17.5384 155.937 17.5891 155.46 17.5891C154.871 17.5891 154.413 17.4253 154.082 17.0977C153.749 16.7701 153.584 16.2189 153.584 15.4454V12.3553H152.604V11.3348H153.584V10.2116L155.045 9.80859V11.3335H156.686V12.3553H156.687Z" fill="#FAFAF9"/>
<path d="M164.578 17.4635H163.086V13.9795C163.086 12.881 162.637 12.3311 161.736 12.3311C161.045 12.3311 160.573 12.6496 160.314 13.2866C160.27 13.4205 160.244 13.5843 160.244 13.7767V17.4622H158.755V8.52344H160.244V12.2167H160.273C160.742 11.5446 161.415 11.2092 162.287 11.2092C162.904 11.2092 163.415 11.3938 163.82 11.7643C164.325 12.2258 164.578 12.9122 164.578 13.8196V17.4635Z" fill="#FAFAF9"/>
<path d="M172.718 14.1099C172.718 14.3543 172.698 14.5597 172.662 14.7274H168.192C168.212 15.3332 168.425 15.7947 168.839 16.1145C169.218 16.4005 169.705 16.5435 170.303 16.5435C170.964 16.5435 171.567 16.4473 172.11 16.2536L172.344 17.2C171.708 17.4522 170.96 17.5783 170.094 17.5783C169.056 17.5783 168.238 17.2988 167.646 16.7398C167.052 16.1808 166.757 15.4307 166.757 14.4895C166.757 13.5652 167.032 12.7956 167.585 12.182C168.162 11.5268 168.943 11.1992 169.929 11.1992C170.893 11.1992 171.625 11.5268 172.12 12.182C172.52 12.702 172.718 13.3455 172.718 14.1099ZM171.296 13.7576C171.307 13.3533 171.209 13.0049 171.007 12.7111C170.748 12.3328 170.354 12.143 169.821 12.143C169.334 12.143 168.937 12.3276 168.635 12.6981C168.387 12.9932 168.241 13.3455 168.192 13.7576H171.296Z" fill="#FAFAF9"/>
</svg>
