<svg width="193" height="52" viewBox="0 0 193 52" fill="none" xmlns="http://www.w3.org/2000/svg">
<g id="googleplay">
<path id="path14" d="M185.302 52H7.769C3.86504 52 0.667664 49.0734 0.667664 45.5V6.5C0.667664 2.92663 3.86504 2.74817e-06 7.769 2.74817e-06H185.302C189.206 2.74817e-06 192.404 2.92663 192.404 6.5V45.5C192.404 49.0734 189.206 52 185.302 52Z" fill="#1C1917"/>
<path id="path16" d="M185.302 1.04162C188.59 1.04162 191.266 3.4905 191.266 6.5V45.5C191.266 48.5095 188.59 50.9584 185.302 50.9584H7.769C4.48108 50.9584 1.80565 48.5095 1.80565 45.5V6.5C1.80565 3.4905 4.48108 1.04162 7.769 1.04162H185.302ZM185.302 2.74817e-06H7.769C3.86504 2.74817e-06 0.667664 2.92663 0.667664 6.5V45.5C0.667664 49.0734 3.86504 52 7.769 52H185.302C189.206 52 192.404 49.0734 192.404 45.5V6.5C192.404 2.92663 189.206 2.74817e-06 185.302 2.74817e-06Z" fill="#1C1917"/>
<g id="g18">
<path id="path20" d="M68.0128 13.3182C68.0128 14.4037 67.6578 15.273 66.9583 15.9214C66.1541 16.69 65.1066 17.0768 63.8231 17.0768C62.5963 17.0768 61.5489 16.6835 60.6896 15.9084C59.8286 15.1219 59.3989 14.1567 59.3989 13.0013C59.3989 11.8459 59.8286 10.8807 60.6896 10.1007C61.5489 9.31903 62.5963 8.92578 63.8231 8.92578C64.4338 8.92578 65.0161 9.04116 65.5718 9.25566C66.1257 9.47178 66.5766 9.76428 66.9033 10.125L66.1612 10.8108C65.5913 10.1949 64.8155 9.89103 63.8231 9.89103C62.9283 9.89103 62.1525 10.177 61.4938 10.7539C60.8423 11.3324 60.5156 12.0815 60.5156 13.0013C60.5156 13.921 60.8423 14.6767 61.4938 15.2552C62.1525 15.8255 62.9283 16.118 63.8231 16.118C64.7729 16.118 65.5718 15.8255 66.202 15.2487C66.6174 14.8668 66.8536 14.3403 66.9157 13.6675H63.8231V12.7283H67.9489C67.9986 12.9314 68.0128 13.128 68.0128 13.3182Z" fill="#FAFAF9" stroke="#FAFAF9" stroke-width="0.16" stroke-miterlimit="10"/>
</g>
<g id="g22">
<path id="path24" d="M74.5588 10.0606H70.6832V12.5306H74.1771V13.4699H70.6832V15.9399H74.5588V16.897H69.5861V9.10352H74.5588V10.0606Z" fill="#FAFAF9" stroke="#FAFAF9" stroke-width="0.16" stroke-miterlimit="10"/>
</g>
<g id="g26">
<path id="path28" d="M79.1782 16.897H78.0811V10.0606H75.7039V9.10352H81.5572V10.0606H79.1782V16.897Z" fill="#FAFAF9" stroke="#FAFAF9" stroke-width="0.16" stroke-miterlimit="10"/>
</g>
<g id="g30">
<path id="path32" d="M85.7927 16.897V9.10352H86.888V16.897H85.7927Z" fill="#FAFAF9" stroke="#FAFAF9" stroke-width="0.16" stroke-miterlimit="10"/>
</g>
<g id="g34">
<path id="path36" d="M91.744 16.897H90.6558V10.0606H88.2697V9.10352H94.1301V10.0606H91.744V16.897Z" fill="#FAFAF9" stroke="#FAFAF9" stroke-width="0.16" stroke-miterlimit="10"/>
</g>
<g id="g38">
<path id="path40" d="M105.212 15.8954C104.372 16.6835 103.332 17.0768 102.091 17.0768C100.843 17.0768 99.8024 16.6835 98.9626 15.8954C98.1247 15.1089 97.7075 14.1437 97.7075 13.0013C97.7075 11.8589 98.1247 10.8937 98.9626 10.1072C99.8024 9.31903 100.843 8.92578 102.091 8.92578C103.325 8.92578 104.365 9.31903 105.205 10.1137C106.05 10.9067 106.467 11.8654 106.467 13.0013C106.467 14.1437 106.05 15.1089 105.212 15.8954ZM99.774 15.2422C100.406 15.8255 101.175 16.118 102.091 16.118C103 16.118 103.776 15.8255 104.4 15.2422C105.031 14.6588 105.35 13.9097 105.35 13.0013C105.35 12.0929 105.031 11.3438 104.4 10.7604C103.776 10.177 103 9.88453 102.091 9.88453C101.175 9.88453 100.406 10.177 99.774 10.7604C99.1437 11.3438 98.8241 12.0929 98.8241 13.0013C98.8241 13.9097 99.1437 14.6588 99.774 15.2422Z" fill="#FAFAF9" stroke="#FAFAF9" stroke-width="0.16" stroke-miterlimit="10"/>
</g>
<g id="g42">
<path id="path44" d="M108.006 16.897V9.10352H109.338L113.478 15.1648H113.526L113.478 13.6665V9.10352H114.573V16.897H113.43L109.094 10.5368H109.046L109.094 12.0415V16.897H108.006Z" fill="#FAFAF9" stroke="#FAFAF9" stroke-width="0.16" stroke-miterlimit="10"/>
</g>
<path id="path46" d="M97.4375 28.2783C94.1017 28.2783 91.3765 30.602 91.3765 33.8082C91.3765 36.9883 94.1017 39.3364 97.4375 39.3364C100.78 39.3364 103.506 36.9883 103.506 33.8082C103.506 30.602 100.78 28.2783 97.4375 28.2783ZM97.4375 37.1589C95.6071 37.1589 94.0324 35.776 94.0324 33.8082C94.0324 31.8143 95.6071 30.4558 97.4375 30.4558C99.2679 30.4558 100.85 31.8143 100.85 33.8082C100.85 35.776 99.2679 37.1589 97.4375 37.1589ZM84.213 28.2783C80.8701 28.2783 78.1521 30.602 78.1521 33.8082C78.1521 36.9883 80.8701 39.3364 84.213 39.3364C87.5542 39.3364 90.274 36.9883 90.274 33.8082C90.274 30.602 87.5542 28.2783 84.213 28.2783ZM84.213 37.1589C82.3809 37.1589 80.8009 35.776 80.8009 33.8082C80.8009 31.8143 82.3809 30.4558 84.213 30.4558C86.0434 30.4558 87.6181 31.8143 87.6181 33.8082C87.6181 35.776 86.0434 37.1589 84.213 37.1589ZM68.4765 29.9732V32.3229H74.6067C74.4274 33.6359 73.9481 34.6012 73.2131 35.2739C72.3183 36.0864 70.9247 36.9883 68.4765 36.9883C64.7039 36.9883 61.7498 34.2014 61.7498 30.7483C61.7498 27.2952 64.7039 24.5083 68.4765 24.5083C70.5164 24.5083 72.0005 25.2379 73.0959 26.1837L74.905 24.5278C73.3729 23.1888 71.3348 22.1602 68.4765 22.1602C63.3032 22.1602 58.9554 26.013 58.9554 30.7483C58.9554 35.4835 63.3032 39.3364 68.4765 39.3364C71.2726 39.3364 73.3729 38.4979 75.0239 36.9249C76.7158 35.3763 77.2431 33.1988 77.2431 31.4405C77.2431 30.8945 77.1934 30.3924 77.1046 29.9732H68.4765ZM132.825 31.7948C132.326 30.5582 130.787 28.2783 127.652 28.2783C124.545 28.2783 121.958 30.5192 121.958 33.8082C121.958 36.9054 124.518 39.3364 127.95 39.3364C130.725 39.3364 132.326 37.7878 132.985 36.8859L130.926 35.6298C130.239 36.5495 129.303 37.1589 127.95 37.1589C126.606 37.1589 125.642 36.595 125.024 35.4835L133.104 32.4237L132.825 31.7948ZM124.588 33.6359C124.518 31.5039 126.397 30.4119 127.742 30.4119C128.797 30.4119 129.692 30.8945 129.99 31.5852L124.588 33.6359ZM118.021 39H120.677V22.75H118.021V39ZM113.671 29.51H113.582C112.986 28.8633 111.848 28.2783 110.406 28.2783C107.381 28.2783 104.615 30.7093 104.615 33.826C104.615 36.9249 107.381 39.3364 110.406 39.3364C111.848 39.3364 112.986 38.7465 113.582 38.0803H113.671V38.8733C113.671 40.9874 112.437 42.1233 110.447 42.1233C108.824 42.1233 107.818 41.0508 107.402 40.1489L105.093 41.0313C105.758 42.497 107.521 44.3008 110.447 44.3008C113.561 44.3008 116.189 42.6238 116.189 38.5434V28.6147H113.671V29.51ZM110.634 37.1589C108.803 37.1589 107.271 35.7565 107.271 33.826C107.271 31.8777 108.803 30.4558 110.634 30.4558C112.437 30.4558 113.859 31.8777 113.859 33.826C113.859 35.7565 112.437 37.1589 110.634 37.1589ZM145.26 22.75H138.908V39H141.556V32.8429H145.26C148.201 32.8429 151.086 30.8945 151.086 27.7957C151.086 24.6984 148.194 22.75 145.26 22.75ZM145.329 30.5825H141.556V25.0104H145.329C147.307 25.0104 148.436 26.5135 148.436 27.7957C148.436 29.0534 147.307 30.5825 145.329 30.5825ZM161.703 28.2474C159.789 28.2474 157.799 29.0209 156.98 30.7353L159.331 31.6372C159.837 30.7353 160.767 30.4428 161.751 30.4428C163.125 30.4428 164.518 31.1984 164.54 32.5325V32.7032C164.06 32.4497 163.034 32.0743 161.772 32.0743C159.24 32.0743 156.661 33.3499 156.661 35.7305C156.661 37.908 158.734 39.3104 161.065 39.3104C162.848 39.3104 163.831 38.5743 164.449 37.7179H164.54V38.974H167.098V32.7405C167.098 29.8594 164.748 28.2474 161.703 28.2474ZM161.383 37.1524C160.517 37.1524 159.31 36.7592 159.31 35.776C159.31 34.5183 160.815 34.0357 162.118 34.0357C163.285 34.0357 163.831 34.2713 164.54 34.5817C164.332 36.0864 162.917 37.1524 161.383 37.1524ZM176.419 28.6033L173.374 35.6477H173.283L170.136 28.6033H167.279L172.009 38.4475L169.31 43.9254H172.078L179.366 28.6033H176.419ZM152.542 39H155.198V22.75H152.542V39Z" fill="#FAFAF9"/>
<g id="g48">
<path id="path64" d="M15.4877 9.79947C15.0705 10.1992 14.8291 10.8216 14.8291 11.6276V40.3771C14.8291 41.1831 15.0705 41.8055 15.4877 42.2052L15.5907 42.293L33.1914 26.1892V25.809L15.5907 9.70522L15.4877 9.79947Z" fill="url(#paint0_linear_1_1433)"/>
</g>
<g id="g66">
<path id="path78" d="M39.0521 31.5605L33.1917 26.1899V25.8097L39.0592 20.439L39.1906 20.5089L46.1392 24.1278C48.1223 25.1548 48.1223 26.8448 46.1392 27.8783L39.1906 31.4907L39.0521 31.5605Z" fill="url(#paint1_linear_1_1433)"/>
</g>
<g id="g80">
<path id="path88" d="M39.1909 31.4922L33.1921 26.0013L15.4885 42.2074C16.1471 42.8412 17.2212 42.9176 18.4426 42.2838L39.1909 31.4922Z" fill="url(#paint2_linear_1_1433)"/>
</g>
<g id="g90">
<path id="path104" d="M39.1909 20.5091L18.4426 9.71751C17.2212 9.09025 16.1471 9.16663 15.4885 9.80038L33.1921 26L39.1909 20.5091Z" fill="url(#paint3_linear_1_1433)"/>
</g>
</g>
<defs>
<linearGradient id="paint0_linear_1_1433" x1="31.6287" y1="40.6765" x2="9.89665" y2="16.934" gradientUnits="userSpaceOnUse">
<stop stop-color="#00A0FF"/>
<stop offset="0.0066" stop-color="#00A1FF"/>
<stop offset="0.2601" stop-color="#00BEFF"/>
<stop offset="0.5122" stop-color="#00D2FF"/>
<stop offset="0.7604" stop-color="#00DFFF"/>
<stop offset="1" stop-color="#00E3FF"/>
</linearGradient>
<linearGradient id="paint1_linear_1_1433" x1="48.7215" y1="25.998" x2="14.3554" y2="25.998" gradientUnits="userSpaceOnUse">
<stop stop-color="#FFE000"/>
<stop offset="0.4087" stop-color="#FFBD00"/>
<stop offset="0.7754" stop-color="#FFA500"/>
<stop offset="1" stop-color="#FF9C00"/>
</linearGradient>
<linearGradient id="paint2_linear_1_1433" x1="35.9289" y1="23.0164" x2="6.4586" y2="-9.18037" gradientUnits="userSpaceOnUse">
<stop stop-color="#FF3A44"/>
<stop offset="1" stop-color="#C31162"/>
</linearGradient>
<linearGradient id="paint3_linear_1_1433" x1="11.0321" y1="51.7709" x2="24.1919" y2="37.3938" gradientUnits="userSpaceOnUse">
<stop stop-color="#32A071"/>
<stop offset="0.0685" stop-color="#2DA771"/>
<stop offset="0.4762" stop-color="#15CF74"/>
<stop offset="0.8009" stop-color="#06E775"/>
<stop offset="1" stop-color="#00F076"/>
</linearGradient>
</defs>
</svg>
