<svg width="22" height="21" viewBox="0 0 22 21" fill="none" xmlns="http://www.w3.org/2000/svg">
<g id="Objects" clip-path="url(#clip0_1_935)">
<path id="Vector" fill-rule="evenodd" clip-rule="evenodd" d="M9.60828 0.782268C9.73297 0.32885 10.1826 0.00012207 10.6776 0.00012207C11.1726 0.00012207 11.6222 0.32885 11.7885 0.782268C12.4044 2.71685 13.1449 4.98016 13.5152 6.1326C13.6815 6.62758 14.1311 6.91475 14.6261 6.91475H20.222C20.717 6.91475 21.1667 7.24348 21.3329 7.73846C21.4992 8.19188 21.2914 8.72464 20.9211 9.01559C19.2736 10.2096 17.3428 11.6076 16.3529 12.3066C15.941 12.5938 15.7785 13.1304 15.941 13.6216C16.3113 14.774 17.0519 17.0373 17.6678 18.9303C17.834 19.4253 17.6678 19.9165 17.2559 20.2452C16.8441 20.5324 16.3113 20.5324 15.8995 20.2452C14.252 19.0512 12.3628 17.6532 11.3728 16.9126C10.961 16.6255 10.4282 16.6255 10.0164 16.9126C9.03017 17.6532 7.09559 19.0512 5.44817 20.2452C5.07788 20.5324 4.50355 20.5324 4.13326 20.2452C3.7214 19.9165 3.55893 19.4215 3.67984 18.9303C4.3373 17.0373 5.03632 14.774 5.44817 13.6216C5.57286 13.1266 5.40661 12.5938 4.99475 12.3066C4.00857 11.6076 2.11555 10.2096 0.468128 9.01559C0.0562737 8.72842 -0.106201 8.19188 0.0562736 7.73846C0.222527 7.24348 0.630603 6.91475 1.12558 6.91475H6.76308C7.25807 6.91475 7.70771 6.62758 7.87396 6.1326C8.24425 4.98016 8.94327 2.71685 9.60073 0.782268H9.60828Z" fill="#F7AF0C"/>
</g>
<defs>
<clipPath id="clip0_1_935">
<rect width="21.39" height="20.4567" fill="white"/>
</clipPath>
</defs>
</svg>
