<svg width="24" height="24" viewBox="0 0 24 24" fill="none" xmlns="http://www.w3.org/2000/svg">
<g id="baby-light 1">
<path id="Vector" d="M8.625 12.9375C8.43958 12.9375 8.25833 12.8825 8.10416 12.7795C7.94999 12.6765 7.82982 12.5301 7.75887 12.3588C7.68791 12.1875 7.66934 11.999 7.70552 11.8171C7.74169 11.6352 7.83098 11.4682 7.96209 11.3371C8.0932 11.206 8.26025 11.1167 8.44211 11.0805C8.62396 11.0443 8.81246 11.0629 8.98377 11.1339C9.15508 11.2048 9.30149 11.325 9.40451 11.4792C9.50752 11.6333 9.5625 11.8146 9.5625 12C9.5625 12.2486 9.46373 12.4871 9.28792 12.6629C9.1121 12.8387 8.87364 12.9375 8.625 12.9375ZM15.375 11.0625C15.1896 11.0625 15.0083 11.1175 14.8542 11.2205C14.7 11.3235 14.5798 11.4699 14.5089 11.6412C14.4379 11.8125 14.4193 12.001 14.4555 12.1829C14.4917 12.3648 14.581 12.5318 14.7121 12.6629C14.8432 12.794 15.0103 12.8833 15.1921 12.9195C15.374 12.9557 15.5625 12.9371 15.7338 12.8661C15.9051 12.7952 16.0515 12.675 16.1545 12.5208C16.2575 12.3667 16.3125 12.1854 16.3125 12C16.3125 11.7514 16.2137 11.5129 16.0379 11.3371C15.8621 11.1613 15.6236 11.0625 15.375 11.0625ZM14.325 15.2738C13.627 15.7073 12.8217 15.9371 12 15.9371C11.1783 15.9371 10.373 15.7073 9.675 15.2738C9.54869 15.1942 9.39595 15.1681 9.25038 15.2011C9.1048 15.2342 8.97832 15.3237 8.89875 15.45C8.81919 15.5763 8.79306 15.7291 8.82611 15.8746C8.85917 16.0202 8.9487 16.1467 9.075 16.2262C9.95263 16.7731 10.966 17.0629 12 17.0629C13.034 17.0629 14.0474 16.7731 14.925 16.2262C14.9875 16.1869 15.0417 16.1355 15.0844 16.0752C15.1271 16.0149 15.1575 15.9467 15.1739 15.8746C15.1903 15.8025 15.1923 15.7279 15.1798 15.6551C15.1673 15.5822 15.1407 15.5125 15.1013 15.45C15.0619 15.3875 15.0105 15.3333 14.9502 15.2906C14.8899 15.2479 14.8217 15.2175 14.7496 15.2011C14.6776 15.1847 14.603 15.1827 14.5301 15.1952C14.4572 15.2077 14.3875 15.2344 14.325 15.2738ZM21.5625 12C21.5625 13.8913 21.0017 15.7401 19.9509 17.3126C18.9002 18.8852 17.4067 20.1108 15.6594 20.8346C13.9121 21.5584 11.9894 21.7477 10.1345 21.3788C8.27951 21.0098 6.57564 20.099 5.2383 18.7617C3.90096 17.4244 2.99022 15.7205 2.62125 13.8656C2.25227 12.0106 2.44164 10.0879 3.16541 8.34059C3.88917 6.59327 5.11482 5.09981 6.68736 4.04907C8.25991 2.99833 10.1087 2.4375 12 2.4375C14.5352 2.44048 16.9658 3.44891 18.7584 5.24158C20.5511 7.03425 21.5595 9.46478 21.5625 12ZM20.4375 12C20.4349 9.81061 19.5823 7.70776 18.0596 6.13465C16.5368 4.56154 14.4628 3.64105 12.2747 3.56719C11.0906 5.17781 11.0625 6.73594 11.0625 6.75C11.0625 6.99864 11.1613 7.2371 11.3371 7.41291C11.5129 7.58873 11.7514 7.6875 12 7.6875C12.2486 7.6875 12.4871 7.58873 12.6629 7.41291C12.8387 7.2371 12.9375 6.99864 12.9375 6.75C12.9375 6.60082 12.9968 6.45774 13.1023 6.35225C13.2077 6.24676 13.3508 6.1875 13.5 6.1875C13.6492 6.1875 13.7923 6.24676 13.8978 6.35225C14.0032 6.45774 14.0625 6.60082 14.0625 6.75C14.0625 7.29701 13.8452 7.82161 13.4584 8.20841C13.0716 8.5952 12.547 8.8125 12 8.8125C11.453 8.8125 10.9284 8.5952 10.5416 8.20841C10.1548 7.82161 9.9375 7.29701 9.9375 6.75C9.9375 6.67969 9.95157 5.26687 10.8881 3.63562C9.28096 3.84928 7.76939 4.52145 6.53425 5.57172C5.29912 6.62199 4.39273 8.00587 3.92354 9.5578C3.45435 11.1097 3.44222 12.764 3.88861 14.3226C4.335 15.8813 5.221 17.2783 6.44061 18.3466C7.66021 19.4148 9.16178 20.1091 10.7656 20.3463C12.3695 20.5835 14.0077 20.3535 15.4843 19.684C16.9609 19.0145 18.2134 17.9337 19.0918 16.571C19.9702 15.2083 20.4374 13.6213 20.4375 12Z" fill="#F56344"/>
</g>
</svg>
