<svg width="48" height="49" viewBox="0 0 48 49" fill="none" xmlns="http://www.w3.org/2000/svg">
<g id="bird-light 1">
<path id="Vector" d="M29.75 17.4995C29.75 17.7467 29.6767 17.9884 29.5393 18.1939C29.402 18.3995 29.2067 18.5597 28.9783 18.6543C28.7499 18.7489 28.4986 18.7737 28.2561 18.7255C28.0137 18.6772 27.7909 18.5582 27.6161 18.3834C27.4413 18.2085 27.3222 17.9858 27.274 17.7433C27.2258 17.5009 27.2505 17.2495 27.3451 17.0211C27.4397 16.7927 27.6 16.5975 27.8055 16.4601C28.0111 16.3228 28.2528 16.2495 28.5 16.2495C28.8315 16.2495 29.1495 16.3812 29.3839 16.6156C29.6183 16.85 29.75 17.168 29.75 17.4995ZM23.48 25.4232C23.3272 25.2959 23.13 25.2346 22.9319 25.2526C22.7338 25.2707 22.551 25.3667 22.4237 25.5195L17.4237 31.5195C17.3598 31.595 17.3114 31.6825 17.2814 31.7768C17.2514 31.8712 17.2404 31.9705 17.249 32.0692C17.2576 32.1678 17.2856 32.2637 17.3315 32.3515C17.3773 32.4392 17.4401 32.517 17.5161 32.5804C17.5922 32.6437 17.6801 32.6914 17.7746 32.7206C17.8692 32.7499 17.9686 32.7601 18.0672 32.7507C18.1657 32.7413 18.2615 32.7125 18.3488 32.666C18.4362 32.6194 18.5135 32.556 18.5762 32.4795L23.5762 26.4795C23.7035 26.3266 23.7649 26.1295 23.7469 25.9314C23.7288 25.7333 23.6328 25.5505 23.48 25.4232ZM37.75 18.9995C37.7502 19.1231 37.7198 19.2448 37.6616 19.3539C37.6033 19.4629 37.5191 19.5559 37.4162 19.6245L34.75 21.4007V23.9995C34.746 27.3798 33.4014 30.6205 31.0112 33.0107C28.621 35.4009 25.3803 36.7455 22 36.7495H8.99999C8.85862 36.7496 8.72009 36.7098 8.60037 36.6346C8.48065 36.5595 8.38462 36.452 8.32334 36.3246C8.26206 36.1972 8.23803 36.0551 8.25402 35.9146C8.27002 35.7742 8.32538 35.6411 8.41374 35.5307L20.25 20.737V18.4995C20.2482 16.7601 20.8719 15.078 22.0072 13.7602C23.1425 12.4424 24.7137 11.5767 26.4342 11.321C28.1547 11.0653 29.9098 11.4366 31.3792 12.3673C32.8487 13.298 33.9346 14.726 34.4387 16.3907L37.4162 18.3745C37.5191 18.4431 37.6033 18.536 37.6616 18.6451C37.7198 18.7541 37.7502 18.8759 37.75 18.9995ZM35.6475 18.9995L33.375 17.4845C33.2222 17.3822 33.1124 17.2274 33.0662 17.0495C32.7152 15.6944 31.8819 14.5139 30.7226 13.7294C29.5633 12.9449 28.1576 12.6102 26.7692 12.7881C25.3807 12.966 24.1049 13.6443 23.1808 14.6958C22.2568 15.7472 21.748 17.0997 21.75 18.4995V20.9995C21.7502 21.1698 21.6925 21.3351 21.5862 21.4682L10.56 35.2495H22C24.9827 35.2462 27.8422 34.0598 29.9513 31.9508C32.0604 29.8417 33.2467 26.9821 33.25 23.9995V20.9995C33.2498 20.8759 33.2802 20.7541 33.3384 20.6451C33.3966 20.536 33.4809 20.4431 33.5837 20.3745L35.6475 18.9995Z" fill="#78716C"/>
</g>
</svg>
