<svg width="48" height="49" viewBox="0 0 48 49" fill="none" xmlns="http://www.w3.org/2000/svg">
<g id="book-open-text-light 2">
<path id="Vector" d="M36 15.25H28C27.2027 15.2506 26.4184 15.4518 25.7194 15.8352C25.0204 16.2186 24.4291 16.7718 24 17.4438C23.5709 16.7718 22.9796 16.2186 22.2806 15.8352C21.5816 15.4518 20.7973 15.2506 20 15.25H12C11.5359 15.25 11.0908 15.4344 10.7626 15.7626C10.4344 16.0908 10.25 16.5359 10.25 17V33C10.25 33.4641 10.4344 33.9092 10.7626 34.2374C11.0908 34.5656 11.5359 34.75 12 34.75H20C20.862 34.75 21.6886 35.0924 22.2981 35.7019C22.9076 36.3114 23.25 37.138 23.25 38C23.25 38.1989 23.329 38.3897 23.4697 38.5303C23.6103 38.671 23.8011 38.75 24 38.75C24.1989 38.75 24.3897 38.671 24.5303 38.5303C24.671 38.3897 24.75 38.1989 24.75 38C24.75 37.138 25.0924 36.3114 25.7019 35.7019C26.3114 35.0924 27.138 34.75 28 34.75H36C36.4641 34.75 36.9092 34.5656 37.2374 34.2374C37.5656 33.9092 37.75 33.4641 37.75 33V17C37.75 16.5359 37.5656 16.0908 37.2374 15.7626C36.9092 15.4344 36.4641 15.25 36 15.25ZM20 33.25H12C11.9337 33.25 11.8701 33.2237 11.8232 33.1768C11.7763 33.1299 11.75 33.0663 11.75 33V17C11.75 16.9337 11.7763 16.8701 11.8232 16.8232C11.8701 16.7763 11.9337 16.75 12 16.75H20C20.862 16.75 21.6886 17.0924 22.2981 17.7019C22.9076 18.3114 23.25 19.138 23.25 20V34.5387C22.3709 33.7101 21.2081 33.249 20 33.25ZM36.25 33C36.25 33.0663 36.2237 33.1299 36.1768 33.1768C36.1299 33.2237 36.0663 33.25 36 33.25H28C26.7917 33.2495 25.629 33.711 24.75 34.54V20C24.75 19.138 25.0924 18.3114 25.7019 17.7019C26.3114 17.0924 27.138 16.75 28 16.75H36C36.0663 16.75 36.1299 16.7763 36.1768 16.8232C36.2237 16.8701 36.25 16.9337 36.25 17V33ZM33.75 21C33.75 21.1989 33.671 21.3897 33.5303 21.5303C33.3897 21.671 33.1989 21.75 33 21.75H28C27.8011 21.75 27.6103 21.671 27.4697 21.5303C27.329 21.3897 27.25 21.1989 27.25 21C27.25 20.8011 27.329 20.6103 27.4697 20.4697C27.6103 20.329 27.8011 20.25 28 20.25H33C33.1989 20.25 33.3897 20.329 33.5303 20.4697C33.671 20.6103 33.75 20.8011 33.75 21ZM33.75 25C33.75 25.1989 33.671 25.3897 33.5303 25.5303C33.3897 25.671 33.1989 25.75 33 25.75H28C27.8011 25.75 27.6103 25.671 27.4697 25.5303C27.329 25.3897 27.25 25.1989 27.25 25C27.25 24.8011 27.329 24.6103 27.4697 24.4697C27.6103 24.329 27.8011 24.25 28 24.25H33C33.1989 24.25 33.3897 24.329 33.5303 24.4697C33.671 24.6103 33.75 24.8011 33.75 25ZM33.75 29C33.75 29.1989 33.671 29.3897 33.5303 29.5303C33.3897 29.671 33.1989 29.75 33 29.75H28C27.8011 29.75 27.6103 29.671 27.4697 29.5303C27.329 29.3897 27.25 29.1989 27.25 29C27.25 28.8011 27.329 28.6103 27.4697 28.4697C27.6103 28.329 27.8011 28.25 28 28.25H33C33.1989 28.25 33.3897 28.329 33.5303 28.4697C33.671 28.6103 33.75 28.8011 33.75 29Z" fill="#78716C"/>
</g>
</svg>
