<svg width="32" height="32" viewBox="0 0 32 32" fill="none" xmlns="http://www.w3.org/2000/svg">
<g id="PaperPlaneRight">
<path id="Vector" d="M10.6866 6.75555L10.6866 6.75553L10.6789 6.7513C10.301 6.54252 9.8685 6.45381 9.43892 6.49697C9.00935 6.54014 8.60311 6.71313 8.27429 6.99291C7.94547 7.27269 7.70968 7.646 7.5983 8.06312C7.48705 8.47975 7.50519 8.92036 7.6503 9.32642C7.65047 9.3269 7.65064 9.32738 7.65082 9.32786L10.0301 16.0018L7.65082 22.6757C7.65065 22.6761 7.65049 22.6766 7.65033 22.677C7.5052 23.0831 7.48704 23.5237 7.5983 23.9404C7.70968 24.3575 7.94547 24.7308 8.27429 25.0106C8.6031 25.2904 9.00934 25.4634 9.43892 25.5065C9.8685 25.5497 10.301 25.461 10.6789 25.2522L10.679 25.2522L10.6866 25.248L23.8751 17.8611C23.8766 17.8603 23.8781 17.8595 23.8795 17.8587C24.2097 17.675 24.4849 17.4065 24.6769 17.081C24.8697 16.754 24.9713 16.3813 24.9713 16.0018C24.9713 15.6222 24.8697 15.2495 24.6769 14.9225C24.4849 14.597 24.2097 14.3286 23.8795 14.1448L10.6866 6.75555Z" stroke="white" stroke-width="3" stroke-linecap="round" stroke-linejoin="round"/>
<path id="Vector_2" d="M10.625 16H15.625" stroke="white" stroke-width="3" stroke-linecap="round" stroke-linejoin="round"/>
</g>
</svg>
