<svg width="20" height="20" viewBox="0 0 20 20" fill="none" xmlns="http://www.w3.org/2000/svg">
<g id="004-instagram">
<path id="Shape" fill-rule="evenodd" clip-rule="evenodd" d="M6.56249 0.833252H13.4375C16.6011 0.833252 19.1667 3.39877 19.1667 6.56242V13.4374C19.1667 16.6011 16.6011 19.1666 13.4375 19.1666H6.56249C3.39885 19.1666 0.833328 16.6011 0.833328 13.4374V6.56242C0.833328 3.39877 3.39885 0.833252 6.56249 0.833252ZM13.4375 17.4481C15.649 17.4481 17.4479 15.6491 17.4479 13.4377V6.56266C17.4479 4.3512 15.649 2.55225 13.4375 2.55225H6.56249C4.35104 2.55225 2.55208 4.3512 2.55208 6.56266V13.4377C2.55208 15.6491 4.35104 17.4481 6.56249 17.4481H13.4375Z" fill="#FAFAF9"/>
<path id="Shape_2" fill-rule="evenodd" clip-rule="evenodd" d="M5.41736 10.0006C5.41736 7.46942 7.46955 5.41724 10.0007 5.41724C12.5318 5.41724 14.584 7.46942 14.584 10.0006C14.584 12.5317 12.5318 14.5839 10.0007 14.5839C7.46955 14.5839 5.41736 12.5317 5.41736 10.0006ZM7.13629 10.0008C7.13629 11.5797 8.42192 12.8653 10.0009 12.8653C11.5798 12.8653 12.8655 11.5797 12.8655 10.0008C12.8655 8.42065 11.5798 7.13617 10.0009 7.13617C8.42192 7.13617 7.13629 8.42065 7.13629 10.0008Z" fill="#FAFAF9"/>
<path id="Oval" d="M14.9276 5.68386C15.2649 5.68386 15.5384 5.41043 15.5384 5.07313C15.5384 4.73584 15.2649 4.4624 14.9276 4.4624C14.5903 4.4624 14.3169 4.73584 14.3169 5.07313C14.3169 5.41043 14.5903 5.68386 14.9276 5.68386Z" fill="#FAFAF9"/>
</g>
</svg>
