<svg width="40" height="40" viewBox="0 0 40 40" fill="none" xmlns="http://www.w3.org/2000/svg">
<g id="Frame 1742">
<path id="Vector 38" d="M27.8859 7.01495L8.09235 29.2237C7.73973 29.6193 7.75702 30.2214 8.13178 30.5961L9.0417 31.5061C9.42357 31.8879 10.0396 31.8976 10.4333 31.528L31.3846 11.8553C31.7277 11.5332 31.7997 11.0154 31.5576 10.6118L29.49 7.16581C29.143 6.58748 28.3347 6.51146 27.8859 7.01495Z" fill="#F56344"/>
<path id="Vector 37" d="M10.8224 7.31225L31.0147 28.3921C31.3909 28.7848 31.3842 29.4063 30.9996 29.7909L30.02 30.7705C29.6381 31.1524 29.0219 31.1621 28.6282 30.7923L6.91806 10.3979C6.4488 9.95703 6.51233 9.19409 7.04804 8.83696L9.54557 7.17194C9.94893 6.90303 10.4871 6.96217 10.8224 7.31225Z" fill="#F56344"/>
</g>
</svg>
