<svg width="40" height="40" viewBox="0 0 40 40" fill="none" xmlns="http://www.w3.org/2000/svg">
<g id="Frame 1742">
<g id="Group 3469">
<path id="Vector 36" d="M34.751 7.07125L4.94305 8.7716C4.41375 8.80179 4 9.23982 4 9.76998V11.0317C4 11.5715 4.42831 12.0138 4.96776 12.0312L34.1252 12.9718C34.6261 12.9879 35.0615 12.631 35.1439 12.1367L35.7943 8.23402C35.8997 7.60158 35.3911 7.03473 34.751 7.07125Z" fill="#F56344"/>
<path id="Vector 38" d="M34.6427 26.078L4.94259 27.7858C4.41348 27.8162 4 28.2542 4 28.7842V30.071C4 30.611 4.42877 31.0535 4.96854 31.0705L33.694 31.9746C34.1644 31.9894 34.5814 31.6742 34.6956 31.2177L35.6703 27.3189C35.8338 26.6646 35.3161 26.0393 34.6427 26.078Z" fill="#F56344"/>
<path id="Vector 37" d="M5.83775 17.018L35.0215 17.6456C35.5653 17.6573 36 18.1015 36 18.6454V20.0308C36 20.5709 35.5711 21.0134 35.0312 21.0303L5.25881 21.9607C4.61528 21.9808 4.12073 21.3964 4.24699 20.765L4.83567 17.8217C4.93074 17.3463 5.35308 17.0076 5.83775 17.018Z" fill="#F56344"/>
</g>
</g>
</svg>
