<svg width="155" height="42" viewBox="0 0 155 42" fill="none" xmlns="http://www.w3.org/2000/svg">
<g id="appstore">
<g id="Group">
<path id="Vector" d="M154.135 37.153C154.135 39.3911 152.161 41.204 149.721 41.204H5.28055C2.84115 41.204 0.861084 39.3911 0.861084 37.153V4.8472C0.861084 2.61013 2.84115 0.790863 5.28055 0.790863H149.72C152.161 0.790863 154.133 2.61013 154.133 4.8472L154.135 37.153Z" fill="#1C1917"/>
<path id="path16" d="M149.255 0.84127C151.913 0.84127 154.076 2.81911 154.076 5.24974V36.7482C154.076 39.1789 151.913 41.1567 149.255 41.1567H5.74058C3.08269 41.1567 0.919928 39.1789 0.919928 36.7482V5.24974C0.919928 2.81911 3.08269 0.84127 5.74058 0.84127H149.255ZM149.255 -5.31452e-07H5.74058C2.5847 -5.31452e-07 0 2.3637 0 5.24974V36.7482C0 39.6343 2.5847 41.998 5.74058 41.998H149.255C152.411 41.998 154.996 39.6343 154.996 36.7482V5.24974C154.996 2.3637 152.411 -5.31452e-07 149.255 -5.31452e-07Z" fill="#1C1917"/>
<g id="Group_2">
<g id="Group_3">
<g id="Vector_2">
<path d="M34.5904 20.774C34.5571 17.39 37.6203 15.7436 37.7603 15.667C36.0255 13.354 33.3366 13.0379 32.3917 13.0127C30.1334 12.7954 27.9428 14.2485 26.7924 14.2485C25.619 14.2485 23.8475 13.0337 21.9381 13.0694C19.4812 13.1041 17.1826 14.405 15.922 16.4251C13.3204 20.544 15.2607 26.597 17.7533 29.9264C19.0001 31.5569 20.4571 33.3775 22.3641 33.3135C24.2298 33.2431 24.9267 32.2257 27.1781 32.2257C29.4089 32.2257 30.0633 33.3135 32.0083 33.2725C34.0106 33.2431 35.2712 31.6346 36.4744 29.9894C37.9153 28.1204 38.494 26.2799 38.5169 26.1854C38.4699 26.1707 34.6283 24.8299 34.5904 20.774Z" fill="#FAFAF9"/>
<path d="M30.9164 10.8225C31.9199 9.67494 32.6064 8.11367 32.4158 6.5293C30.9635 6.58809 29.1472 7.448 28.1012 8.5704C27.1758 9.55945 26.3492 11.1806 26.5627 12.7051C28.1942 12.8164 29.8693 11.9523 30.9164 10.8225Z" fill="#FAFAF9"/>
</g>
</g>
</g>
<g id="Group_4">
<path id="Vector_3" d="M61.5905 33.0762H58.9831L57.5549 28.972H52.5904L51.2299 33.0762H48.6914L53.6099 19.1035H56.6478L61.5905 33.0762ZM57.1243 27.25L55.8327 23.6015C55.6961 23.2287 55.44 22.351 55.0623 20.9692H55.0164C54.866 21.5635 54.6237 22.4413 54.2908 23.6015L53.0221 27.25H57.1243Z" fill="#FAFAF9"/>
<path id="Vector_4" d="M74.2391 27.9133C74.2391 29.6269 73.7328 30.9813 72.7202 31.9756C71.8132 32.8607 70.6869 33.3027 69.3424 33.3027C67.8912 33.3027 66.8487 32.8261 66.2138 31.8727H66.1679V37.1802H63.7201V26.3164C63.7201 25.2391 63.6891 24.1335 63.6294 22.9996H65.7821L65.9187 24.5966H65.9647C66.781 23.3933 68.0198 22.7927 69.6823 22.7927C70.9819 22.7927 72.0669 23.2621 72.9349 24.2018C73.8051 25.1425 74.2391 26.3794 74.2391 27.9133ZM71.7454 27.9952C71.7454 27.0146 71.5043 26.2061 71.0198 25.5699C70.4905 24.9063 69.7798 24.5745 68.8889 24.5745C68.285 24.5745 67.7362 24.7593 67.246 25.1236C66.7546 25.4911 66.4331 25.9709 66.2827 26.5652C66.2069 26.8424 66.169 27.0692 66.169 27.2477V28.9276C66.169 29.6605 66.4147 30.2789 66.9061 30.7839C67.3975 31.2889 68.0359 31.5409 68.8212 31.5409C69.7431 31.5409 70.4607 31.2154 70.9739 30.5666C71.4882 29.9166 71.7454 29.0599 71.7454 27.9952Z" fill="#FAFAF9"/>
<path id="Vector_5" d="M86.9111 27.9133C86.9111 29.6269 86.4048 30.9813 85.391 31.9756C84.4851 32.8607 83.3588 33.3027 82.0144 33.3027C80.5631 33.3027 79.5207 32.8261 78.8869 31.8727H78.841V37.1802H76.3932V26.3164C76.3932 25.2391 76.3622 24.1335 76.3025 22.9996H78.4552L78.5918 24.5966H78.6378C79.4529 23.3933 80.6917 22.7927 82.3554 22.7927C83.6539 22.7927 84.7389 23.2621 85.6091 24.2018C86.476 25.1425 86.9111 26.3794 86.9111 27.9133ZM84.4174 27.9952C84.4174 27.0146 84.1751 26.2061 83.6906 25.5699C83.1613 24.9063 82.453 24.5745 81.5609 24.5745C80.9558 24.5745 80.4082 24.7593 79.9168 25.1236C79.4254 25.4911 79.105 25.9709 78.9546 26.5652C78.88 26.8424 78.841 27.0692 78.841 27.2477V28.9276C78.841 29.6605 79.0867 30.2789 79.5758 30.7839C80.0672 31.2879 80.7055 31.5409 81.4931 31.5409C82.4151 31.5409 83.1326 31.2154 83.6458 30.5666C84.1602 29.9166 84.4174 29.0599 84.4174 27.9952Z" fill="#FAFAF9"/>
<path id="Vector_6" d="M101.079 29.1574C101.079 30.3459 100.628 31.3129 99.7221 32.0594C98.7267 32.8752 97.3409 33.2826 95.5602 33.2826C93.9161 33.2826 92.5981 32.9928 91.6003 32.4122L92.1675 30.5465C93.2422 31.1407 94.4213 31.4389 95.706 31.4389C96.6279 31.4389 97.3455 31.2478 97.861 30.8677C98.3742 30.4877 98.6303 29.9774 98.6303 29.3411C98.6303 28.7741 98.419 28.2964 97.9953 27.909C97.574 27.5216 96.8702 27.1614 95.8874 26.8286C93.2123 25.9162 91.8759 24.5796 91.8759 22.822C91.8759 21.6733 92.3443 20.7315 93.2823 19.9987C94.2169 19.2647 95.4638 18.8983 97.0229 18.8983C98.4133 18.8983 99.5683 19.1199 100.49 19.5619L99.8783 21.3867C99.0172 20.9583 98.0436 20.7441 96.954 20.7441C96.0929 20.7441 95.4201 20.9384 94.9379 21.3247C94.5303 21.6702 94.326 22.0912 94.326 22.5899C94.326 23.1422 94.559 23.5989 95.0275 23.958C95.435 24.2898 96.1756 24.6489 97.2502 25.0363C98.5648 25.5203 99.5304 26.0863 100.152 26.7351C100.77 27.3819 101.079 28.1914 101.079 29.1574Z" fill="#FAFAF9"/>
<path id="Vector_7" d="M109.172 24.6805H106.474V29.5722C106.474 30.8164 106.949 31.4379 107.902 31.4379C108.34 31.4379 108.702 31.4033 108.989 31.334L109.057 33.0339C108.575 33.1987 107.94 33.2816 107.154 33.2816C106.187 33.2816 105.431 33.0118 104.886 32.4732C104.343 31.9335 104.07 31.0285 104.07 29.757V24.6784H102.462V22.9984H104.07V21.1537L106.474 20.4901V22.9984H109.172V24.6805Z" fill="#FAFAF9"/>
<path id="Vector_8" d="M121.345 27.9552C121.345 29.5039 120.861 30.7754 119.894 31.7697C118.88 32.7934 117.535 33.3036 115.857 33.3036C114.241 33.3036 112.954 32.8133 111.994 31.8327C111.034 30.852 110.554 29.6141 110.554 28.1221C110.554 26.5609 111.048 25.282 112.039 24.2877C113.027 23.2924 114.361 22.7947 116.039 22.7947C117.655 22.7947 118.956 23.285 119.938 24.2667C120.877 25.219 121.345 26.4485 121.345 27.9552ZM118.806 28.0276C118.806 27.0984 118.589 26.3015 118.149 25.6369C117.636 24.8326 116.902 24.4316 115.951 24.4316C114.968 24.4316 114.22 24.8337 113.707 25.6369C113.267 26.3026 113.05 27.1121 113.05 28.0696C113.05 28.9988 113.267 29.7958 113.707 30.4593C114.236 31.2636 114.976 31.6647 115.93 31.6647C116.864 31.6647 117.598 31.2552 118.127 30.4383C118.578 29.7611 118.806 28.9558 118.806 28.0276Z" fill="#FAFAF9"/>
<path id="Vector_9" d="M129.302 24.9682C129.06 24.9273 128.801 24.9063 128.53 24.9063C127.669 24.9063 127.003 25.2034 126.535 25.7987C126.127 26.3237 125.923 26.9873 125.923 27.7884V33.0749H123.476L123.499 26.1725C123.499 25.0113 123.468 23.954 123.407 23.0006H125.54L125.629 24.9283H125.697C125.955 24.2658 126.363 23.7324 126.921 23.3324C127.466 22.9723 128.055 22.7927 128.69 22.7927C128.916 22.7927 129.121 22.8074 129.302 22.8337V24.9682Z" fill="#FAFAF9"/>
<path id="Vector_10" d="M140.249 27.5619C140.249 27.963 140.22 28.301 140.159 28.5772H132.816C132.844 29.5725 133.199 30.3337 133.881 30.8587C134.5 31.328 135.3 31.5632 136.283 31.5632C137.37 31.5632 138.362 31.4047 139.254 31.0866L139.638 32.6405C138.595 33.0563 137.365 33.2631 135.944 33.2631C134.236 33.2631 132.895 32.8032 131.919 31.8845C130.945 30.9658 130.458 29.7321 130.458 28.1845C130.458 26.6652 130.911 25.4 131.819 24.391C132.77 23.3138 134.055 22.7752 135.671 22.7752C137.259 22.7752 138.461 23.3138 139.277 24.391C139.924 25.2467 140.249 26.3051 140.249 27.5619ZM137.915 26.9813C137.931 26.3177 137.771 25.7444 137.439 25.2604C137.016 24.6378 136.365 24.327 135.489 24.327C134.688 24.327 134.037 24.6304 133.54 25.2394C133.133 25.7234 132.89 26.304 132.816 26.9802H137.915V26.9813Z" fill="#FAFAF9"/>
</g>
<g id="Group_5">
<g id="Group_6">
<path id="Vector_11" d="M56.3148 10.5086C56.3148 11.7444 55.9095 12.6747 55.1001 13.2994C54.3503 13.8758 53.2849 14.1646 51.9048 14.1646C51.2206 14.1646 50.635 14.1373 50.1448 14.0827V7.33045C50.7843 7.23595 51.4731 7.18765 52.2171 7.18765C53.5317 7.18765 54.5225 7.44909 55.1908 7.97196C55.9393 8.56309 56.3148 9.4083 56.3148 10.5086ZM55.0461 10.5391C55.0461 9.73798 54.8142 9.12376 54.3503 8.69538C53.8865 8.26805 53.2091 8.05386 52.317 8.05386C51.9381 8.05386 51.6155 8.07696 51.348 8.12526V13.2585C51.4961 13.2795 51.7671 13.2889 52.1609 13.2889C53.0817 13.2889 53.7923 13.0548 54.2929 12.5865C54.7935 12.1182 55.0461 11.4357 55.0461 10.5391Z" fill="#FAFAF9"/>
<path id="Vector_12" d="M63.0416 11.5893C63.0416 12.3505 62.8039 12.9741 62.3286 13.4634C61.8303 13.9663 61.1701 14.2173 60.3458 14.2173C59.5513 14.2173 58.9187 13.9768 58.4468 13.4939C57.9761 13.0119 57.7407 12.404 57.7407 11.6712C57.7407 10.9047 57.983 10.2758 58.4698 9.78755C58.9566 9.29933 59.611 9.05469 60.4354 9.05469C61.2299 9.05469 61.8682 9.29513 62.3516 9.77705C62.8108 10.2453 63.0416 10.8501 63.0416 11.5893ZM61.7936 11.625C61.7936 11.1682 61.6857 10.7766 61.471 10.4501C61.2184 10.0553 60.859 9.8579 60.3917 9.8579C59.9084 9.8579 59.541 10.0553 59.2884 10.4501C59.0725 10.7766 58.9658 11.1745 58.9658 11.6449C58.9658 12.1016 59.0737 12.4933 59.2884 12.8198C59.549 13.2146 59.9118 13.412 60.3802 13.412C60.8395 13.412 61.2 13.2114 61.4595 12.8093C61.6822 12.4765 61.7936 12.0817 61.7936 11.625Z" fill="#FAFAF9"/>
<path id="Vector_13" d="M72.0614 9.1543L70.3679 14.1038H69.2657L68.5642 11.9545C68.3862 11.418 68.2416 10.8846 68.1291 10.3554H68.1072C68.0028 10.8993 67.8581 11.4316 67.6721 11.9545L66.927 14.1038H65.8122L64.2197 9.1543H65.4562L66.0682 11.5072C66.2163 12.0637 66.338 12.5939 66.4356 13.0958H66.4574C66.547 12.6821 66.6951 12.1551 66.904 11.5177L67.6721 9.15535H68.6526L69.3885 11.4673C69.5665 12.0312 69.7112 12.574 69.8225 13.0969H69.8558C69.9373 12.5876 70.0602 12.0448 70.2232 11.4673L70.8799 9.15535H72.0614V9.1543Z" fill="#FAFAF9"/>
<path id="Vector_14" d="M78.2989 14.1022H77.0957V11.2674C77.0957 10.3938 76.7329 9.95703 76.005 9.95703C75.6479 9.95703 75.3598 10.0767 75.1359 10.3172C74.9143 10.5576 74.8018 10.8411 74.8018 11.1655V14.1012H73.5986V10.5671C73.5986 10.1324 73.5836 9.66095 73.5549 9.15067H74.6123L74.6686 9.92449H74.7019C74.842 9.68405 75.0509 9.48561 75.3253 9.32707C75.6514 9.14227 76.0165 9.04883 76.416 9.04883C76.9212 9.04883 77.3414 9.19792 77.6755 9.49716C78.0911 9.86359 78.2989 10.4106 78.2989 11.1372V14.1022Z" fill="#FAFAF9"/>
<path id="Vector_15" d="M81.6171 14.1033H80.415V6.88281H81.6171V14.1033Z" fill="#FAFAF9"/>
<path id="Vector_16" d="M88.701 11.5893C88.701 12.3505 88.4633 12.9741 87.988 13.4634C87.4897 13.9663 86.8284 14.2173 86.0052 14.2173C85.2096 14.2173 84.577 13.9768 84.1062 13.4939C83.6355 13.0119 83.4001 12.404 83.4001 11.6712C83.4001 10.9047 83.6424 10.2758 84.1292 9.78755C84.616 9.29933 85.2704 9.05469 86.0936 9.05469C86.8893 9.05469 87.5265 9.29513 88.011 9.77705C88.4702 10.2453 88.701 10.8501 88.701 11.5893ZM87.4518 11.625C87.4518 11.1682 87.3439 10.7766 87.1292 10.4501C86.8778 10.0553 86.5173 9.8579 86.0511 9.8579C85.5666 9.8579 85.1992 10.0553 84.9478 10.4501C84.732 10.7766 84.6252 11.1745 84.6252 11.6449C84.6252 12.1016 84.7331 12.4933 84.9478 12.8198C85.2084 13.2146 85.5712 13.412 86.0397 13.412C86.4989 13.412 86.8583 13.2114 87.1177 12.8093C87.3416 12.4765 87.4518 12.0817 87.4518 11.625Z" fill="#FAFAF9"/>
<path id="Vector_17" d="M94.524 14.1049H93.4436L93.3541 13.5348H93.3208C92.9511 13.9894 92.4241 14.2173 91.7398 14.2173C91.2289 14.2173 90.8156 14.0671 90.5045 13.769C90.222 13.4981 90.0808 13.161 90.0808 12.761C90.0808 12.1562 90.3564 11.6953 90.9109 11.3761C91.4643 11.0569 92.2427 10.9005 93.245 10.9078V10.8155C93.245 10.1634 92.8707 9.83795 92.121 9.83795C91.5871 9.83795 91.1164 9.96079 90.71 10.2044L90.4654 9.48202C90.9683 9.19748 91.5894 9.05469 92.3219 9.05469C93.7364 9.05469 94.4459 9.73715 94.4459 11.1021V12.9248C94.4459 13.4193 94.4724 13.8131 94.524 14.1049ZM93.2749 12.404V11.6407C91.9476 11.6197 91.284 11.9525 91.284 12.6382C91.284 12.8965 91.3598 13.0896 91.5148 13.2188C91.6698 13.3479 91.8673 13.412 92.1026 13.412C92.3667 13.412 92.6136 13.3353 92.8386 13.1831C93.0648 13.0298 93.2037 12.8356 93.2553 12.5972C93.268 12.5437 93.2749 12.4786 93.2749 12.404Z" fill="#FAFAF9"/>
<path id="Vector_18" d="M101.361 14.1033H100.293L100.237 13.3085H100.204C99.8628 13.9133 99.2819 14.2157 98.4655 14.2157C97.8134 14.2157 97.2704 13.9815 96.8398 13.5132C96.4093 13.045 96.1946 12.437 96.1946 11.6905C96.1946 10.8894 96.4276 10.2405 96.8961 9.74497C97.3496 9.283 97.9053 9.05201 98.5666 9.05201C99.2933 9.05201 99.802 9.27565 100.091 9.72398H100.114V6.88281H101.319V12.7699C101.319 13.2518 101.332 13.6959 101.361 14.1033ZM100.114 12.016V11.1908C100.114 11.048 100.103 10.9325 100.081 10.8443C100.013 10.5797 99.8674 10.3571 99.6458 10.1776C99.4219 9.99801 99.1521 9.90772 98.841 9.90772C98.3921 9.90772 98.0407 10.0705 97.7824 10.397C97.5264 10.7235 97.3967 11.1404 97.3967 11.6496C97.3967 12.1389 97.5195 12.5357 97.7663 12.8413C98.027 13.1668 98.3783 13.3295 98.818 13.3295C99.213 13.3295 99.5287 13.1941 99.7687 12.9221C100.001 12.6712 100.114 12.3688 100.114 12.016Z" fill="#FAFAF9"/>
<path id="Vector_19" d="M111.652 11.5893C111.652 12.3505 111.414 12.9741 110.939 13.4634C110.44 13.9663 109.781 14.2173 108.956 14.2173C108.163 14.2173 107.53 13.9768 107.057 13.4939C106.586 13.0119 106.351 12.404 106.351 11.6712C106.351 10.9047 106.593 10.2758 107.08 9.78755C107.567 9.29933 108.221 9.05469 109.047 9.05469C109.84 9.05469 110.479 9.29513 110.962 9.77705C111.421 10.2453 111.652 10.8501 111.652 11.5893ZM110.405 11.625C110.405 11.1682 110.297 10.7766 110.082 10.4501C109.828 10.0553 109.47 9.8579 109.002 9.8579C108.52 9.8579 108.152 10.0553 107.898 10.4501C107.683 10.7766 107.576 11.1745 107.576 11.6449C107.576 12.1016 107.684 12.4933 107.898 12.8198C108.159 13.2146 108.522 13.412 108.99 13.412C109.45 13.412 109.811 13.2114 110.071 12.8093C110.292 12.4765 110.405 12.0817 110.405 11.625Z" fill="#FAFAF9"/>
<path id="Vector_20" d="M118.121 14.1022H116.919V11.2674C116.919 10.3938 116.556 9.95703 115.827 9.95703C115.47 9.95703 115.182 10.0767 114.959 10.3172C114.737 10.5576 114.625 10.8411 114.625 11.1655V14.1012H113.421V10.5671C113.421 10.1324 113.407 9.66095 113.378 9.15067H114.435L114.491 9.92449H114.524C114.665 9.68405 114.874 9.48561 115.148 9.32707C115.475 9.14227 115.839 9.04883 116.24 9.04883C116.744 9.04883 117.164 9.19792 117.498 9.49716C117.915 9.86359 118.121 10.4106 118.121 11.1372V14.1022Z" fill="#FAFAF9"/>
<path id="Vector_21" d="M126.219 9.97677H124.894V12.3812C124.894 12.9922 125.129 13.2978 125.595 13.2978C125.811 13.2978 125.99 13.281 126.132 13.2463L126.163 14.081C125.925 14.1629 125.613 14.2039 125.228 14.2039C124.753 14.2039 124.383 14.0716 124.115 13.807C123.847 13.5424 123.714 13.0972 123.714 12.4725V9.97677H122.923V9.15256H123.714V8.24541L124.893 7.91992V9.15151H126.218V9.97677H126.219Z" fill="#FAFAF9"/>
<path id="Vector_22" d="M132.589 14.1033H131.384V11.2894C131.384 10.4022 131.021 9.95811 130.295 9.95811C129.737 9.95811 129.355 10.2154 129.147 10.7298C129.111 10.838 129.09 10.9703 129.09 11.1257V14.1023H127.888V6.88281H129.09V9.86572H129.113C129.492 9.32289 130.035 9.05201 130.739 9.05201C131.237 9.05201 131.649 9.2011 131.977 9.50034C132.384 9.87307 132.589 10.4274 132.589 11.1603V14.1033Z" fill="#FAFAF9"/>
<path id="Vector_23" d="M139.16 11.3958C139.16 11.5931 139.144 11.759 139.115 11.8945H135.507C135.523 12.3838 135.695 12.7565 136.029 13.0148C136.334 13.2458 136.728 13.3613 137.21 13.3613C137.744 13.3613 138.231 13.2836 138.67 13.1271L138.858 13.8915C138.345 14.0952 137.741 14.197 137.042 14.197C136.203 14.197 135.543 13.9713 135.066 13.5198C134.586 13.0683 134.348 12.4625 134.348 11.7023C134.348 10.9558 134.57 10.3343 135.016 9.83868C135.482 9.30951 136.113 9.04492 136.908 9.04492C137.687 9.04492 138.278 9.30951 138.678 9.83868C139 10.2587 139.16 10.7784 139.16 11.3958ZM138.012 11.1112C138.021 10.7847 137.942 10.5033 137.779 10.266C137.57 9.96048 137.252 9.80718 136.821 9.80718C136.429 9.80718 136.108 9.95628 135.864 10.2555C135.664 10.4939 135.546 10.7784 135.507 11.1112H138.012Z" fill="#FAFAF9"/>
</g>
</g>
</g>
</g>
</svg>
