<svg width="155" height="42" viewBox="0 0 155 42" fill="none" xmlns="http://www.w3.org/2000/svg">
<g id="googleplay">
<path id="path14" d="M149.267 42H5.94997C2.79843 42 0.217285 39.6363 0.217285 36.7503V5.25179C0.217285 2.36574 2.79843 0.00204306 5.94997 0.00204306H149.267C152.419 0.00204306 155 2.36574 155 5.25179V36.7503C155 39.6363 152.419 42 149.267 42Z" fill="#1C1917"/>
<path id="path16" d="M149.267 0.843313C151.921 0.843313 154.081 2.82116 154.081 5.25179V36.7503C154.081 39.1809 151.921 41.1587 149.267 41.1587H5.94997C3.29574 41.1587 1.13595 39.1809 1.13595 36.7503V5.25179C1.13595 2.82116 3.29574 0.843313 5.94997 0.843313H149.267ZM149.267 0.00204306H5.94997C2.79843 0.00204306 0.217285 2.36574 0.217285 5.25179V36.7503C0.217285 39.6363 2.79843 42 5.94997 42H149.267C152.419 42 155 39.6363 155 36.7503V5.25179C155 2.36574 152.419 0.00204306 149.267 0.00204306Z" fill="#1C1917"/>
<g id="g18">
<path id="path20" d="M54.5829 10.7565C54.5829 11.6332 54.2963 12.3354 53.7316 12.859C53.0824 13.4798 52.2368 13.7922 51.2006 13.7922C50.2103 13.7922 49.3647 13.4746 48.6711 12.8485C47.976 12.2133 47.6292 11.4337 47.6292 10.5006C47.6292 9.56743 47.976 8.78785 48.6711 8.15788C49.3647 7.52659 50.2103 7.20898 51.2006 7.20898C51.6936 7.20898 52.1637 7.30217 52.6123 7.47541C53.0594 7.64996 53.4235 7.8862 53.6872 8.17756L53.0881 8.73141C52.6281 8.234 52.0018 7.98857 51.2006 7.98857C50.4783 7.98857 49.852 8.21956 49.3203 8.68548C48.7943 9.1527 48.5306 9.75774 48.5306 10.5006C48.5306 11.2434 48.7943 11.8537 49.3203 12.3209C49.852 12.7816 50.4783 13.0178 51.2006 13.0178C51.9674 13.0178 52.6123 12.7816 53.1211 12.3157C53.4564 12.0073 53.647 11.582 53.6972 11.0387H51.2006V10.2801H54.5313C54.5714 10.4441 54.5829 10.6029 54.5829 10.7565Z" fill="#FAFAF9" stroke="#FAFAF9" stroke-width="0.16" stroke-miterlimit="10"/>
</g>
<g id="g22">
<path id="path24" d="M59.8673 8.12654H56.7387V10.1214H59.5592V10.88H56.7387V12.8749H59.8673V13.648H55.853V7.35352H59.8673V8.12654Z" fill="#FAFAF9" stroke="#FAFAF9" stroke-width="0.16" stroke-miterlimit="10"/>
</g>
<g id="g26">
<path id="path28" d="M63.5965 13.648H62.7108V8.12654H60.7917V7.35352H65.5169V8.12654H63.5965V13.648Z" fill="#FAFAF9" stroke="#FAFAF9" stroke-width="0.16" stroke-miterlimit="10"/>
</g>
<g id="g30">
<path id="path32" d="M68.936 13.648V7.35352H69.8203V13.648H68.936Z" fill="#FAFAF9" stroke="#FAFAF9" stroke-width="0.16" stroke-miterlimit="10"/>
</g>
<g id="g34">
<path id="path36" d="M73.7405 13.648H72.862V8.12654H70.9358V7.35352H75.6667V8.12654H73.7405V13.648Z" fill="#FAFAF9" stroke="#FAFAF9" stroke-width="0.16" stroke-miterlimit="10"/>
</g>
<g id="g38">
<path id="path40" d="M84.6125 12.838C83.9346 13.4746 83.0947 13.7922 82.0929 13.7922C81.0854 13.7922 80.2456 13.4746 79.5677 12.838C78.8912 12.2028 78.5544 11.4232 78.5544 10.5006C78.5544 9.57793 78.8912 8.79834 79.5677 8.16313C80.2456 7.52659 81.0854 7.20898 82.0929 7.20898C83.089 7.20898 83.9288 7.52659 84.6067 8.16838C85.2889 8.80884 85.6257 9.58318 85.6257 10.5006C85.6257 11.4232 85.2889 12.2028 84.6125 12.838ZM80.2227 12.3104C80.7329 12.7816 81.3534 13.0178 82.0929 13.0178C82.8267 13.0178 83.453 12.7816 83.9575 12.3104C84.4663 11.8393 84.7242 11.2342 84.7242 10.5006C84.7242 9.76692 84.4663 9.16189 83.9575 8.69073C83.453 8.21956 82.8267 7.98332 82.0929 7.98332C81.3534 7.98332 80.7329 8.21956 80.2227 8.69073C79.7139 9.16189 79.4559 9.76692 79.4559 10.5006C79.4559 11.2342 79.7139 11.8393 80.2227 12.3104Z" fill="#FAFAF9" stroke="#FAFAF9" stroke-width="0.16" stroke-miterlimit="10"/>
</g>
<g id="g42">
<path id="path44" d="M86.8682 13.648V7.35352H87.943L91.2852 12.2489H91.3239L91.2852 11.0388V7.35352H92.1695V13.648H91.2465L87.7467 8.51108H87.708L87.7467 9.7264V13.648H86.8682Z" fill="#FAFAF9" stroke="#FAFAF9" stroke-width="0.16" stroke-miterlimit="10"/>
</g>
<path id="path46" d="M78.3364 22.8406C75.6435 22.8406 73.4436 24.7174 73.4436 27.3069C73.4436 29.8753 75.6435 31.7718 78.3364 31.7718C81.0351 31.7718 83.235 29.8753 83.235 27.3069C83.235 24.7174 81.0351 22.8406 78.3364 22.8406ZM78.3364 30.0131C76.8588 30.0131 75.5876 28.8962 75.5876 27.3069C75.5876 25.6965 76.8588 24.5993 78.3364 24.5993C79.814 24.5993 81.091 25.6965 81.091 27.3069C81.091 28.8962 79.814 30.0131 78.3364 30.0131ZM67.6607 22.8406C64.9621 22.8406 62.7679 24.7174 62.7679 27.3069C62.7679 29.8753 64.9621 31.7718 67.6607 31.7718C70.358 31.7718 72.5536 29.8753 72.5536 27.3069C72.5536 24.7174 70.358 22.8406 67.6607 22.8406ZM67.6607 30.0131C66.1817 30.0131 64.9062 28.8962 64.9062 27.3069C64.9062 25.6965 66.1817 24.5993 67.6607 24.5993C69.1383 24.5993 70.4096 25.6965 70.4096 27.3069C70.4096 28.8962 69.1383 30.0131 67.6607 30.0131ZM54.9571 24.2095V26.1073H59.9058C59.7611 27.1677 59.3741 27.9473 58.7808 28.4907C58.0585 29.1469 56.9334 29.8753 54.9571 29.8753C51.9116 29.8753 49.5268 27.6245 49.5268 24.8355C49.5268 22.0466 51.9116 19.7958 54.9571 19.7958C56.6038 19.7958 57.8019 20.3851 58.6862 21.1489L60.1466 19.8115C58.9098 18.7301 57.2645 17.8993 54.9571 17.8993C50.7808 17.8993 47.271 21.0111 47.271 24.8355C47.271 28.66 50.7808 31.7718 54.9571 31.7718C57.2143 31.7718 58.9098 31.0945 60.2426 29.8241C61.6084 28.5734 62.0341 26.8147 62.0341 25.3946C62.0341 24.9537 61.994 24.5481 61.9223 24.2095H54.9571ZM106.904 25.6807C106.501 24.682 105.259 22.8406 102.728 22.8406C100.22 22.8406 98.1314 24.6505 98.1314 27.3069C98.1314 29.8084 100.198 31.7718 102.968 31.7718C105.208 31.7718 106.501 30.521 107.033 29.7926L105.37 28.7781C104.816 29.5209 104.06 30.0131 102.968 30.0131C101.883 30.0131 101.105 29.5577 100.606 28.66L107.129 26.1887L106.904 25.6807ZM100.254 27.1677C100.198 25.4458 101.714 24.5639 102.801 24.5639C103.652 24.5639 104.374 24.9537 104.615 25.5114L100.254 27.1677ZM94.9526 31.5001H97.0966V18.3757H94.9526V31.5001ZM91.4414 23.8355H91.3697C90.8881 23.3131 89.9695 22.8406 88.8058 22.8406C86.3636 22.8406 84.1307 24.804 84.1307 27.3213C84.1307 29.8241 86.3636 31.7718 88.8058 31.7718C89.9695 31.7718 90.8881 31.2953 91.3697 30.7572H91.4414V31.3977C91.4414 33.1052 90.4453 34.0226 88.8387 34.0226C87.5288 34.0226 86.7162 33.1564 86.3808 32.428L84.5163 33.1406C85.0537 34.3244 86.4768 35.7812 88.8387 35.7812C91.3525 35.7812 93.4736 34.4268 93.4736 31.1313V23.1123H91.4414V23.8355ZM88.9892 30.0131C87.5116 30.0131 86.2748 28.8805 86.2748 27.3213C86.2748 25.7477 87.5116 24.5993 88.9892 24.5993C90.4453 24.5993 91.5933 25.7477 91.5933 27.3213C91.5933 28.8805 90.4453 30.0131 88.9892 30.0131ZM116.942 18.3757H111.814V31.5001H113.952V26.5273H116.942C119.317 26.5273 121.645 24.9537 121.645 22.4508C121.645 19.9493 119.311 18.3757 116.942 18.3757ZM116.998 24.7017H113.952V20.2013H116.998C118.594 20.2013 119.506 21.4153 119.506 22.4508C119.506 23.4667 118.594 24.7017 116.998 24.7017ZM130.216 22.8157C128.671 22.8157 127.064 23.4404 126.404 24.825L128.301 25.5534C128.71 24.825 129.461 24.5888 130.255 24.5888C131.364 24.5888 132.489 25.1991 132.506 26.2766V26.4144C132.119 26.2097 131.291 25.9065 130.272 25.9065C128.228 25.9065 126.146 26.9367 126.146 28.8595C126.146 30.6181 127.82 31.7508 129.701 31.7508C131.14 31.7508 131.934 31.1562 132.433 30.4646H132.506V31.4791H134.571V26.4446C134.571 24.1176 132.674 22.8157 130.216 22.8157ZM129.958 30.0078C129.258 30.0078 128.284 29.6902 128.284 28.8962C128.284 27.8804 129.499 27.4906 130.551 27.4906C131.493 27.4906 131.934 27.6809 132.506 27.9316C132.338 29.1469 131.196 30.0078 129.958 30.0078ZM142.095 23.1031L139.637 28.7925H139.564L137.023 23.1031H134.717L138.535 31.0539L136.357 35.4781H138.591L144.474 23.1031H142.095ZM122.821 31.5001H124.965V18.3757H122.821V31.5001Z" fill="#FAFAF9"/>
<g id="g48">
<path id="path64" d="M12.1811 7.91667C11.8443 8.23953 11.6494 8.7422 11.6494 9.39317V32.6128C11.6494 33.2638 11.8443 33.7664 12.1811 34.0893L12.2642 34.1602L26.4727 21.1539V20.8468L12.2642 7.84055L12.1811 7.91667Z" fill="url(#paint0_linear_1_7145)"/>
</g>
<g id="g66">
<path id="path78" d="M31.2036 25.4902L26.4727 21.1526V20.8455L31.2093 16.5079L31.3153 16.5644L36.9248 19.4872C38.5256 20.3166 38.5256 21.6815 36.9248 22.5163L31.3153 25.4338L31.2036 25.4902Z" fill="url(#paint1_linear_1_7145)"/>
</g>
<g id="g80">
<path id="path88" d="M31.3159 25.4394L26.4732 21.0047L12.1816 34.0936C12.7133 34.6055 13.5804 34.6672 14.5664 34.1553L31.3159 25.4394Z" fill="url(#paint2_linear_1_7145)"/>
</g>
<g id="g90">
<path id="path104" d="M31.3159 16.567L14.5664 7.85113C13.5804 7.34453 12.7133 7.40621 12.1816 7.91806L26.4732 21.0017L31.3159 16.567Z" fill="url(#paint3_linear_1_7145)"/>
</g>
</g>
<defs>
<linearGradient id="paint0_linear_1_7145" x1="25.2112" y1="32.8546" x2="7.65852" y2="13.6872" gradientUnits="userSpaceOnUse">
<stop stop-color="#00A0FF"/>
<stop offset="0.0066" stop-color="#00A1FF"/>
<stop offset="0.2601" stop-color="#00BEFF"/>
<stop offset="0.5122" stop-color="#00D2FF"/>
<stop offset="0.7604" stop-color="#00DFFF"/>
<stop offset="1" stop-color="#00E3FF"/>
</linearGradient>
<linearGradient id="paint1_linear_1_7145" x1="39.0094" y1="20.9976" x2="11.2667" y2="20.9976" gradientUnits="userSpaceOnUse">
<stop stop-color="#FFE000"/>
<stop offset="0.4087" stop-color="#FFBD00"/>
<stop offset="0.7754" stop-color="#FFA500"/>
<stop offset="1" stop-color="#FF9C00"/>
</linearGradient>
<linearGradient id="paint2_linear_1_7145" x1="28.6826" y1="18.5939" x2="4.87979" y2="-7.3986" gradientUnits="userSpaceOnUse">
<stop stop-color="#FF3A44"/>
<stop offset="1" stop-color="#C31162"/>
</linearGradient>
<linearGradient id="paint3_linear_1_7145" x1="8.58415" y1="41.8157" x2="19.2132" y2="30.209" gradientUnits="userSpaceOnUse">
<stop stop-color="#32A071"/>
<stop offset="0.0685" stop-color="#2DA771"/>
<stop offset="0.4762" stop-color="#15CF74"/>
<stop offset="0.8009" stop-color="#06E775"/>
<stop offset="1" stop-color="#00F076"/>
</linearGradient>
</defs>
</svg>
