<svg width="48" height="49" viewBox="0 0 48 49" fill="none" xmlns="http://www.w3.org/2000/svg">
<g id="smiley-wink-light 2">
<path id="Vector" d="M24 12.25C21.4783 12.25 19.0132 12.9978 16.9165 14.3988C14.8198 15.7998 13.1856 17.791 12.2205 20.1208C11.2555 22.4505 11.003 25.0141 11.495 27.4874C11.987 29.9607 13.2013 32.2325 14.9844 34.0156C16.7675 35.7987 19.0393 37.0131 21.5126 37.505C23.9859 37.997 26.5495 37.7445 28.8792 36.7795C31.209 35.8144 33.2003 34.1802 34.6012 32.0835C36.0022 29.9868 36.75 27.5217 36.75 25C36.746 21.6197 35.4015 18.379 33.0112 15.9888C30.621 13.5985 27.3803 12.254 24 12.25ZM24 36.25C21.775 36.25 19.5999 35.5902 17.7498 34.354C15.8998 33.1179 14.4578 31.3609 13.6064 29.3052C12.7549 27.2495 12.5321 24.9875 12.9662 22.8052C13.4003 20.6229 14.4717 18.6184 16.0451 17.045C17.6184 15.4717 19.623 14.4002 21.8052 13.9662C23.9875 13.5321 26.2495 13.7549 28.3052 14.6064C30.3609 15.4578 32.1179 16.8998 33.354 18.7498C34.5902 20.5999 35.25 22.775 35.25 25C35.2467 27.9827 34.0604 30.8422 31.9513 32.9513C29.8422 35.0604 26.9827 36.2467 24 36.25ZM18.25 22.5C18.25 22.2528 18.3233 22.0111 18.4607 21.8055C18.598 21.6 18.7932 21.4398 19.0217 21.3452C19.2501 21.2505 19.5014 21.2258 19.7439 21.274C19.9863 21.3222 20.2091 21.4413 20.3839 21.6161C20.5587 21.7909 20.6778 22.0137 20.726 22.2561C20.7742 22.4986 20.7495 22.7499 20.6549 22.9784C20.5602 23.2068 20.4 23.402 20.1945 23.5393C19.9889 23.6767 19.7472 23.75 19.5 23.75C19.1685 23.75 18.8505 23.6183 18.6161 23.3839C18.3817 23.1495 18.25 22.8315 18.25 22.5ZM30.75 22.5C30.75 22.6989 30.671 22.8897 30.5303 23.0303C30.3897 23.171 30.1989 23.25 30 23.25H27C26.8011 23.25 26.6103 23.171 26.4697 23.0303C26.329 22.8897 26.25 22.6989 26.25 22.5C26.25 22.3011 26.329 22.1103 26.4697 21.9697C26.6103 21.829 26.8011 21.75 27 21.75H30C30.1989 21.75 30.3897 21.829 30.5303 21.9697C30.671 22.1103 30.75 22.3011 30.75 22.5ZM29.6488 28.375C28.4088 30.52 26.35 31.75 24 31.75C21.65 31.75 19.5913 30.52 18.3513 28.375C18.2616 28.2036 18.2416 28.0042 18.2955 27.8184C18.3494 27.6326 18.473 27.4748 18.6405 27.378C18.808 27.2812 19.0064 27.2529 19.1943 27.2989C19.3821 27.3449 19.545 27.4618 19.6488 27.625C20.6288 29.3175 22.1738 30.25 24 30.25C25.8263 30.25 27.375 29.3175 28.3513 27.625C28.3981 27.5354 28.4627 27.4562 28.541 27.3921C28.6193 27.3281 28.7097 27.2805 28.8069 27.2523C28.904 27.2242 29.0058 27.2159 29.1063 27.2281C29.2067 27.2403 29.3036 27.2727 29.3912 27.3233C29.4787 27.3739 29.5552 27.4418 29.6158 27.5227C29.6765 27.6036 29.7202 27.696 29.7443 27.7942C29.7683 27.8925 29.7723 27.9946 29.7559 28.0944C29.7395 28.1942 29.703 28.2896 29.6488 28.375Z" fill="#78716C"/>
</g>
</svg>
