<svg width="20" height="16" viewBox="0 0 20 16" fill="none" xmlns="http://www.w3.org/2000/svg">
<path id="Path" d="M19.1667 2.31544C18.4849 2.6145 17.7584 2.81273 17.001 2.90898C17.7802 2.44377 18.3749 1.71273 18.6545 0.831585C17.928 1.26471 17.1259 1.57065 16.2711 1.74138C15.5813 1.0069 14.5982 0.552002 13.5257 0.552002C11.4449 0.552002 9.76968 2.24096 9.76968 4.31148C9.76968 4.6094 9.79489 4.89586 9.85676 5.16856C6.73208 5.01617 3.96718 3.51856 2.10979 1.23721C1.78552 1.79981 1.59531 2.44377 1.59531 3.137C1.59531 4.43867 2.26562 5.59252 3.26479 6.26054C2.66093 6.24908 2.06854 6.07377 1.56666 5.79763C1.56666 5.80909 1.56666 5.82398 1.56666 5.83888C1.56666 7.66534 2.86947 9.18242 4.57791 9.5319C4.27197 9.61554 3.93854 9.65565 3.59249 9.65565C3.35187 9.65565 3.10895 9.6419 2.88093 9.59148C3.36791 11.0799 4.74979 12.1742 6.39291 12.2097C5.11416 13.21 3.49052 13.8127 1.73281 13.8127C1.42458 13.8127 1.12895 13.799 0.833328 13.7612C2.49822 14.8348 4.47135 15.4478 6.59916 15.4478C13.5154 15.4478 17.2967 9.71867 17.2967 4.75263C17.2967 4.58648 17.2909 4.42606 17.2829 4.26679C18.0288 3.73742 18.6556 3.07627 19.1667 2.31544Z" fill="#FAFAF9"/>
</svg>
