<svg width="48" height="49" viewBox="0 0 48 49" fill="none" xmlns="http://www.w3.org/2000/svg">
<g id="users-light (1) 2">
<path id="Vector" d="M22.075 28.8034C23.4678 28.014 24.5601 26.7858 25.1815 25.3104C25.8029 23.835 25.9186 22.1955 25.5104 20.6475C25.1022 19.0995 24.1931 17.7302 22.925 16.7531C21.6568 15.776 20.1009 15.2461 18.5 15.2461C16.8991 15.2461 15.3432 15.776 14.0751 16.7531C12.8069 17.7302 11.8979 19.0995 11.4897 20.6475C11.0815 22.1955 11.1971 23.835 11.8185 25.3104C12.44 26.7858 13.5323 28.014 14.925 28.8034C12.3437 29.6263 10.127 31.3175 8.65127 33.5896C8.54253 33.7562 8.50442 33.9592 8.54533 34.1539C8.58623 34.3486 8.7028 34.519 8.86939 34.6278C9.03598 34.7365 9.23895 34.7746 9.43363 34.7337C9.62832 34.6928 9.79878 34.5762 9.90752 34.4096C10.8383 32.9786 12.1117 31.8026 13.6123 30.9886C15.1128 30.1745 16.7929 29.7481 18.5 29.7481C20.2071 29.7481 21.8872 30.1745 23.3878 30.9886C24.8883 31.8026 26.1618 32.9786 27.0925 34.4096C27.2083 34.5581 27.3758 34.6575 27.5615 34.6882C27.7473 34.7189 27.9378 34.6786 28.0952 34.5754C28.2526 34.4721 28.3655 34.3134 28.4113 34.1308C28.4571 33.9482 28.4325 33.755 28.3425 33.5896C26.8684 31.3186 24.654 29.6276 22.075 28.8034ZM12.75 22.4996C12.75 21.3624 13.0873 20.2507 13.7191 19.3051C14.3509 18.3595 15.2489 17.6225 16.2996 17.1873C17.3503 16.7521 18.5064 16.6383 19.6218 16.8601C20.7372 17.082 21.7617 17.6296 22.5659 18.4338C23.37 19.2379 23.9177 20.2625 24.1395 21.3779C24.3614 22.4933 24.2475 23.6494 23.8123 24.7001C23.3771 25.7507 22.6401 26.6488 21.6945 27.2806C20.749 27.9124 19.6373 28.2496 18.5 28.2496C16.9756 28.2476 15.5143 27.6412 14.4363 26.5633C13.3584 25.4854 12.752 24.024 12.75 22.4996ZM39.125 34.6246C38.9586 34.7333 38.7558 34.7714 38.5613 34.7306C38.3667 34.6898 38.1963 34.5735 38.0875 34.4071C37.1584 32.9759 35.8859 31.8 34.386 30.9865C32.886 30.173 31.2064 29.7478 29.5 29.7496C29.3011 29.7496 29.1103 29.6706 28.9697 29.53C28.829 29.3893 28.75 29.1985 28.75 28.9996C28.75 28.8007 28.829 28.61 28.9697 28.4693C29.1103 28.3286 29.3011 28.2496 29.5 28.2496C30.3467 28.2488 31.1828 28.0609 31.9486 27.6995C32.7143 27.3381 33.3907 26.812 33.9296 26.1589C34.4684 25.5057 34.8564 24.7417 35.0657 23.9212C35.2751 23.1008 35.3006 22.2442 35.1406 21.4127C34.9805 20.5813 34.6388 19.7954 34.1399 19.1113C33.6409 18.4272 32.997 17.8618 32.2542 17.4553C31.5114 17.0489 30.688 16.8115 29.8428 16.7602C28.9976 16.7089 28.1516 16.8448 27.365 17.1584C27.2734 17.1959 27.1753 17.2149 27.0763 17.2143C26.9773 17.2137 26.8794 17.1935 26.7883 17.1549C26.6972 17.1163 26.6146 17.06 26.5453 16.9893C26.476 16.9187 26.4213 16.835 26.3846 16.7431C26.3478 16.6512 26.3295 16.5529 26.3309 16.4539C26.3323 16.355 26.3532 16.2572 26.3925 16.1664C26.4319 16.0756 26.4888 15.9934 26.56 15.9247C26.6312 15.8559 26.7153 15.802 26.8075 15.7659C28.5135 15.0857 30.4141 15.0784 32.1254 15.7454C33.8366 16.4124 35.2309 17.704 36.0266 19.3592C36.8224 21.0145 36.9602 22.9101 36.4123 24.6631C35.8645 26.4161 34.6717 27.8958 33.075 28.8034C35.6563 29.6263 37.8731 31.3175 39.3488 33.5896C39.456 33.7566 39.4927 33.9594 39.4508 34.1534C39.4088 34.3474 39.2917 34.5168 39.125 34.6246Z" fill="#78716C"/>
</g>
</svg>
