<svg width="196" height="230" viewBox="0 0 196 230" fill="none" xmlns="http://www.w3.org/2000/svg">
<path d="M96.8017 98.0709C82.3707 95.0643 66.9933 98.6027 54.3989 106.264C45.7199 111.544 37.9592 119.138 34.9105 128.829C32.2447 137.307 33.4159 146.501 35.3801 155.168C38.2626 167.89 42.9019 180.419 50.761 190.829C58.6201 201.239 69.966 209.399 82.8205 211.621C88.2363 212.557 93.8747 212.427 99.1477 210.875C105.088 209.127 110.396 205.637 115.023 201.523C147.592 172.552 145.612 108.24 96.8017 98.0709Z" fill="#FAFAF9"/>
<path d="M140.159 92.5352C104.875 124.237 49.0911 130.532 7.63004 107.491" stroke="#FAFAF9" stroke-width="2.3425" stroke-miterlimit="10"/>
<path d="M8.15531 187.676C29.1348 184.026 50.366 181.823 71.6488 181.089C88.4082 180.51 105.76 180.961 121.029 187.897C130.306 192.112 138.512 198.66 144.68 206.77" stroke="#FAFAF9" stroke-width="1.78499" stroke-miterlimit="10"/>
<path d="M121.595 76C108.298 125.963 113.571 180.645 136.17 227.148" stroke="#FAFAF9" stroke-width="2.3425" stroke-miterlimit="10"/>
<path d="M34.7235 84.793C43.1272 125.084 36.1817 168.383 15.5981 204.024" stroke="#FAFAF9" stroke-width="1.78499" stroke-miterlimit="10"/>
<path d="M1.00006 142.47C15.4205 141.208 29.0949 148.462 41.5277 155.877C71.5761 173.8 101.954 196.192 113.549 229.201" stroke="#FAFAF9" stroke-width="2.3425" stroke-miterlimit="10"/>
<path d="M30.0802 200.158C52.649 190.501 71.5108 172.452 82.1517 150.33C92.7925 128.209 95.1198 102.206 88.576 78.5469" stroke="#FAFAF9" stroke-width="2.3425" stroke-miterlimit="10"/>
<path d="M30.6003 91.791C78.3323 115.673 124.714 147.329 150.779 193.905C152.039 196.158 152.859 199.711 150.481 200.717" stroke="#FAFAF9" stroke-width="1.78499" stroke-miterlimit="10"/>
<path d="M177.315 120.548C178.235 118.56 196.159 36.0748 114 13.6934" stroke="#1C1917" stroke-width="2.96116" stroke-miterlimit="10"/>
<path d="M195.85 86.7811C190.625 87.1911 185.387 87.4195 180.147 87.4687" stroke="#1C1917" stroke-width="2.96116" stroke-miterlimit="10"/>
<path d="M186.148 52.1484C181.459 54.5202 176.87 57.0899 172.398 59.8494" stroke="#1C1917" stroke-width="2.96116" stroke-miterlimit="10"/>
<path d="M166.766 24.3672C163.082 27.9266 159.713 31.8105 156.71 35.9602" stroke="#1C1917" stroke-width="2.96116" stroke-miterlimit="10"/>
<path d="M143.272 6.79492C141.866 11.9625 139.925 16.9848 137.49 21.7541" stroke="#1C1917" stroke-width="2.96116" stroke-miterlimit="10"/>
<path d="M122.462 1C121.908 5.76113 120.827 10.4614 119.244 14.9847" stroke="#1C1917" stroke-width="2.96116" stroke-miterlimit="10"/>
</svg>
